<?xml version="1.0" encoding="UTF-8"?>
<svg width="21px" height="25px" viewBox="0 0 21 25" version="1.1" xmlns="http://www.w3.org/2000/svg" xmlns:xlink="http://www.w3.org/1999/xlink">
    <!-- Generator: Sketch 63.1 (92452) - https://sketch.com -->
    <title>user</title>
    <desc>Created with Sketch.</desc>
    <g id="UI" stroke="none" stroke-width="1" fill="none" fill-rule="evenodd">
        <g id="Mi-Cuenta" transform="translate(-130.000000, -624.000000)" fill="#218A3D" fill-rule="nonzero">
            <g id="Group" transform="translate(0.000000, 617.000000)">
                <g id="Tab-2" transform="translate(94.000000, 0.000000)">
                    <g id="user" transform="translate(36.000000, 7.000000)">
                        <path d="M10.5,12 C12.1485271,12 13.5758315,11.4087238 14.742382,10.2421363 C15.9085524,9.07573888 16.5,7.64857933 16.5,5.99980995 C16.5,4.35161077 15.9087425,2.92426112 14.742192,1.75748362 C13.5756414,0.591276265 12.148337,0 10.5,0 C8.85128288,0 7.42416849,0.591276265 6.25780803,1.75767367 C5.09144758,2.92407108 4.5,4.35142072 4.5,5.99980995 C4.5,7.64857933 5.09144758,9.07592892 6.25780803,10.2423263 C7.42454862,11.4085337 8.851853,12 10.5,12 Z M7.29018054,2.78988883 C8.18514415,1.89489687 9.23500156,1.45984984 10.5,1.45984984 C11.7648084,1.45984984 12.8148559,1.89489687 13.7100095,2.78988883 C14.6049731,3.68507079 15.0401964,4.73515156 15.0401964,5.99980995 C15.0401964,7.26484844 14.6049731,8.31473916 13.7100095,9.20992112 C12.8148559,10.1051031 11.7648084,10.5401502 10.5,10.5401502 C9.23538169,10.5401502 8.18552423,10.1049131 7.29018054,9.20992112 C6.39502694,8.31492921 5.9598036,7.26484844 5.9598036,5.99980995 C5.9598036,4.73515156 6.39502694,3.68507079 7.29018054,2.78988883 Z" id="Shape"></path>
                        <path d="M20.9491102,19.1898198 C20.9151197,18.6998185 20.8463705,18.1653065 20.7451671,17.6008648 C20.6430035,17.0322024 20.5114582,16.4946206 20.353988,16.0032763 C20.1911407,15.4954324 19.9701063,14.9939197 19.6964538,14.5133193 C19.4128153,14.0144925 19.0794393,13.5801296 18.7053514,13.2227011 C18.3141723,12.8487729 17.8352324,12.5481338 17.2813981,12.3288419 C16.7294841,12.1107011 16.1178467,12.0001918 15.463577,12.0001918 C15.2066317,12.0001918 14.958136,12.1055211 14.4782358,12.4176714 C14.1828831,12.6101035 13.8374088,12.8326569 13.4517988,13.0788087 C13.1220715,13.2886997 12.6753937,13.4853525 12.1236718,13.6633953 C11.5853924,13.837409 11.0388555,13.925663 10.4992319,13.925663 C9.95999232,13.925663 9.41345541,13.837409 8.874792,13.6633953 C8.32364615,13.4855444 7.87677634,13.2888915 7.54762517,13.0790006 C7.16566379,12.835151 6.81999742,12.6125976 6.52022788,12.4174796 C6.04071182,12.1053292 5.79221609,12 5.53527078,12 C4.88080912,12 4.26936372,12.1107011 3.7176418,12.3290338 C3.16419152,12.547942 2.68505956,12.848581 2.29349637,13.2228929 C1.91940854,13.5805133 1.58603253,14.0146844 1.30258611,14.5133193 C1.02931763,14.9939197 0.808091154,15.4952405 0.645243888,16.0034682 C0.487965678,16.4948125 0.356420433,17.0322024 0.254256818,17.6008648 C0.15286135,18.164539 0.0843041988,18.6992429 0.0503136849,19.1903954 C0.0168992447,19.6706121 0,20.170398 0,20.6753642 C0,21.9880459 0.417680207,23.0507386 1.24132634,23.8344722 C2.05479452,24.6078455 3.13096915,25 4.44008449,25 L16.5599155,25 C17.8686468,25 18.9448214,24.6078455 19.7584816,23.8344722 C20.5823198,23.0513142 21,21.9882378 21,20.6751723 C21,20.1684795 20.9827167,19.6686935 20.9491102,19.1898198 L20.9491102,19.1898198 Z M18.7414544,22.7667911 C18.2039432,23.2778967 17.4903342,23.5263508 16.5597235,23.5263508 L4.44008449,23.5263508 C3.50928176,23.5263508 2.7956728,23.2778967 2.25835361,22.766983 C1.73121241,22.2656621 1.4750352,21.5813102 1.4750352,20.6753642 C1.4750352,20.2041648 1.49059017,19.7389129 1.52170017,19.2922711 C1.55204197,18.8540711 1.61406989,18.3727033 1.70605556,17.861214 C1.79688899,17.3560561 1.91249521,16.8819788 2.04999361,16.4527959 C2.18192291,16.0412639 2.36186149,15.6337608 2.58500831,15.2412226 C2.79797719,14.8671025 3.04301629,14.5461267 3.3134042,14.2875043 C3.56631675,14.0455733 3.88509796,13.8475775 4.26072208,13.6990806 C4.60811676,13.5617114 4.99852771,13.4865036 5.4223531,13.4751841 C5.474011,13.5026196 5.56599668,13.5549964 5.71501729,13.6520757 C6.01824352,13.849496 6.36775063,14.0747355 6.75412881,14.321271 C7.18966844,14.5986954 7.75080015,14.8492599 8.42120088,15.0654821 C9.10658046,15.2868844 9.80559467,15.3993123 10.4994239,15.3993123 C11.1932531,15.3993123 11.8924594,15.2868844 12.5774549,15.0656739 C13.2484317,14.849068 13.8093714,14.5986954 14.2454871,14.3208872 C14.6408911,14.0684042 14.9806043,13.8496879 15.2838305,13.6520757 C15.4328511,13.5551883 15.5248368,13.5026196 15.5764947,13.4751841 C16.0005121,13.4865036 16.3909231,13.5617114 16.7385098,13.6990806 C17.1139419,13.8475775 17.4327231,14.0457651 17.6856357,14.2875043 C17.9560236,14.5459349 18.2010626,14.8669107 18.4140315,15.2414144 C18.6373704,15.6337608 18.817501,16.0414557 18.9492383,16.4526041 C19.0869287,16.8823625 19.202727,17.3562479 19.2933684,17.8610222 C19.385162,18.3734707 19.4473819,18.8550303 19.4777238,19.292463 L19.4777238,19.2928467 C19.5090258,19.7377618 19.5247728,20.2028218 19.5249648,20.6753642 C19.5247728,21.5815021 19.2685956,22.2656621 18.7414544,22.7667911 L18.7414544,22.7667911 Z" id="Shape"></path>
                    </g>
                </g>
            </g>
        </g>
    </g>
</svg>