<?xml version="1.0" encoding="UTF-8"?>
<svg width="25px" height="22px" viewBox="0 0 25 22" version="1.1" xmlns="http://www.w3.org/2000/svg" xmlns:xlink="http://www.w3.org/1999/xlink">
    <!-- Generator: Sketch 63.1 (92452) - https://sketch.com -->
    <title>hot-drink</title>
    <desc>Created with Sketch.</desc>
    <g id="UI" stroke="none" stroke-width="1" fill="none" fill-rule="evenodd">
        <g id="Mi-Cuenta" transform="translate(-222.000000, -626.000000)" fill="#9096A0" fill-rule="nonzero">
            <g id="Group" transform="translate(0.000000, 617.000000)">
                <g id="Tab-3" transform="translate(188.000000, 0.000000)">
                    <g id="hot-drink" transform="translate(34.000000, 9.000000)">
                        <path d="M22.9542453,4.68901336 C22.0908019,4.06884827 21.0868514,3.75210299 20.0581368,3.76383648 L20.2117925,2.64219733 C20.2720519,2.20227987 20.1391509,1.75805818 19.8473467,1.42344733 C19.5555425,1.08883648 19.1334316,0.896914308 18.6893868,0.896914308 L1.53755896,0.896914308 C1.09357311,0.896914308 0.671462264,1.08883648 0.379599057,1.42344733 C0.0876768868,1.75805818 -0.0451061321,2.20233884 0.0151533019,2.64219733 L2.34604953,19.6585888 C2.51762972,20.9110063 3.60023585,21.8554049 4.86438679,21.8554049 L15.362559,21.8554049 C16.626592,21.8554049 17.709316,20.9110063 17.8808962,19.6585888 L18.3706368,16.083294 C18.3712854,16.0831171 18.371934,16.0831171 18.3725236,16.0828813 L20.995283,15.3777516 C23.3525354,14.744261 24.9994104,12.5959709 24.9994104,10.1545794 L24.9994104,8.67527516 C24.9994104,7.07521619 24.2541274,5.62220912 22.9542453,4.68901336 Z M16.5787146,19.480228 C16.4958726,20.0850039 15.9729953,20.541077 15.3625,20.541077 L4.86432783,20.541077 C4.25389151,20.541077 3.73101415,20.0850039 3.64817217,19.480228 L3.56143868,18.8469733 L16.6655071,18.8469733 L16.5787146,19.480228 Z M16.8454599,17.5326454 L3.38142689,17.5326454 L1.73295991,5.49868318 L12.5198703,5.49868318 C12.8826061,5.49868318 13.1770637,5.20428459 13.1770637,4.84148978 C13.1770637,4.47875393 12.8826651,4.18429638 12.5198703,4.18429638 L1.55288915,4.18429638 L1.31721698,2.46371855 C1.30524764,2.37657233 1.34516509,2.31584119 1.36992925,2.28736242 C1.39475236,2.25888365 1.4495283,2.21118318 1.5375,2.21118318 L18.6892689,2.21118318 C18.7771816,2.21118318 18.8320165,2.25894261 18.8567807,2.28736242 C18.8816038,2.31590016 18.9214623,2.37651336 18.9095519,2.46371855 L16.8454599,17.5326454 Z M19.5510024,7.46601808 C20.0574882,7.27038129 20.5129127,7.35056997 20.8631486,7.60222091 C21.2134434,7.85257469 21.4138561,8.24426101 21.4138561,8.67539308 L21.4138561,10.1546973 C21.4138561,10.9774568 20.8585495,11.7016903 20.0646816,11.9152516 L18.8986439,12.2281643 L19.5510024,7.46601808 Z M23.6850236,10.1546973 C23.6850236,12.0026336 22.4383844,13.6284591 20.6535377,14.1081761 L18.5642099,14.6699096 L18.7051297,13.6413719 L20.4057783,13.184886 C21.7733491,12.816195 22.728184,11.5702044 22.728184,10.1546973 L22.728184,8.67539308 C22.728184,7.81519261 22.3272995,7.03447327 21.6300708,6.53435535 C21.0717571,6.13323506 20.4048939,5.97044025 19.7433373,6.06171384 L19.8769458,5.08624214 C20.6949882,5.03282233 21.5014741,5.26342374 22.1879717,5.75623035 C23.1395637,6.43966195 23.6849646,7.50363601 23.6849646,8.67533412 L23.6849646,10.1546973 L23.6850236,10.1546973 Z" id="Shape"></path>
                    </g>
                </g>
            </g>
        </g>
    </g>
</svg>