<?xml version="1.0" encoding="UTF-8"?>
<svg width="98px" height="120px" viewBox="0 0 98 120" version="1.1" xmlns="http://www.w3.org/2000/svg" xmlns:xlink="http://www.w3.org/1999/xlink">
    <!-- Generator: Sketch 63.1 (92452) - https://sketch.com -->
    <title>food (1)</title>
    <desc>Created with Sketch.</desc>
    <defs>
        <polygon id="path-1" points="0 0.137333594 8.47907609 0.137333594 8.47907609 4.89401025 0 4.89401025"></polygon>
        <polygon id="path-3" points="0.00782608696 0.265867145 5.68956522 0.265867145 5.68956522 4.41058719 0.00782608696 4.41058719"></polygon>
        <polygon id="path-5" points="0.0286206638 0.246310038 32.3264464 0.246310038 32.3264464 26.4130435 0.0286206638 26.4130435"></polygon>
    </defs>
    <g id="UI" stroke="none" stroke-width="1" fill="none" fill-rule="evenodd">
        <g id="Splash-2" transform="translate(-139.000000, -133.000000)">
            <g id="food-(1)" transform="translate(139.000000, 133.000000)">
                <path d="M92.9708862,10.8407592 L87.1371459,10.8407592 L85.5166627,2.98278797 C85.1596069,1.25427234 83.61969,0 81.8554688,0 L15.9054565,0 C14.1403198,0 12.6004029,1.25427234 12.2442628,2.98278797 L10.6228638,10.8407592 L4.78912359,10.8407592 C2.21282953,10.8407592 0.1171875,12.9364012 0.1171875,15.5126953 L0.1171875,23.2369995 C0.1171875,25.8132935 2.21282953,27.909851 4.78912359,27.909851 L7.08160406,27.909851 L8.38073719,37.0385742 C7.98706055,37.265625 7.62817383,37.5558471 7.32330328,37.9064941 C6.54327398,38.8064576 6.19171148,39.9984741 6.35925281,41.1785888 L15.0320435,102.113342 C15.2709961,103.794251 16.5335084,105.127258 18.1283569,105.520935 L19.3624877,114.196472 C19.8339844,117.505188 22.7087402,120 26.0504152,120 L71.7105103,120 C75.052185,120 77.9269409,117.505188 78.3984375,114.196472 L79.6325684,105.520935 C81.2274169,105.127258 82.4899291,103.794251 82.7288817,102.113342 L91.4016724,41.1785888 C91.5692137,39.9984741 91.2176512,38.8064576 90.4376222,37.9064941 C90.1327514,37.5558471 89.7738647,37.265625 89.3792723,37.0385742 L90.6793214,27.909851 L92.9718019,27.909851 C95.5480957,27.909851 97.6437377,25.8132935 97.6437377,23.2369995 L97.6437377,15.5126953 C97.6437377,12.9364012 95.5471802,10.8407592 92.9708862,10.8407592 Z M87.9171752,40.682373 L79.2443848,101.617126 C79.2031861,101.906433 78.9523315,102.123413 78.6611939,102.123413 L61.8218995,102.123413 C60.8505248,102.123413 60.0631713,102.910767 60.0631713,103.883057 C60.0631713,104.855347 60.8505248,105.6427 61.8218995,105.6427 L76.0610963,105.6427 L74.9139403,113.701172 C74.6878052,115.28595 73.3108521,116.481628 71.7095948,116.481628 L26.0504152,116.481628 C24.4491577,116.481628 23.0722045,115.28595 22.8460692,113.701172 L21.6998292,105.6427 L53.6343384,105.6427 C54.6066284,105.6427 55.3939819,104.855347 55.3939819,103.883057 C55.3939819,102.910767 54.6066284,102.123413 53.6343384,102.123413 L19.0988159,102.123413 C18.8076783,102.123413 18.5568237,101.906433 18.515625,101.617126 L9.84283453,40.682373 C9.80987555,40.4507447 9.91516125,40.2886964 9.98107922,40.2127076 C10.0442505,40.1403809 10.1815795,40.0250245 10.395813,40.014038 C10.4196166,40.0131225 10.442505,40.0112916 10.4672241,40.0094604 L87.2927857,40.0094604 C87.3165893,40.0112916 87.3403931,40.0131225 87.3641967,40.014038 C87.5784302,40.0250245 87.7157592,40.1403809 87.7789308,40.2127076 C87.8448488,40.2886964 87.9501342,40.4507447 87.9171752,40.682373 L87.9171752,40.682373 Z M10.6365966,27.909851 L87.1243287,27.909851 L85.9030151,36.4910888 L11.8579102,36.4910888 L10.6365966,27.909851 Z M94.1244506,23.2369995 C94.1244506,23.873291 93.6071777,24.3905639 92.9708862,24.3905639 L4.78912359,24.3905639 C4.1537475,24.3905639 3.63555914,23.873291 3.63555914,23.2369995 L3.63555914,15.5126953 C3.63555914,14.8764037 4.1537475,14.3591309 4.78912359,14.3591309 L20.5334473,14.3591309 C21.5048217,14.3591309 22.2921752,13.5717773 22.2921752,12.5994872 C22.2921752,11.6281127 21.5048217,10.8407592 20.5334473,10.8407592 L14.2163086,10.8407592 L15.6903075,3.69415289 C15.7113647,3.5925293 15.802002,3.51837164 15.9054565,3.51837164 L81.8554688,3.51837164 C81.9589233,3.51837164 82.0495605,3.5925293 82.0706177,3.69415289 L83.5446166,10.8407592 L28.7210084,10.8407592 C27.7487182,10.8407592 26.9613647,11.6281127 26.9613647,12.5994872 C26.9613647,13.5717773 27.7487182,14.3591309 28.7210084,14.3591309 L92.9708862,14.3591309 C93.6071777,14.3591309 94.1244506,14.8764037 94.1244506,15.5126953 L94.1244506,23.2369995 Z" id="Shape" fill="#198B39" fill-rule="nonzero"></path>
                <g id="Group-26" transform="translate(26.000000, 49.000000)">
                    <g id="Group-3" transform="translate(0.000000, 15.482935)">
                        <mask id="mask-2" fill="white">
                            <use xlink:href="#path-1"></use>
                        </mask>
                        <g id="Clip-2"></g>
                        <path d="M8.47907609,4.27963043 C8.47907609,4.27963043 6.93896739,-1.27330435 -0.000163043478,0.479413043 C-0.000163043478,0.479413043 1.44733696,6.85963043 8.47907609,4.27963043" id="Fill-1" fill="#401F1F" mask="url(#mask-2)"></path>
                    </g>
                    <path d="M8.54116304,20.102837 C8.54116304,20.102837 5.01616304,20.4491413 5.36116304,24.8385978 C5.36116304,24.8385978 9.37822826,24.6341413 8.54116304,20.102837" id="Fill-4" fill="#401F1F"></path>
                    <path d="M8.63892391,19.9151087 C8.63892391,19.9151087 9.92501087,20.9341304 11.2075109,19.3493478 C11.2075109,19.3493478 9.80175,18.1261957 8.63892391,19.9151087" id="Fill-6" fill="#401F1F"></path>
                    <g id="Group-10" transform="translate(39.130435, 30.482935)">
                        <mask id="mask-4" fill="white">
                            <use xlink:href="#path-3"></use>
                        </mask>
                        <g id="Clip-9"></g>
                        <path d="M0.00782608696,4.30607609 C0.00782608696,4.30607609 0.332282609,-0.000554347826 5.6898913,0.278902174 C5.6898913,0.278902174 5.55358696,5.1806413 0.00782608696,4.30607609" id="Fill-8" fill="#401F1F" mask="url(#mask-4)"></path>
                    </g>
                    <path d="M39.14175,35.0485435 C39.14175,35.0485435 41.7840326,34.7906087 42.1688152,38.0681087 C42.1688152,38.0681087 39.1854457,38.5021304 39.14175,35.0485435" id="Fill-11" fill="#401F1F"></path>
                    <path d="M39.0427174,34.9248261 C39.0427174,34.9248261 38.2447826,35.8606957 37.0715217,34.8824348 C37.0715217,34.8824348 37.9271739,33.7783043 39.0427174,34.9248261" id="Fill-13" fill="#401F1F"></path>
                    <path d="M27.2653696,19.0857065 C27.4675435,19.1783152 27.3322174,19.56375 27.1496087,20.0284239 C27.0038478,20.3985326 26.712,20.4402717 26.5499348,20.4327717 C26.5695,20.3104891 26.5965652,20.1957065 26.6298261,20.0920109 C26.7863478,19.5327717 27.0514565,19.2392935 27.2653696,19.0857065 M24.6204783,20.962337 C24.6172174,20.9740761 24.6178696,20.9825543 24.6152609,20.9939674 C24.4936304,21.0833152 24.327,21.1752717 24.2715652,21.1739811 C24.1721087,21.172337 24.1235217,21.0546196 24.1466739,20.7979891 C24.1698261,20.5407065 24.3100435,20.1627717 24.3416739,20.0747283 C24.4838478,19.6883152 24.7235217,19.4352717 24.7235217,19.4352717 C24.8656957,19.2474457 25.0492826,19.2657065 25.1089565,19.2774457 C24.9018913,19.9703804 24.7039565,20.6450543 24.6204783,20.962337 M28.6111304,21.2352717 C28.4621087,21.1961413 28.5501522,20.924837 28.6349348,20.610163 L29.6689565,17.159837 L28.9799348,17.159837 C28.9799348,17.159837 28.2840652,19.4355978 27.9674348,20.5446196 C27.2552609,21.4879891 26.5551522,21.5525543 26.5218913,20.95125 C26.5163478,20.8517935 26.5183043,20.7585326 26.5238478,20.6682065 C26.6728696,20.6929891 26.8874348,20.6867935 27.1668913,20.5671196 C27.747,20.3186413 28.0365652,19.5102717 27.8888478,19.15875 C27.8233043,19.0022283 27.7104783,18.9428804 27.6022174,18.9236413 L27.6028696,18.9233152 C27.6028696,18.9233152 27.5996087,18.9229891 27.5989565,18.9229891 C27.5549348,18.9154891 27.5118913,18.9132065 27.473087,18.9158152 C27.3263478,18.9125543 27.083087,18.9229891 26.8913478,19.0146196 C26.5792826,19.1450543 26.0888478,19.4538587 25.8945,20.1464674 C25.823413,20.3688587 25.7979783,20.6342935 25.8106957,20.9466848 C25.7291739,21.0536413 25.5299348,21.2880978 25.3763478,21.247663 C25.2276522,21.2088587 25.3156957,20.9375543 25.4001522,20.6225543 L26.4341739,17.1722283 L25.7454783,17.1722283 C25.7454783,17.1722283 25.4891739,18.0105978 25.2168913,18.9171196 C25.0887391,18.9324457 24.9501522,18.9670109 24.7861304,19.0296196 C24.4006957,19.1766848 24.0560217,19.5872283 24.0560217,19.5872283 C23.5812391,20.2133152 23.4560217,21.0627717 23.4560217,21.0627717 C23.4041739,21.4716848 23.4798261,21.6467935 23.6236304,21.7136413 C23.7583043,21.7755978 24.0472174,21.7097283 24.1845,21.6402717 C24.3406957,21.5620109 24.4861304,21.4429891 24.5872174,21.3500543 C24.6361304,21.7905978 25.0574348,21.8532065 25.3763478,21.6011413 C25.6046087,21.420163 25.7435217,21.2157065 25.8221087,21.0728804 C25.9238478,21.7384239 26.9493913,22.2047283 27.8771087,20.86875 C27.8699348,20.8954891 27.8611304,20.9264674 27.8552609,20.9496196 C27.6472174,21.7394022 28.2133043,21.9027717 28.6111304,21.5884239 C29.0083043,21.2744022 29.1406957,20.8821196 29.1406957,20.8821196 L29.0836304,20.8821196 C29.0836304,20.8821196 28.808087,21.2871196 28.6111304,21.2352717" id="Fill-15" fill="#401F1F"></path>
                    <polygon id="Fill-17" fill="#401F1F" points="36.6881413 22.2386413 36.8091196 22.59375 41.179663 21.4309239 41.179663 19.709837"></polygon>
                    <g id="Group-21" transform="translate(7.500000, 16.787283)">
                        <mask id="mask-6" fill="white">
                            <use xlink:href="#path-5"></use>
                        </mask>
                        <g id="Clip-20"></g>
                        <path d="M29.2766739,8.2511087 C29.3647174,8.15165217 29.4517826,8.06328261 29.5385217,7.98045652 C29.7726522,7.851 29.9415652,7.78741304 30.0191739,7.79719565 C30.7372174,7.88752174 30.1574348,9.50034783 29.5554783,10.9354565 C29.1664565,11.8631739 28.4073261,12.4990435 27.7890652,12.5163261 C27.6687391,12.519587 27.5546087,12.4908913 27.4492826,12.4475217 C27.5308043,12.0379565 27.6397174,11.657087 27.7535217,11.2990435 C28.140913,9.90208696 28.7223261,8.87752174 29.2766739,8.2511087 M15.2461304,14.2530652 C14.8489565,14.8993696 14.243413,15.1915435 14.0076522,15.1602391 C13.6897174,15.1188261 13.4924348,14.7761087 13.5843913,13.8601288 C13.6756957,12.9441522 14.2264565,11.5983913 14.3533043,11.2837174 C14.9141739,9.906 15.7342826,8.89936957 15.7342826,8.89936957 C16.4079783,8.09165217 17.0063478,8.43078261 17.0063478,8.43078261 C17.0060217,8.43143478 15.3928696,13.6719783 15.2461304,14.2530652 M29.6487391,12.9232826 C31.6828696,11.9730652 32.7866739,9.42534783 32.1433043,7.94947826 C31.8172174,7.20176087 31.2051522,7.05926087 30.7395,7.07393478 C30.6087391,7.0683913 30.4518913,7.06578261 30.2745,7.07230435 C30.0172174,7.0811087 29.4778696,7.12219565 28.8250435,7.35208696 C28.208087,7.56958696 26.8065652,8.39915217 26.0050435,9.68295652 C25.9675435,9.74295652 25.9225435,9.81078261 25.8726522,9.88676087 C25.2361304,9.13578261 25.4125435,7.75219565 25.4125435,7.75219565 L23.2551522,9.23621739 L23.9441739,6.921 C23.9441739,6.921 24.8996087,3.34676087 25.1908043,2.82045652 C25.4813478,2.29382609 25.980587,1.18545652 27.2689565,1.18545652 C28.2550435,1.18545652 28.7216739,1.95730435 28.4131957,2.62317391 C28.0587391,3.3885 27.5037391,3.17230435 27.3801522,2.82045652 C27.2135217,2.34926087 27.5542826,2.0411087 27.5542826,2.0411087 C27.5542826,2.0411087 26.5783043,1.73197826 26.0376522,2.71578261 C25.4973261,3.69926087 25.9241739,4.78643478 27.2265652,4.75871739 C27.2265652,4.75871739 28.793087,4.82915217 29.4442826,3.13904348 C29.4442826,3.13904348 29.9617826,2.08284783 29.3056957,1.10752174 C29.2026522,0.954586957 28.8899348,0.285130435 27.1864565,0.24926087 C26.1671087,0.21176087 24.8451522,0.518934783 23.6533043,1.9061087 C23.6533043,1.9061087 22.6000435,2.84817391 21.810587,5.86806522 L20.0513478,11.769913 L19.1777609,14.6525217 C18.9521087,14.9319783 18.6736304,15.1563261 18.4143913,15.2737174 C18.2321087,15.3562174 17.8541739,15.4432826 17.6523261,15.1468696 C17.5515652,14.9557826 17.5887391,14.7604565 17.6350435,14.5543696 C17.7331957,14.121 17.9102609,13.5428478 17.9102609,13.5428478 L19.7924348,7.3083913 L19.7921087,7.3083913 L19.7921087,7.30806522 C18.792,6.84567391 17.7351522,6.88904348 16.2172174,7.41306522 C14.6992826,7.93773913 13.3721087,9.43415217 13.3721087,9.43415217 C11.7788478,11.3339348 11.1856957,13.8050217 11.0448261,14.4982826 L11.0438478,14.4992609 C9.70134783,16.1179565 8.35917391,17.2387174 6.89308696,17.7382826 C6.43036957,17.8957826 4.97602174,18.3744783 4.08319565,17.417413 C3.64884783,16.9902391 3.41732609,16.4942609 3.41732609,16.4942609 C3.41732609,16.4942609 2.83526087,15.3617609 2.82547826,13.8239348 C2.81504348,12.2861087 3.61493478,10.4779565 3.61493478,10.4779565 C4.07308696,9.32197826 4.55634783,8.36002174 5.0171087,7.57284783 C5.81830435,6.21241304 6.62471739,5.27132609 7.2768913,4.6436087 C8.57080435,3.50654348 9.45743478,3.20393478 9.83895652,3.14002174 C11.0197174,2.94176087 11.8163478,3.56002174 11.8231957,4.26469565 C11.8336304,5.40763043 10.5658043,6.13480435 9.92178261,6.38458696 C9.2771087,6.63371739 8.37319565,6.36371739 8.37319565,6.36371739 C8.37319565,6.36371739 8.51243478,6.92328261 8.94482609,7.44926087 C10.0903696,8.79436957 12.2490652,8.25436957 12.6808043,8.09882609 C14.7374348,7.35665217 15.4893913,5.07665217 14.7136304,3.42991304 C13.7748261,1.43686957 11.1566739,1.4486087 9.65015217,1.85393478 C6.07004348,2.79241304 3.32406522,6.4308913 2.43254348,7.80958696 C1.53971739,9.18828261 -1.218,14.0319783 0.68276087,17.3802391 C2.58319565,20.7288261 7.0443913,18.6777391 7.0443913,18.6777391 C9.03091304,17.7969783 10.5410217,16.1857826 10.9642826,15.7044783 C11.0229783,16.4808913 11.333413,16.8966522 11.7481957,17.0694783 C12.2797174,17.2908913 12.9781957,17.1203478 13.5208043,16.8735 C14.2848261,16.5258913 14.8323261,16.0233913 15.1042826,15.7377391 C15.1085217,15.9275217 15.1231957,16.1166522 15.1551522,16.292413 C15.4450435,17.2126304 16.4151522,17.1673043 16.4151522,17.1673043 C17.2124348,17.1989348 18.0243913,16.6648043 18.2901522,16.4375217 C18.4711304,16.2829565 18.638413,16.1081739 18.7906957,15.9294783 L17.5991739,19.8601304 L17.3451522,20.7268696 C17.3451522,20.7268696 16.5465652,23.8501304 15.7010217,25.1662174 C15.4933043,25.5262174 14.967,25.9002391 14.3435217,25.4153478 C13.8387391,25.0230652 14.1785217,23.7493696 15.0175435,23.7715435 C15.2148261,23.7767609 15.4747174,23.8696957 15.7225435,24.0464348 C15.7225435,24.0464348 16.6156957,22.2151304 14.288087,22.0214348 C14.288087,22.0214348 12.6256957,21.8411087 12.2099348,23.8083913 C11.7945,25.7756739 14.0112391,26.4265435 14.828087,26.4130588 C15.645913,26.3991522 17.1697174,26.1356739 18.2643913,24.4181739 C19.358413,22.7000217 19.8276522,20.7500217 19.8276522,20.7500217 L22.8814565,10.4916522 C22.9652609,10.9005652 23.1400435,11.3538261 23.5006957,11.6587174 C23.9816739,12.0196957 24.4981957,12.0363261 24.9912391,11.8605652 C24.9028696,12.1996957 24.8262391,12.5841522 24.7714565,13.0269783 C24.7329783,13.5053478 24.7303696,14.0225217 24.7610217,14.5833913 C24.8118913,15.5091522 25.358413,16.3628478 26.1990652,16.8239348 C26.6797174,17.087413 27.293413,17.1604565 27.9283043,17.1069783 C28.6838478,17.0443696 29.4892826,16.7688261 30.3413478,16.0811087 C30.4088478,16.0266522 30.6208043,15.8929565 30.5500435,15.7732826 C30.5063478,15.7162174 30.2643913,15.7938261 30.2643913,15.7938261 C28.3701522,16.1658913 27.4867826,15.7468696 27.3475435,14.3296957 C27.3116739,13.9651304 27.3126522,13.6253478 27.3348261,13.3018696 C27.8285217,13.4427391 28.5706957,13.4267609 29.6487391,12.9232826" id="Fill-19" fill="#401F1F" mask="url(#mask-6)"></path>
                    </g>
                    <path d="M37.4087935,12.9051848 C37.0191196,13.5446413 36.4256413,13.8338804 36.1944457,13.8029022 C35.8827065,13.761163 35.6890109,13.4217065 35.7786848,12.5145326 C35.8690109,11.6073587 36.409337,10.2739891 36.5339022,9.96225 C37.084337,8.59757609 37.8881413,7.60007609 37.8881413,7.60007609 C38.5491196,6.80083696 39.1350978,7.13507609 39.1364022,7.13572826 C39.13575,7.13768478 37.5503152,12.3387717 37.4087935,12.9051848 M39.9027065,14.21475 C39.8264022,14.14725 39.5420543,13.9659457 39.7536848,13.20225 C39.8495543,12.7731196 40.0236848,12.2001848 40.0236848,12.2001848 L41.8699891,6.02442391 L41.8703152,6.02409783 L41.8699891,6.02409783 L41.8699891,6.02409783 L41.869663,6.02409783 C40.8878152,5.56627174 39.8515109,5.60866304 38.3622717,6.12811957 C36.8730326,6.64790217 35.5709674,8.12996739 35.5709674,8.12996739 C33.7354239,10.3395326 33.2508587,13.3388804 33.2508587,13.3388804 C33.0499891,14.7818152 33.4204239,15.4594239 33.9780326,15.6938804 C34.4991196,15.913337 35.1848804,15.7444239 35.7167283,15.5001848 C36.46575,15.155837 37.0034674,14.6579022 37.2702065,14.3748587 C37.2741196,14.5626848 37.2887935,14.7501848 37.3204239,14.9243152 C37.6047717,15.8354022 38.5569457,15.7910543 38.5569457,15.7910543 C39.3392283,15.8220326 40.1352065,15.2927935 40.3960761,15.0677935 C41.209337,14.3673587 41.18325,14.1801848 41.18325,14.1805109 C41.18325,14.1805109 40.3200978,14.6360543 39.9027065,14.21475" id="Fill-22" fill="#401F1F"></path>
                    <path d="M22.8431413,12.9048587 C22.4537935,13.5446413 21.8599891,13.8338804 21.6284674,13.8029022 C21.3167283,13.761163 21.1233587,13.4217065 21.2130326,12.5145326 C21.3033587,11.6073587 21.8433587,10.2739891 21.9675978,9.96225 C22.5186848,8.59757609 23.322163,7.60007609 23.322163,7.60007609 C23.9841196,6.7998587 24.57075,7.13605435 24.57075,7.13605435 C24.5697717,7.13931522 22.9853152,12.3364891 22.8431413,12.9048587 M31.8669457,9.98083696 C30.9914022,9.34301087 30.6522717,8.89822826 30.5723804,8.43551087 C30.4448804,7.69692391 30.7484674,7.16116304 30.9379239,6.97627174 C31.2304239,6.69192391 31.6275978,6.52138043 31.9898804,6.52138043 C31.9898804,6.52138043 32.7389022,6.44572826 32.8148804,7.12822826 C32.8905326,7.81040217 31.9236848,8.22746739 31.3080326,7.62094565 C31.1466196,7.8296413 30.8906413,9.12811957 32.3785761,9.40268478 C32.3785761,9.40268478 34.2359674,9.74377174 34.4352065,7.66822826 C34.5490109,6.03811957 32.5967283,5.78246739 32.5967283,5.78246739 C32.5967283,5.78246739 29.71575,5.29888043 28.7110761,7.5071413 C28.7110761,7.5071413 27.971837,9.13757609 29.2223804,10.6065978 C29.2223804,10.6065978 29.5729239,11.04225 29.9808587,11.3549674 C30.3884674,11.6676848 31.0611848,12.0752935 31.137163,13.3643152 C31.137163,13.3643152 31.137163,14.9471413 29.6870543,15.0417065 C28.4740109,15.0038804 28.8340109,13.8854022 28.8340109,13.8854022 C28.8340109,13.8854022 29.07075,13.2084457 29.6965109,13.2368152 C30.0281413,13.2368152 30.3790109,13.5821413 30.3790109,13.5821413 C30.3790109,13.5821413 30.8055326,12.5207283 29.8103152,11.8193152 C28.8147717,11.1179022 27.2515109,11.4779022 26.9003152,12.8523587 C26.8814022,12.9276848 26.8683587,13.003337 26.8579239,13.0796413 C26.6205326,13.4588804 26.2712935,13.7693152 25.9523804,13.9150761 C25.7733587,13.9965978 25.4025978,14.0830109 25.204337,13.7895326 C25.1058587,13.59975 25.1420543,13.4063804 25.1880326,13.20225 C25.2839022,12.7731196 25.4580326,12.2001848 25.4580326,12.2001848 L27.304337,6.02409783 L27.3040109,6.02409783 C26.322163,5.56627174 25.2855326,5.60866304 23.7966196,6.12811957 C22.3070543,6.64790217 21.0053152,8.12996739 21.0053152,8.12996739 C19.1694457,10.3395326 18.6852065,13.3388804 18.6852065,13.3388804 C18.68325,13.3512717 18.68325,13.3617065 18.6816196,13.3740978 C17.4855326,14.7162717 16.2783587,15.6557283 14.974663,16.0998587 C14.5112935,16.2576848 13.0566196,16.7363804 12.1647717,15.7789891 C11.7300978,15.3521413 11.49825,14.855837 11.49825,14.855837 C11.49825,14.855837 10.9165109,13.723337 10.9060761,12.1855109 C10.8953152,10.6476848 11.6955326,8.8398587 11.6955326,8.8398587 C12.1540109,7.68355435 12.6372717,6.72192391 13.0980326,5.93475 C13.8992283,4.57431522 14.7056413,3.63290217 15.3581413,3.00551087 C16.6517283,1.86811957 17.5380326,1.56551087 17.9198804,1.50159783 C19.1003152,1.30366304 19.8979239,1.92159783 19.9037935,2.62659783 C19.9145543,3.76953261 18.6470543,4.49670652 18.0023804,4.74616304 C17.3583587,4.99561957 16.4541196,4.72529348 16.4541196,4.72529348 C16.4541196,4.72529348 16.5936848,5.2848587 17.0254239,5.81116304 C18.1712935,7.15594565 20.3299891,6.61627174 20.7617283,6.46040217 C22.8183587,5.71822826 23.5699891,3.43822826 22.7945543,1.79148913 C21.8560761,-0.201228261 19.2372717,-0.189815217 17.7310761,0.21551087 C14.1516196,1.15398913 11.4056413,4.79246739 10.5128152,6.17116304 C9.62096739,7.5498587 6.86325,12.3935543 8.76368478,15.7421413 C10.6634674,19.0904022 15.1256413,17.0393152 15.1256413,17.0393152 C16.7084674,16.3375761 17.9890109,15.170837 18.6591196,14.4814891 C18.7425978,15.1587717 19.0311848,15.5337717 19.4123804,15.6938804 C19.9334674,15.913337 20.6189022,15.7444239 21.15075,15.4998587 C21.9004239,15.155837 22.4378152,14.6579022 22.7045543,14.3748587 C22.7084674,14.5626848 22.7231413,14.7501848 22.7547717,14.9243152 C23.0394457,15.8354022 23.9912935,15.7910543 23.9912935,15.7910543 C24.77325,15.8220326 25.5695543,15.2927935 25.8304239,15.0677935 C26.2752065,14.6846413 26.6400978,14.1769239 26.8794457,13.7950761 C27.0848804,14.8519239 28.0487935,15.7832283 29.4405326,15.7904022 C31.317163,15.7998587 33.2127065,14.7762717 33.1748804,12.3880109 C33.1748804,12.3880109 33.1937935,10.9473587 31.8669457,9.98083696" id="Fill-24" fill="#401F1F"></path>
                </g>
            </g>
        </g>
    </g>
</svg>