<?xml version="1.0" encoding="UTF-8"?>
<svg width="120px" height="128px" viewBox="0 0 120 128" version="1.1" xmlns="http://www.w3.org/2000/svg" xmlns:xlink="http://www.w3.org/1999/xlink">
    <!-- Generator: Sketch 63.1 (92452) - https://sketch.com -->
    <title>login</title>
    <desc>Created with Sketch.</desc>
    <g id="UI" stroke="none" stroke-width="1" fill="none" fill-rule="evenodd">
        <g id="Splash" transform="translate(-128.000000, -125.000000)" fill-rule="nonzero">
            <g id="login" transform="translate(128.000000, 125.000000)">
                <path d="M20.6117106,86.983328 C20.6117106,88.7085213 19.2139175,90.1075225 17.4887242,90.1075225 C15.7635309,90.1075225 14.3657378,88.7085213 14.3657378,86.983328 C14.3657378,85.2581347 15.7635309,83.8603416 17.4887242,83.8603416 C19.2139175,83.8603416 20.6117106,85.2581347 20.6117106,86.983328 L20.6117106,86.983328 Z" id="Path" fill="#35000B"></path>
                <path d="M33.1048645,86.983328 C33.1048645,88.7085213 31.7070714,90.1075225 29.9818781,90.1075225 C28.2566848,90.1075225 26.8576837,88.7085213 26.8576837,86.983328 C26.8576837,85.2581347 28.2566848,83.8603416 29.9818781,83.8603416 C31.7070714,83.8603416 33.1048645,85.2581347 33.1048645,86.983328 L33.1048645,86.983328 Z" id="Path" fill="#35000B"></path>
                <path d="M45.5980188,86.983328 C45.5980188,88.7085213 44.2002254,90.1075225 42.4750324,90.1075225 C40.7498388,90.1075225 39.3520457,88.7085213 39.3520457,86.983328 C39.3520457,85.2581347 40.7498388,83.8603416 42.4750324,83.8603416 C44.2002254,83.8603416 45.5980188,85.2581347 45.5980188,86.983328 L45.5980188,86.983328 Z" id="Path" fill="#35000B"></path>
                <path d="M58.0911727,86.983328 C58.0911727,88.7085213 56.6933796,90.1075225 54.9681863,90.1075225 C53.242993,90.1075225 51.8439915,88.7085213 51.8439915,86.983328 C51.8439915,85.2581347 53.242993,83.8603416 54.9681863,83.8603416 C56.6933796,83.8603416 58.0911727,85.2581347 58.0911727,86.983328 L58.0911727,86.983328 Z" id="Path" fill="#35000B"></path>
                <path d="M70.5843266,86.983328 C70.5843266,88.7085213 69.1865335,90.1075225 67.4613402,90.1075225 C65.7361469,90.1075225 64.3383538,88.7085213 64.3383538,86.983328 C64.3383538,85.2581347 65.7361469,83.8603416 67.4613402,83.8603416 C69.1865335,83.8603416 70.5843266,85.2581347 70.5843266,86.983328 L70.5843266,86.983328 Z" id="Path" fill="#35000B"></path>
                <path d="M83.0774808,86.983328 C83.0774808,88.7085213 81.6796874,90.1075225 79.9544941,90.1075225 C78.2293008,90.1075225 76.8302997,88.7085213 76.8302997,86.983328 C76.8302997,85.2581347 78.2293008,83.8603416 79.9544941,83.8603416 C81.6796874,83.8603416 83.0774808,85.2581347 83.0774808,86.983328 L83.0774808,86.983328 Z" id="Path" fill="#35000B"></path>
                <path d="M20.6117106,115.71722 C20.6117106,117.442413 19.2139175,118.841414 17.4887242,118.841414 C15.7635309,118.841414 14.3657378,117.442413 14.3657378,115.71722 C14.3657378,113.993235 15.7635309,112.594233 17.4887242,112.594233 C19.2139175,112.594233 20.6117106,113.993235 20.6117106,115.71722 L20.6117106,115.71722 Z" id="Path" fill="#35000B"></path>
                <path d="M33.1048645,115.71722 C33.1048645,117.442413 31.7070714,118.841414 29.9818781,118.841414 C28.2566848,118.841414 26.8576837,117.442413 26.8576837,115.71722 C26.8576837,113.993235 28.2566848,112.594233 29.9818781,112.594233 C31.7070714,112.594233 33.1048645,113.993235 33.1048645,115.71722 L33.1048645,115.71722 Z" id="Path" fill="#35000B"></path>
                <path d="M45.5980188,115.71722 C45.5980188,117.442413 44.2002254,118.841414 42.4750324,118.841414 C40.7498388,118.841414 39.3520457,117.442413 39.3520457,115.71722 C39.3520457,113.993235 40.7498388,112.594233 42.4750324,112.594233 C44.2002254,112.594233 45.5980188,113.993235 45.5980188,115.71722 L45.5980188,115.71722 Z" id="Path" fill="#35000B"></path>
                <path d="M58.0911727,115.71722 C58.0911727,117.442413 56.6933796,118.841414 54.9681863,118.841414 C53.242993,118.841414 51.8439915,117.442413 51.8439915,115.71722 C51.8439915,113.993235 53.242993,112.594233 54.9681863,112.594233 C56.6933796,112.594233 58.0911727,113.993235 58.0911727,115.71722 L58.0911727,115.71722 Z" id="Path" fill="#35000B"></path>
                <path d="M70.5843266,115.71722 C70.5843266,117.442413 69.1865335,118.841414 67.4613402,118.841414 C65.7361469,118.841414 64.3383538,117.442413 64.3383538,115.71722 C64.3383538,113.993235 65.7361469,112.594233 67.4613402,112.594233 C69.1865335,112.594233 70.5843266,113.993235 70.5843266,115.71722 L70.5843266,115.71722 Z" id="Path" fill="#35000B"></path>
                <path d="M83.0774808,115.71722 C83.0774808,117.442413 81.6796874,118.841414 79.9544941,118.841414 C78.2293008,118.841414 76.8302997,117.442413 76.8302997,115.71722 C76.8302997,113.993235 78.2293008,112.594233 79.9544941,112.594233 C81.6796874,112.594233 83.0774808,113.993235 83.0774808,115.71722 L83.0774808,115.71722 Z" id="Path" fill="#000000"></path>
                <path d="M111.186775,75.2718266 L100.438144,75.2718266 C99.1442493,75.2718266 98.0956024,76.3204735 98.0956024,77.6131605 C98.0956024,78.9070553 99.1442493,79.9557025 100.438144,79.9557025 L111.186775,79.9557025 C113.339642,79.9557025 115.091414,81.7074742 115.091414,83.8603416 L115.091414,90.1063144 C115.091414,92.2591819 113.339642,94.0109536 111.186775,94.0109536 L8.74315392,94.0109536 C6.5902868,94.0109536 4.83972309,92.2591819 4.83972309,90.1063144 L4.83972309,83.8603416 C4.83972309,81.7074742 6.5902868,79.9557025 8.74315392,79.9557025 L89.4937982,79.9557025 C90.7864853,79.9557025 91.8351322,78.9070553 91.8351322,77.6131605 C91.8351322,76.3204735 90.7864853,75.2718266 89.4937982,75.2718266 L8.74315392,75.2718266 C4.00732918,75.2718266 0.154639175,79.1245169 0.154639175,83.8603416 L0.154639175,90.1063144 C0.154639175,94.8421392 4.00732918,98.6960375 8.74315392,98.6960375 L111.186775,98.6960375 C115.923808,98.6960375 119.776498,94.8421392 119.776498,90.1063144 L119.776498,83.8603416 C119.776498,79.1245169 115.9226,75.2718266 111.186775,75.2718266 L111.186775,75.2718266 Z" id="Path" fill="#218A3D"></path>
                <path d="M111.186775,104.005718 L8.74315392,104.005718 C4.00732918,104.005718 0.154639175,107.858409 0.154639175,112.594233 L0.154639175,118.841414 C0.154639175,123.577239 4.00732918,127.429929 8.74315392,127.429929 L17.7037695,127.429929 C18.9964562,127.429929 20.0463111,126.381282 20.0463111,125.087387 C20.0463111,123.793492 18.9964562,122.744845 17.7037695,122.744845 L8.74315392,122.744845 C6.5902868,122.744845 4.83972309,120.993074 4.83972309,118.841414 L4.83972309,112.594233 C4.83972309,110.441366 6.5902868,108.690802 8.74315392,108.690802 L111.186775,108.690802 C113.339642,108.690802 115.091414,110.441366 115.091414,112.594233 L115.091414,118.841414 C115.091414,120.994282 113.339642,122.744845 111.186775,122.744845 L28.5961664,122.744845 C27.3022713,122.744845 26.2536244,123.793492 26.2536244,125.087387 C26.2536244,126.381282 27.3022713,127.429929 28.5961664,127.429929 L111.186775,127.429929 C115.9226,127.429929 119.776498,123.576031 119.776498,118.841414 L119.776498,112.594233 C119.776498,107.858409 115.9226,104.005718 111.186775,104.005718 L111.186775,104.005718 Z" id="Path" fill="#218A3D"></path>
                <path d="M59.9649646,70.2738402 C79.3395619,70.2738402 95.1018847,54.5115173 95.1018847,35.1369201 C95.1018847,15.7623229 79.3395619,0 59.9649646,0 C50.5126451,0 41.6450548,3.69925918 34.9943623,10.4176064 C34.0846488,11.3357765 34.0918976,12.8193461 35.0112758,13.7302673 C35.9306539,14.6399808 37.4130155,14.632732 38.3239367,13.7133538 C44.0878704,7.89143041 51.7727128,4.68508392 59.9649646,4.68508392 C76.7566045,4.68508392 90.4168008,18.3452802 90.4168008,35.1369201 C90.4168008,41.0216657 88.7375162,46.5210213 85.8344072,51.184359 C83.4858247,44.8489853 78.8551064,39.536888 72.8483409,36.3559116 C75.0761115,33.5095843 76.3096005,29.987919 76.3096005,26.2934923 C76.3096005,17.2809278 68.9775291,9.94885639 59.9649646,9.94885639 C50.9524002,9.94885639 43.6203285,17.2809278 43.6203285,26.2934923 C43.6203285,29.987919 44.8538177,33.5095843 47.0827964,36.3559116 C41.0760309,39.536888 36.4441045,44.8489853 34.0955221,51.184359 C31.1924131,46.5210213 29.5131281,41.0216657 29.5131281,35.1369201 C29.5131281,30.7212467 30.4373388,26.4638369 32.2579735,22.4818781 C32.7967945,21.3051708 32.2797198,19.9158343 31.1030122,19.3770136 C29.9263048,18.8394006 28.5357603,19.3564757 27.9981476,20.533183 C25.894813,25.1312821 24.8280445,30.0447003 24.8280445,35.1369201 C24.8280445,54.5115173 40.5903674,70.2738402 59.9649646,70.2738402 Z M51.9080221,39.3097614 C52.6908829,39.0149808 53.2574904,38.3263531 53.3940077,37.5 C53.5305251,36.6736469 53.2164142,35.8388369 52.5700707,35.3072647 C49.860261,33.0807025 48.3054124,29.795828 48.3054124,26.2934923 C48.3054124,19.8638852 53.5365656,14.63394 59.9649646,14.63394 C66.3945714,14.63394 71.6257249,19.8638852 71.6257249,26.2934923 C71.6257249,29.795828 70.0708763,33.0807025 67.3610663,35.3072647 C66.7147231,35.8388369 66.400612,36.6736469 66.5371296,37.5 C66.6736469,38.3263531 67.2402544,39.0149808 68.0231153,39.3097614 C75.2706186,42.0352769 80.6612437,48.2909149 82.3199904,55.792123 C76.7529801,61.8121778 68.792687,65.5887563 59.9649646,65.5887563 C51.1384503,65.5887563 43.1781572,61.8121778 37.6111469,55.792123 C39.2698936,48.2909149 44.6605188,42.0352769 51.9080221,39.3097614 L51.9080221,39.3097614 Z" id="Shape" fill="#218A3D"></path>
            </g>
        </g>
    </g>
</svg>