<?xml version="1.0" encoding="UTF-8"?>
<svg width="95px" height="120px" viewBox="0 0 95 120" version="1.1" xmlns="http://www.w3.org/2000/svg" xmlns:xlink="http://www.w3.org/1999/xlink">
    <!-- Generator: Sketch 63.1 (92452) - https://sketch.com -->
    <title>notification</title>
    <desc>Created with Sketch.</desc>
    <g id="UI" stroke="none" stroke-width="1" fill="none" fill-rule="evenodd">
        <g id="Splash-4" transform="translate(-140.000000, -123.000000)" fill-rule="nonzero">
            <g id="notification" transform="translate(140.000000, 123.000000)">
                <path d="M91.3783594,88.6059375 C88.84125,86.2865625 87.3860156,82.9980469 87.3860156,79.5836719 L87.3860156,56.2497656 C87.3860156,54.9555469 86.3367188,53.9060156 85.0422656,53.9060156 C83.7478125,53.9060156 82.6985156,54.9555469 82.6985156,56.2497656 L82.6985156,79.5836719 C82.6985156,84.3110156 84.7094531,88.8604688 88.2157031,92.0657812 C89.4759375,93.2177344 90.1985156,94.8567187 90.1985156,96.5629687 C90.1985156,99.9227344 87.465,102.65625 84.1052344,102.65625 L10.9795313,102.65625 C7.61976562,102.65625 4.88625,99.9227344 4.88625,96.5629687 C4.88625,94.8569531 5.60882812,93.2179687 6.8690625,92.0657812 C10.3753125,88.8604688 12.38625,84.3110156 12.38625,79.5836719 L12.38625,52.4997656 C12.38625,33.1146094 28.1573437,17.3435156 47.5425,17.3435156 C52.8740625,17.3435156 58.1254688,18.5559375 62.8814063,20.8619531 C61.2283594,23.5174219 60.2697656,26.6482031 60.2697656,29.9997656 C60.2697656,39.5632031 68.0500781,47.3435156 77.6135156,47.3435156 C87.1769531,47.3435156 94.9572656,39.5632031 94.9572656,29.9997656 C94.9572656,20.4363281 87.1769531,12.6560156 77.6135156,12.6560156 C73.1315625,12.6560156 69.0410156,14.3650781 65.9596875,17.165625 C62.4660937,15.3433594 58.7182031,14.0547656 54.8479687,13.335 C55.7114062,11.9873437 56.214375,10.3875 56.214375,8.67164063 C56.214375,3.89015625 52.3242187,0 47.5425,0 C42.7607812,0 38.870625,3.89015625 38.870625,8.67164063 C38.870625,10.385625 39.3724219,11.9835937 40.2339844,13.3305469 C21.7427344,16.7723438 7.69875,33.0257812 7.69875,52.4997656 L7.69875,79.5836719 C7.69875,82.9980469 6.24375,86.2865625 3.70640625,88.6059375 C1.47726562,90.6435938 0.19875,93.54375 0.19875,96.5627344 C0.19875,102.507188 5.03507812,107.343516 10.9795312,107.343516 L32.7267188,107.343516 C33.8554688,114.505078 40.06875,119.999766 47.5425,119.999766 C55.01625,119.999766 61.2295312,114.505078 62.3582813,107.343516 L84.1054688,107.343516 C90.0499219,107.343516 94.88625,102.507188 94.88625,96.5627344 C94.88625,93.54375 93.6077344,90.6435937 91.3783594,88.6059375 Z M77.6132812,17.3435156 C84.5920312,17.3435156 90.2695312,23.02125 90.2695312,29.9997656 C90.2695312,36.9782812 84.5920312,42.6560156 77.6132812,42.6560156 C70.6345312,42.6560156 64.9570312,36.9782812 64.9570312,29.9997656 C64.9570312,23.02125 70.6345312,17.3435156 77.6132812,17.3435156 Z M47.5425,4.68726563 C49.7395313,4.68726563 51.526875,6.47460938 51.526875,8.67140625 C51.526875,10.8684375 49.7395313,12.6557813 47.5425,12.6557813 C45.3454688,12.6557813 43.558125,10.8684375 43.558125,8.67140625 C43.558125,6.47460938 45.3454688,4.68726563 47.5425,4.68726563 Z M47.5425,115.312266 C42.6625781,115.312266 38.5664063,111.903984 37.501875,107.343516 L57.583125,107.343516 C56.5185938,111.903984 52.4224219,115.312266 47.5425,115.312266 Z" id="Shape" fill="#218A3D"></path>
                <path d="M21.2925,50.1072656 C19.9980469,50.1072656 18.94875,51.1567969 18.94875,52.4510156 L18.94875,52.4997656 C18.94875,53.7939844 19.9980469,54.8435156 21.2925,54.8435156 C22.5869531,54.8435156 23.63625,53.7939844 23.63625,52.4997656 L23.63625,52.4510156 C23.63625,51.1567969 22.5869531,50.1072656 21.2925,50.1072656 Z" id="Path" fill="#35000B"></path>
                <path d="M47.5425,23.9060156 C36.0414844,23.9060156 25.7057813,30.7469531 21.2114063,41.3346094 C20.705625,42.5259375 21.2615625,43.9019531 22.4528906,44.4077344 C22.7517188,44.5345313 23.0622656,44.5947656 23.3676562,44.5947656 C24.2798437,44.5947656 25.1472656,44.05875 25.52625,43.16625 C29.2842188,34.3136719 37.9260937,28.5935156 47.5425,28.5935156 C48.8369531,28.5935156 49.88625,27.5439844 49.88625,26.2497656 C49.88625,24.9555469 48.8369531,23.9060156 47.5425,23.9060156 Z" id="Path" fill="#35000B"></path>
                <path d="M78.4394531,22.4046094 C77.5640625,22.0427344 76.5557813,22.2424219 75.8852344,22.9127344 L73.1899219,25.6080469 C72.2746875,26.5232813 72.2746875,28.0073437 73.1899219,28.9228125 C73.7369531,29.4696094 74.4876562,29.6903906 75.19875,29.5828125 L75.19875,33.8278125 C75.19875,35.1220312 76.2480469,36.1715625 77.5425,36.1715625 C78.8369531,36.1715625 79.88625,35.1220312 79.88625,33.8278125 L79.88625,24.57 C79.88625,23.6219531 79.3150781,22.7674219 78.4394531,22.4046094 Z" id="Path" fill="#35000B"></path>
            </g>
        </g>
    </g>
</svg>