<?xml version="1.0" encoding="UTF-8"?>
<svg width="120px" height="105px" viewBox="0 0 120 105" version="1.1" xmlns="http://www.w3.org/2000/svg" xmlns:xlink="http://www.w3.org/1999/xlink">
    <!-- Generator: Sketch 63.1 (92452) - https://sketch.com -->
    <title>shop</title>
    <desc>Created with Sketch.</desc>
    <defs>
        <polygon id="path-1" points="0 0.0915557293 5.65271739 0.0915557293 5.65271739 3.2626735 0 3.2626735"></polygon>
        <polygon id="path-3" points="0.0052173913 0.177244763 3.79304348 0.177244763 3.79304348 2.94039146 0.0052173913 2.94039146"></polygon>
        <polygon id="path-5" points="0.0190804425 0.164206692 21.5509643 0.164206692 21.5509643 17.6086957 0.0190804425 17.6086957"></polygon>
    </defs>
    <g id="UI" stroke="none" stroke-width="1" fill="none" fill-rule="evenodd">
        <g id="Splash-3" transform="translate(-128.000000, -138.000000)">
            <g id="shop" transform="translate(128.000000, 138.000000)">
                <path d="M119.853061,34.2979592 C119.853061,33.7836735 119.730612,33.2938776 119.461224,32.8530612 L101.632653,1.50612245 C101.118367,0.6 100.138776,0.012244898 99.0857143,0.012244898 L20.7428571,0.012244898 C19.6897959,0.012244898 18.7102041,0.575510204 18.1959184,1.50612245 L0.391836735,32.8530612 C0.146938776,33.2938776 0,33.7836735 0,34.2979592 C0,41.3265306 4.23673469,47.3510204 10.2857143,50.0204082 L10.2857143,101.718367 C10.2857143,103.334694 11.6081633,104.657143 13.2244898,104.657143 L29.4612245,104.657143 C29.4857143,104.657143 29.5102041,104.657143 29.5346939,104.657143 L52.3102041,104.657143 C52.3346939,104.657143 52.3591837,104.657143 52.3836735,104.657143 L106.604082,104.657143 C108.220408,104.657143 109.542857,103.334694 109.542857,101.718367 L109.542857,50.3877551 C109.542857,50.2653061 109.542857,50.1673469 109.518367,50.0693878 C115.591837,47.4 119.853061,41.3510204 119.853061,34.2979592 Z M22.4571429,5.91428571 L97.3714286,5.91428571 L111.306122,30.4285714 L8.54693878,30.4285714 L22.4571429,5.91428571 Z M85.2979592,36.2816327 C84.3673469,41.5714286 79.7387755,45.5877551 74.1795918,45.5877551 C68.6204082,45.5877551 63.9918367,41.5714286 63.0612245,36.2816327 L85.2979592,36.2816327 Z M56.8163265,36.2816327 C55.8857143,41.5714286 51.2571429,45.5877551 45.6979592,45.5877551 C40.1387755,45.5877551 35.5102041,41.5714286 34.555102,36.2816327 L56.8163265,36.2816327 Z M6.07346939,36.2816327 L28.3346939,36.2816327 C27.4040816,41.5714286 22.7510204,45.5877551 17.1918367,45.5877551 C11.6326531,45.6122449 7.00408163,41.5714286 6.07346939,36.2816327 Z M49.3714286,98.7795918 L32.4734694,98.7795918 L32.4734694,67.0653061 C32.4734694,64.7632653 34.3346939,62.877551 36.6612245,62.877551 L45.2081633,62.877551 C47.5102041,62.877551 49.3959184,64.7387755 49.3959184,67.0653061 L49.3959184,98.7795918 L49.3714286,98.7795918 Z M103.665306,98.7795918 L55.2489796,98.7795918 L55.2489796,67.0653061 C55.2489796,61.5306122 50.7428571,57 45.1836735,57 L36.6367347,57 C31.1020408,57 26.5714286,61.5061224 26.5714286,67.0653061 L26.5714286,98.8040816 L16.1632653,98.8040816 L16.1632653,51.4653061 C16.5061224,51.4897959 16.8489796,51.4897959 17.1918367,51.4897959 C23.1183673,51.4897959 28.3591837,48.477551 31.444898,43.8979592 C34.5306122,48.477551 39.7714286,51.4897959 45.6979592,51.4897959 C51.6244898,51.4897959 56.8408163,48.477551 59.9510204,43.8979592 C63.0367347,48.477551 68.277551,51.4897959 74.1795918,51.4897959 C80.1061224,51.4897959 85.322449,48.477551 88.4081633,43.8979592 C91.4938776,48.477551 96.7346939,51.4897959 102.661224,51.4897959 C103.004082,51.4897959 103.322449,51.4653061 103.665306,51.4653061 L103.665306,98.7795918 L103.665306,98.7795918 Z M102.661224,45.6122449 C97.1020408,45.6122449 92.4734694,41.5959184 91.5428571,36.3061224 L113.804082,36.3061224 C112.84898,41.5714286 108.220408,45.6122449 102.661224,45.6122449 Z" id="Shape" fill="#198B39" fill-rule="nonzero"></path>
                <g id="Group-26" transform="translate(64.000000, 62.000000)">
                    <g id="Group-3" transform="translate(0.000000, 10.321957)">
                        <mask id="mask-2" fill="white">
                            <use xlink:href="#path-1"></use>
                        </mask>
                        <g id="Clip-2"></g>
                        <path d="M5.65271739,2.85308696 C5.65271739,2.85308696 4.62597826,-0.848869565 -0.000108695652,0.319608696 C-0.000108695652,0.319608696 0.964891304,4.57308696 5.65271739,2.85308696" id="Fill-1" fill="#401F1F" mask="url(#mask-2)"></path>
                    </g>
                    <path d="M5.6941087,13.4018913 C5.6941087,13.4018913 3.3441087,13.6327609 3.5741087,16.5590652 C3.5741087,16.5590652 6.25215217,16.4227609 5.6941087,13.4018913" id="Fill-4" fill="#401F1F"></path>
                    <path d="M5.75928261,13.2767391 C5.75928261,13.2767391 6.61667391,13.956087 7.47167391,12.8995652 C7.47167391,12.8995652 6.5345,12.0841304 5.75928261,13.2767391" id="Fill-6" fill="#401F1F"></path>
                    <g id="Group-10" transform="translate(26.086957, 20.321957)">
                        <mask id="mask-4" fill="white">
                            <use xlink:href="#path-3"></use>
                        </mask>
                        <g id="Clip-9"></g>
                        <path d="M0.0052173913,2.87071739 C0.0052173913,2.87071739 0.221521739,-0.000369565217 3.79326087,0.185934783 C3.79326087,0.185934783 3.7023913,3.45376087 0.0052173913,2.87071739" id="Fill-8" fill="#401F1F" mask="url(#mask-4)"></path>
                    </g>
                    <path d="M26.0945,23.3656957 C26.0945,23.3656957 27.8560217,23.1937391 28.1125435,25.3787391 C28.1125435,25.3787391 26.1236304,25.668087 26.0945,23.3656957" id="Fill-11" fill="#401F1F"></path>
                    <path d="M26.0284783,23.2832174 C26.0284783,23.2832174 25.4965217,23.9071304 24.7143478,23.2549565 C24.7143478,23.2549565 25.2847826,22.5188696 26.0284783,23.2832174" id="Fill-13" fill="#401F1F"></path>
                    <path d="M18.176913,12.7238043 C18.3116957,12.7855435 18.2214783,13.0425 18.0997391,13.3522826 C18.0025652,13.5990217 17.808,13.6268478 17.6999565,13.6218478 C17.713,13.5403261 17.7310435,13.4638043 17.7532174,13.3946739 C17.8575652,13.0218478 18.0343043,12.8261957 18.176913,12.7238043 M16.4136522,13.9748913 C16.4114783,13.9827174 16.411913,13.9883696 16.4101739,13.9959783 C16.329087,14.0555435 16.218,14.1168478 16.1810435,14.1159874 C16.1147391,14.1148913 16.0823478,14.036413 16.0977826,13.8653261 C16.1132174,13.6938043 16.2066957,13.4418478 16.2277826,13.3831522 C16.3225652,13.1255435 16.4823478,12.9568478 16.4823478,12.9568478 C16.5771304,12.8316304 16.6995217,12.8438043 16.7393043,12.8516304 C16.6012609,13.313587 16.4693043,13.7633696 16.4136522,13.9748913 M19.074087,14.1568478 C18.9747391,14.1307609 19.0334348,13.9498913 19.0899565,13.7401087 L19.7793043,11.4398913 L19.3199565,11.4398913 C19.3199565,11.4398913 18.8560435,12.9570652 18.6449565,13.696413 C18.1701739,14.3253261 17.7034348,14.3683696 17.6812609,13.9675 C17.6775652,13.9011957 17.6788696,13.8390217 17.6825652,13.7788043 C17.781913,13.7953261 17.9249565,13.7911957 18.1112609,13.711413 C18.498,13.5457609 18.6910435,13.0068478 18.5925652,12.7725 C18.5488696,12.6681522 18.4736522,12.628587 18.4014783,12.6157609 L18.401913,12.6155435 C18.401913,12.6155435 18.3997391,12.6153261 18.3993043,12.6153261 C18.3699565,12.6103261 18.3412609,12.6088043 18.3153913,12.6105435 C18.2175652,12.6083696 18.0553913,12.6153261 17.9275652,12.676413 C17.7195217,12.7633696 17.3925652,12.9692391 17.263,13.4309783 C17.2156087,13.5792391 17.1986522,13.7561957 17.2071304,13.9644565 C17.1527826,14.0357609 17.0199565,14.1920652 16.9175652,14.1651087 C16.8184348,14.1392391 16.8771304,13.9583696 16.9334348,13.7483696 L17.6227826,11.4481522 L17.1636522,11.4481522 C17.1636522,11.4481522 16.9927826,12.0070652 16.8112609,12.611413 C16.7258261,12.6216304 16.6334348,12.6446739 16.524087,12.686413 C16.2671304,12.7844565 16.0373478,13.0581522 16.0373478,13.0581522 C15.7208261,13.4755435 15.6373478,14.0418478 15.6373478,14.0418478 C15.6027826,14.3144565 15.6532174,14.4311957 15.749087,14.4757609 C15.8388696,14.5170652 16.0314783,14.4731522 16.123,14.4268478 C16.2271304,14.3746739 16.324087,14.2953261 16.3914783,14.2333696 C16.424087,14.5270652 16.7049565,14.5688043 16.9175652,14.4007609 C17.0697391,14.2801087 17.1623478,14.1438043 17.2147391,14.048587 C17.2825652,14.4922826 17.9662609,14.8031522 18.5847391,13.9125 C18.5799565,13.9303261 18.574087,13.9509783 18.5701739,13.966413 C18.4314783,14.4929348 18.8088696,14.6018478 19.074087,14.3922826 C19.3388696,14.1829348 19.4271304,13.921413 19.4271304,13.921413 L19.389087,13.921413 C19.389087,13.921413 19.2053913,14.191413 19.074087,14.1568478" id="Fill-15" fill="#401F1F"></path>
                    <polygon id="Fill-17" fill="#401F1F" points="24.4587609 14.8257609 24.539413 15.0625 27.4531087 14.2872826 27.4531087 13.1398913"></polygon>
                    <g id="Group-21" transform="translate(5.000000, 11.191522)">
                        <mask id="mask-6" fill="white">
                            <use xlink:href="#path-5"></use>
                        </mask>
                        <g id="Clip-20"></g>
                        <path d="M19.5177826,5.50073913 C19.5764783,5.43443478 19.6345217,5.37552174 19.6923478,5.32030435 C19.8484348,5.234 19.9610435,5.1916087 20.0127826,5.19813043 C20.4914783,5.25834783 20.1049565,6.33356522 19.7036522,7.29030435 C19.4443043,7.90878261 18.9382174,8.33269565 18.5260435,8.34421739 C18.4458261,8.3463913 18.3697391,8.32726087 18.2995217,8.29834783 C18.3538696,8.02530435 18.4264783,7.7713913 18.5023478,7.53269565 C18.7606087,6.6013913 19.1482174,5.91834783 19.5177826,5.50073913 M10.164087,9.50204348 C9.89930435,9.93291304 9.4956087,10.1276957 9.33843478,10.1068261 C9.12647826,10.0792174 8.99495652,9.85073913 9.05626087,9.24008696 C9.11713043,8.62943478 9.48430435,7.73226087 9.56886957,7.52247826 C9.94278261,6.604 10.4895217,5.93291304 10.4895217,5.93291304 C10.9386522,5.39443478 11.3375652,5.62052174 11.3375652,5.62052174 C11.3373478,5.62095652 10.261913,9.11465217 10.164087,9.50204348 M19.7658261,8.61552174 C21.121913,7.98204348 21.8577826,6.28356522 21.4288696,5.29965217 C21.2114783,4.80117391 20.8034348,4.70617391 20.493,4.71595652 C20.4058261,4.71226087 20.3012609,4.71052174 20.183,4.71486957 C20.0114783,4.72073913 19.651913,4.74813043 19.2166957,4.9013913 C18.8053913,5.0463913 17.8710435,5.59943478 17.3366957,6.45530435 C17.3116957,6.49530435 17.2816957,6.54052174 17.2484348,6.59117391 C16.824087,6.09052174 16.9416957,5.16813043 16.9416957,5.16813043 L15.5034348,6.15747826 L15.9627826,4.614 C15.9627826,4.614 16.5997391,2.23117391 16.7938696,1.88030435 C16.9875652,1.52921739 17.3203913,0.790304348 18.1793043,0.790304348 C18.8366957,0.790304348 19.1477826,1.30486957 18.9421304,1.74878261 C18.7058261,2.259 18.3358261,2.11486957 18.2534348,1.88030435 C18.1423478,1.56617391 18.3695217,1.36073913 18.3695217,1.36073913 C18.3695217,1.36073913 17.7188696,1.15465217 17.3584348,1.81052174 C16.9982174,2.46617391 17.2827826,3.19095652 18.1510435,3.17247826 C18.1510435,3.17247826 19.1953913,3.21943478 19.6295217,2.09269565 C19.6295217,2.09269565 19.9745217,1.38856522 19.5371304,0.738347826 C19.4684348,0.636391304 19.2599565,0.190086957 18.1243043,0.166173913 C17.4447391,0.141173913 16.5634348,0.345956522 15.7688696,1.27073913 C15.7688696,1.27073913 15.0666957,1.89878261 14.5403913,3.91204348 L13.3675652,7.8466087 L12.7851739,9.76834783 C12.6347391,9.95465217 12.449087,10.1042174 12.2762609,10.1824783 C12.1547391,10.2374783 11.9027826,10.2955217 11.7682174,10.097913 C11.7010435,9.97052174 11.7258261,9.84030435 11.7566957,9.70291304 C11.8221304,9.414 11.9401739,9.02856522 11.9401739,9.02856522 L13.1949565,4.87226087 L13.1947391,4.87226087 L13.1947391,4.87204348 C12.528,4.56378261 11.8234348,4.59269565 10.8114783,4.94204348 C9.79952174,5.29182609 8.91473913,6.28943478 8.91473913,6.28943478 C7.85256522,7.55595652 7.45713043,9.20334783 7.36321739,9.66552174 L7.36256522,9.66617391 C6.46756522,10.7453043 5.57278261,11.4924783 4.5953913,11.8255217 C4.28691304,11.9305217 3.31734783,12.2496522 2.72213043,11.6116087 C2.43256522,11.3268261 2.27821739,10.9961739 2.27821739,10.9961739 C2.27821739,10.9961739 1.89017391,10.2411739 1.88365217,9.21595652 C1.87669565,8.19073913 2.40995652,6.98530435 2.40995652,6.98530435 C2.7153913,6.21465217 3.03756522,5.57334783 3.34473913,5.04856522 C3.87886957,4.1416087 4.41647826,3.51421739 4.85126087,3.09573913 C5.71386957,2.33769565 6.30495652,2.13595652 6.55930435,2.09334783 C7.34647826,1.96117391 7.87756522,2.37334783 7.88213043,2.84313043 C7.88908696,3.60508696 7.04386957,4.08986957 6.61452174,4.2563913 C6.18473913,4.42247826 5.58213043,4.24247826 5.58213043,4.24247826 C5.58213043,4.24247826 5.67495652,4.61552174 5.96321739,4.96617391 C6.72691304,5.86291304 8.16604348,5.50291304 8.45386957,5.39921739 C9.82495652,4.90443478 10.3262609,3.38443478 9.80908696,2.2866087 C9.18321739,0.957913043 7.43778261,0.96573913 6.43343478,1.23595652 C4.04669565,1.8616087 2.21604348,4.28726087 1.62169565,5.2063913 C1.02647826,6.12552174 -0.812,9.35465217 0.455173913,11.5868261 C1.72213043,13.8192174 4.69626087,12.4518261 4.69626087,12.4518261 C6.0206087,11.8646522 7.02734783,10.7905217 7.30952174,10.4696522 C7.34865217,10.9872609 7.5556087,11.2644348 7.83213043,11.3796522 C8.18647826,11.5272609 8.65213043,11.4135652 9.01386957,11.249 C9.52321739,11.0172609 9.88821739,10.6822609 10.0695217,10.4918261 C10.0723478,10.6183478 10.0821304,10.7444348 10.1034348,10.8616087 C10.2966957,11.475087 10.9434348,11.4448696 10.9434348,11.4448696 C11.4749565,11.4659565 12.0162609,11.1098696 12.1934348,10.9583478 C12.314087,10.8553043 12.4256087,10.7387826 12.5271304,10.6196522 L11.7327826,13.240087 L11.5634348,13.817913 C11.5634348,13.817913 11.0310435,15.900087 10.4673478,16.7774783 C10.3288696,17.0174783 9.978,17.2668261 9.56234783,16.9435652 C9.22582609,16.6820435 9.45234783,15.832913 10.0116957,15.8476957 C10.1432174,15.8511739 10.3164783,15.9131304 10.4816957,16.0309565 C10.4816957,16.0309565 11.0771304,14.810087 9.5253913,14.6809565 C9.5253913,14.6809565 8.41713043,14.5607391 8.13995652,15.8722609 C7.863,17.1837826 9.34082609,17.6176957 9.8853913,17.6087059 C10.4306087,17.5994348 11.4464783,17.4237826 12.1762609,16.2787826 C12.9056087,15.1333478 13.2184348,13.8333478 13.2184348,13.8333478 L15.2543043,6.99443478 C15.3101739,7.26704348 15.4266957,7.56921739 15.6671304,7.77247826 C15.9877826,8.01313043 16.3321304,8.02421739 16.6608261,7.90704348 C16.601913,8.13313043 16.5508261,8.38943478 16.5143043,8.68465217 C16.4886522,9.00356522 16.486913,9.34834783 16.5073478,9.72226087 C16.5412609,10.3394348 16.9056087,10.9085652 17.4660435,11.2159565 C17.7864783,11.3916087 18.1956087,11.4403043 18.6188696,11.4046522 C19.1225652,11.362913 19.6595217,11.1792174 20.2275652,10.7207391 C20.2725652,10.6844348 20.4138696,10.5953043 20.3666957,10.5155217 C20.3375652,10.4774783 20.1762609,10.5292174 20.1762609,10.5292174 C18.9134348,10.7772609 18.3245217,10.497913 18.2316957,9.55313043 C18.2077826,9.31008696 18.2084348,9.08356522 18.2232174,8.86791304 C18.5523478,8.96182609 19.0471304,8.95117391 19.7658261,8.61552174" id="Fill-19" fill="#401F1F" mask="url(#mask-6)"></path>
                    </g>
                    <path d="M24.9391957,8.60345652 C24.679413,9.02976087 24.2837609,9.22258696 24.1296304,9.20193478 C23.9218043,9.1741087 23.7926739,8.94780435 23.8524565,8.34302174 C23.9126739,7.73823913 24.2728913,6.84932609 24.3559348,6.6415 C24.7228913,5.73171739 25.2587609,5.06671739 25.2587609,5.06671739 C25.699413,4.5338913 26.0900652,4.75671739 26.0909348,4.75715217 C26.0905,4.75845652 25.0335435,8.22584783 24.9391957,8.60345652 M26.6018043,9.4765 C26.5509348,9.4315 26.3613696,9.31063043 26.5024565,8.8015 C26.5663696,8.51541304 26.6824565,8.13345652 26.6824565,8.13345652 L27.9133261,4.01628261 L27.9135435,4.01606522 L27.9133261,4.01606522 L27.9133261,4.01606522 L27.9131087,4.01606522 C27.2585435,3.71084783 26.5676739,3.7391087 25.5748478,4.08541304 C24.5820217,4.43193478 23.7139783,5.41997826 23.7139783,5.41997826 C22.4902826,6.89302174 22.1672391,8.89258696 22.1672391,8.89258696 C22.0333261,9.85454348 22.2802826,10.3062826 22.6520217,10.462587 C22.999413,10.6088913 23.456587,10.4962826 23.8111522,10.3334565 C24.3105,10.1038913 24.6689783,9.77193478 24.8468043,9.58323913 C24.849413,9.70845652 24.8591957,9.83345652 24.8802826,9.94954348 C25.0698478,10.5569348 25.7046304,10.5273696 25.7046304,10.5273696 C26.2261522,10.5480217 26.7568043,10.1951957 26.9307174,10.0451957 C27.4728913,9.57823913 27.4555,9.45345652 27.4555,9.45367391 C27.4555,9.45367391 26.8800652,9.75736957 26.6018043,9.4765" id="Fill-22" fill="#401F1F"></path>
                    <path d="M15.2287609,8.60323913 C14.9691957,9.02976087 14.5733261,9.22258696 14.4189783,9.20193478 C14.2111522,9.1741087 14.0822391,8.94780435 14.1420217,8.34302174 C14.2022391,7.73823913 14.5622391,6.84932609 14.6450652,6.6415 C15.0124565,5.73171739 15.5481087,5.06671739 15.5481087,5.06671739 C15.989413,4.53323913 16.3805,4.75736957 16.3805,4.75736957 C16.3798478,4.75954348 15.3235435,8.22432609 15.2287609,8.60323913 M21.2446304,6.6538913 C20.6609348,6.22867391 20.4348478,5.93215217 20.381587,5.62367391 C20.296587,5.13128261 20.4989783,4.7741087 20.6252826,4.65084783 C20.8202826,4.46128261 21.0850652,4.34758696 21.326587,4.34758696 C21.326587,4.34758696 21.8259348,4.29715217 21.876587,4.75215217 C21.9270217,5.20693478 21.2824565,5.48497826 20.8720217,5.08063043 C20.764413,5.21976087 20.5937609,6.08541304 21.5857174,6.26845652 C21.5857174,6.26845652 22.8239783,6.49584783 22.9568043,5.11215217 C23.0326739,4.02541304 21.7311522,3.85497826 21.7311522,3.85497826 C21.7311522,3.85497826 19.8105,3.53258696 19.1407174,5.00476087 C19.1407174,5.00476087 18.6478913,6.09171739 19.481587,7.07106522 C19.481587,7.07106522 19.7152826,7.3615 19.9872391,7.56997826 C20.2589783,7.77845652 20.7074565,8.05019565 20.7581087,8.90954348 C20.7581087,8.90954348 20.7581087,9.96476087 19.7913696,10.0278043 C18.9826739,10.002587 19.2226739,9.25693478 19.2226739,9.25693478 C19.2226739,9.25693478 19.3805,8.80563043 19.7976739,8.82454348 C20.0187609,8.82454348 20.2526739,9.05476087 20.2526739,9.05476087 C20.2526739,9.05476087 20.5370217,8.34715217 19.8735435,7.87954348 C19.2098478,7.41193478 18.1676739,7.65193478 17.9335435,8.56823913 C17.9209348,8.61845652 17.9122391,8.6688913 17.9052826,8.71976087 C17.7470217,8.97258696 17.5141957,9.17954348 17.301587,9.27671739 C17.1822391,9.33106522 16.9350652,9.38867391 16.8028913,9.19302174 C16.7372391,9.0665 16.7613696,8.93758696 16.7920217,8.8015 C16.8559348,8.51541304 16.9720217,8.13345652 16.9720217,8.13345652 L18.2028913,4.01606522 L18.2026739,4.01606522 C17.5481087,3.71084783 16.8570217,3.7391087 15.864413,4.08541304 C14.8713696,4.43193478 14.0035435,5.41997826 14.0035435,5.41997826 C12.7796304,6.89302174 12.4568043,8.89258696 12.4568043,8.89258696 C12.4555,8.90084783 12.4555,8.90780435 12.454413,8.91606522 C11.6570217,9.81084783 10.8522391,10.4371522 9.9831087,10.7332391 C9.67419565,10.8384565 8.70441304,11.157587 8.10984783,10.5193261 C7.82006522,10.2347609 7.6655,9.9038913 7.6655,9.9038913 C7.6655,9.9038913 7.27767391,9.1488913 7.27071739,8.12367391 C7.26354348,7.09845652 7.79702174,5.89323913 7.79702174,5.89323913 C8.10267391,5.12236957 8.42484783,4.48128261 8.73202174,3.9565 C9.26615217,3.04954348 9.80376087,2.42193478 10.2387609,2.00367391 C11.1011522,1.24541304 11.6920217,1.04367391 11.946587,1.00106522 C12.7335435,0.869108696 13.2652826,1.28106522 13.2691957,1.75106522 C13.2763696,2.51302174 12.4313696,2.99780435 12.001587,3.1641087 C11.5722391,3.33041304 10.969413,3.15019565 10.969413,3.15019565 C10.969413,3.15019565 11.0624565,3.52323913 11.3502826,3.8741087 C12.1141957,4.77063043 13.5533261,4.41084783 13.8411522,4.30693478 C15.2122391,3.81215217 15.7133261,2.29215217 15.1963696,1.19432609 C14.5707174,-0.134152174 12.8248478,-0.126543478 11.8207174,0.143673913 C9.43441304,0.769326087 7.60376087,3.19497826 7.00854348,4.1141087 C6.41397826,5.03323913 4.5755,8.26236957 5.84245652,10.4947609 C7.10897826,12.7269348 10.0837609,11.3595435 10.0837609,11.3595435 C11.1389783,10.8917174 11.9926739,10.1138913 12.439413,9.65432609 C12.4950652,10.1058478 12.6874565,10.3558478 12.941587,10.462587 C13.2889783,10.6088913 13.7459348,10.4962826 14.1005,10.3332391 C14.6002826,10.1038913 14.9585435,9.77193478 15.1363696,9.58323913 C15.1389783,9.70845652 15.1487609,9.83345652 15.1698478,9.94954348 C15.3596304,10.5569348 15.9941957,10.5273696 15.9941957,10.5273696 C16.5155,10.5480217 17.0463696,10.1951957 17.2202826,10.0451957 C17.5168043,9.78976087 17.7600652,9.45128261 17.9196304,9.19671739 C18.056587,9.90128261 18.6991957,10.5221522 19.6270217,10.5269348 C20.8781087,10.5332391 22.1418043,9.85084783 22.116587,8.25867391 C22.116587,8.25867391 22.1291957,7.29823913 21.2446304,6.6538913" id="Fill-24" fill="#401F1F"></path>
                </g>
            </g>
        </g>
    </g>
</svg>