<?xml version="1.0" encoding="UTF-8"?>
<svg width="71px" height="120px" viewBox="0 0 71 120" version="1.1" xmlns="http://www.w3.org/2000/svg" xmlns:xlink="http://www.w3.org/1999/xlink">
    <!-- Generator: Sketch 63.1 (92452) - https://sketch.com -->
    <title>smartphone</title>
    <desc>Created with Sketch.</desc>
    <g id="UI" stroke="none" stroke-width="1" fill="none" fill-rule="evenodd">
        <g id="Registro-1.2" transform="translate(-152.000000, -173.000000)" fill-rule="nonzero">
            <g id="smartphone" transform="translate(152.000000, 173.000000)">
                <path d="M61.2890625,0 L8.7890625,0 C3.94226063,0 0,3.94226063 0,8.7890625 L0,14.7930909 C0,15.7644654 0.786438047,16.5509034 1.7578125,16.5509034 C2.72918695,16.5509034 3.515625,15.7644654 3.515625,14.7930909 L3.515625,8.7890625 C3.515625,5.88134766 5.88134766,3.515625 8.7890625,3.515625 L11.484375,3.515625 L11.484375,8.7890625 C11.484375,11.0504152 13.3245848,12.890625 15.5859375,12.890625 L54.4921875,12.890625 C56.7535402,12.890625 58.59375,11.0504152 58.59375,8.7890625 L58.59375,3.515625 L61.2890625,3.515625 C64.1967773,3.515625 66.5625,5.88134766 66.5625,8.7890625 L66.5625,101.25 L20.057373,101.25 C19.0859986,101.25 18.2995605,102.036438 18.2995605,103.007812 C18.2995605,103.979187 19.0859986,104.765625 20.057373,104.765625 L66.5625,104.765625 L66.5625,111.210938 C66.5625,114.118652 64.1967773,116.484375 61.2890625,116.484375 L8.7890625,116.484375 C5.88134766,116.484375 3.515625,114.118652 3.515625,111.210938 L3.515625,104.765625 L12.5335692,104.765625 C13.5040284,104.765625 14.2913817,103.979187 14.2913817,103.007812 C14.2913817,102.036438 13.5040284,101.25 12.5335692,101.25 L3.515625,101.25 L3.515625,22.3809816 C3.515625,21.4096069 2.72918695,20.6231691 1.7578125,20.6231691 C0.786438047,20.6231691 0,21.4096069 0,22.3809816 L0,111.210938 C0,116.057739 3.94226063,120 8.7890625,120 L61.2890625,120 C66.1358644,120 70.078125,116.057739 70.078125,111.210938 L70.078125,8.7890625 C70.078125,3.94226063 66.1358644,0 61.2890625,0 Z M55.078125,8.7890625 C55.078125,9.11224359 54.8153686,9.375 54.4921875,9.375 L15.5859375,9.375 C15.2627564,9.375 15,9.11224359 15,8.7890625 L15,3.515625 L55.078125,3.515625 L55.078125,8.7890625 Z" id="Shape" fill="#218A3D"></path>
                <path d="M45.9146119,112.265625 C46.8850709,112.265625 47.6724244,111.479187 47.6724244,110.507812 C47.6724244,109.536438 46.8850709,108.75 45.9146119,108.75 L24.1635131,108.75 C23.1921387,108.75 22.4057006,109.536438 22.4057006,110.507812 C22.4057006,111.479187 23.1921387,112.265625 24.1635131,112.265625 L45.9146119,112.265625 Z" id="Path" fill="#35000B"></path>
                <path d="M35.0390625,39.84375 C23.9245605,39.84375 14.8828125,48.885498 14.8828125,60 C14.8828125,71.114502 23.9245605,80.15625 35.0390625,80.15625 C46.1535645,80.15625 55.1953125,71.114502 55.1953125,60 C55.1953125,48.885498 46.1535645,39.84375 35.0390625,39.84375 Z M35.0390625,76.640625 C25.8636473,76.640625 18.3984375,69.1754152 18.3984375,60 C18.3984375,50.8245848 25.8636473,43.359375 35.0390625,43.359375 C44.2144777,43.359375 51.6796875,50.8245848 51.6796875,60 C51.6796875,69.1754152 44.2144777,76.640625 35.0390625,76.640625 Z" id="Shape" fill="#35000B"></path>
                <path d="M53.9089966,77.1368409 C54.6707154,77.7383423 55.7766724,77.6092528 56.3781738,76.8484498 C60.2041627,72.0080566 62.2265625,66.1825561 62.2265625,60 C62.2265625,45.0082397 50.0308228,32.8125 35.0390625,32.8125 C20.0473022,32.8125 7.8515625,45.0082397 7.8515625,60 C7.8515625,74.9917603 20.0473022,87.1875 35.0390625,87.1875 C40.6164551,87.1875 45.975952,85.5111694 50.5389403,82.3388672 C51.3363647,81.7849732 51.5332031,80.689087 50.9793091,79.8925781 C50.4254152,79.0951537 49.3304442,78.8983153 48.5330201,79.4522095 C44.5614623,82.2125245 39.8950195,83.671875 35.0390625,83.671875 C21.9863892,83.671875 11.3671875,73.0526733 11.3671875,60 C11.3671875,46.9473267 21.9863892,36.328125 35.0390625,36.328125 C48.0917358,36.328125 58.7109375,46.9473267 58.7109375,60 C58.7109375,65.3833008 56.9503784,70.4553223 53.6206055,74.6676635 C53.0181886,75.4293823 53.1481934,76.5344238 53.9089966,77.1368409 L53.9089966,77.1368409 Z" id="Path" fill="#35000B"></path>
                <path d="M41.06781,54.5324707 L33.7188722,61.8127441 L28.9370728,57.5866699 C28.210144,56.9439698 27.0986939,57.0126342 26.4559936,57.7404785 C25.8132935,58.4683228 25.8819581,59.5788574 26.6098022,60.2215575 L32.6239013,65.5361939 C32.9571534,65.8309936 33.3728027,65.9765625 33.7875366,65.9765625 C34.2361451,65.9765625 34.6829224,65.8062745 35.0244141,65.4675293 L43.541565,57.0300293 C44.230957,56.3470458 44.2364503,55.2337645 43.5534668,54.5443725 C42.8704833,53.8549805 41.757202,53.8494872 41.06781,54.5324707 Z" id="Path" fill="#218A3D"></path>
            </g>
        </g>
    </g>
</svg>