<?xml version="1.0" encoding="UTF-8"?>
<svg width="374px" height="51px" viewBox="0 0 374 51" version="1.1" xmlns="http://www.w3.org/2000/svg" xmlns:xlink="http://www.w3.org/1999/xlink">
    <!-- Generator: Sketch 63.1 (92452) - https://sketch.com -->
    <title>Group 124</title>
    <desc>Created with Sketch.</desc>
    <defs>
        <polygon id="path-1" points="0 51 372.129982 51 372.129982 0.0755555556 0 0.0755555556"></polygon>
    </defs>
    <g id="UI" stroke="none" stroke-width="1" fill="none" fill-rule="evenodd">
        <g id="Load" transform="translate(0.000000, -616.000000)">
            <g id="Group-124" transform="translate(0.000000, 616.000000)">
                <polygon id="Fill-1" fill="#97B78E" points="24.4975 50.498 24.4975 50.502 24.5025 50.498"></polygon>
                <polygon id="Fill-2" fill="#97B78E" points="1 16.7547848 1.2481542 17 18 17 18 16.9332099 1 0"></polygon>
                <polygon id="Fill-3" fill="#97B78E" points="34 16.7519223 34.1580687 16.9112645 34.2466252 17 51 17 34 0"></polygon>
                <polygon id="Fill-4" fill="#97B78E" points="34.417 16.4195 34.583 16.5845 34.417 16.4155"></polygon>
                <polygon id="Fill-5" fill="#97B78E" points="1 17 1 32.9044118 1.09868681 33 18 33 18 32.9365809 1.2481542 17"></polygon>
                <polygon id="Fill-6" fill="#97B78E" points="1.37 16.6285 1.63 16.6285 1.37 16.3715"></polygon>
                <polygon id="Fill-7" fill="#97B78E" points="18.0643345 33 18 33 18 49.9329313 18.0643345 50 34 50 34 49.7508877 18.0937446 33"></polygon>
                <polygon id="Fill-8" fill="#97B78E" points="17.448 33.4825 17.518 33.5515 17.552 33.5515 17.448 33.4485"></polygon>
                <polygon id="Fill-9" fill="#97B78E" points="17.465 33.5345 17.535 33.5345 17.465 33.4655"></polygon>
                <polygon id="Fill-10" fill="#97B78E" points="34 33 34 49.7499295 34.245673 50 51 50 34.099031 33"></polygon>
                <polygon id="Fill-11" fill="#97B78E" points="34.448 33.552 34.552 33.552 34.448 33.448"></polygon>
                <polygon id="Fill-12" fill="#ECBF79" points="18 16.7547848 18.2362132 17 34 17 34 16.7547848 34 16.7519223 18 0"></polygon>
                <polygon id="Fill-13" fill="#ECBF79" points="18 32.9044173 18.0946691 33 34 33 34 32.9044173 34 32.7628813 18.2362132 17 18.0643382 17 18 17"></polygon>
                <polygon id="Fill-14" fill="#ECBF79" points="17.3715 16.5585 17.4415 16.6285 17.6285 16.6285 17.3715 16.3715"></polygon>
                <polygon id="Fill-15" fill="#ECBF79" points="17.465 17.535 17.535 17.535 17.465 17.465"></polygon>
                <polygon id="Fill-16" fill="#ECBF79" points="34 17 34 32.7628676 34.2456592 33 51 33 34.2475636 17 34.2456592 17"></polygon>
                <polygon id="Fill-17" fill="#ECBF79" points="34.5445 17.5465 34.5465 17.5465 34.4535 17.4535"></polygon>
                <polygon id="Fill-18" fill="#ECBF79" points="34.371 16.6285 34.629 16.6285 34.537 16.5365 34.371 16.3715"></polygon>
                <polygon id="Fill-19" fill="#ECBF79" points="34.371 33.525 34.475 33.629 34.629 33.629 34.371 33.371"></polygon>
                <polygon id="Fill-20" fill="#ECBF79" points="1 33 1 50 18 50 18 49.9329313 1.09963931 33"></polygon>
                <polygon id="Fill-21" fill="#ECBF79" points="0.448 33.552 0.552 33.552 0.448 33.448"></polygon>
                <g id="Group-123" transform="translate(1.000000, 0.000000)">
                    <path d="M150.82255,43.1069 C150.810243,43.1059556 150.798882,43.1059556 150.785629,43.1059556 L150.785629,43.1361778 L150.82255,43.1069 Z" id="Fill-22" fill="#97B78E"></path>
                    <path d="M112.546786,43.0506111 L112.546786,43.01 C112.532585,43.01 112.518385,43.01 112.504184,43.0109444 L112.546786,43.0506111 Z" id="Fill-24" fill="#97B78E"></path>
                    <path d="M146.633968,31.1556167 C145.656027,31.5258389 145.358763,32.0292278 145.408938,32.9746167 C145.490354,34.5065056 145.430712,36.0450056 145.430712,37.7535056 C143.583699,37.7535056 141.899519,37.7922278 140.218179,37.7383944 C139.321654,37.7081722 138.802862,37.9707278 138.465836,38.7886167 C137.300448,41.62195 135.052034,43.2397833 131.831359,43.2502224 C128.609737,43.2605611 126.340496,41.65595 125.169428,38.8282833 C124.801161,37.9395611 124.250181,37.6940056 123.308214,37.73745 C121.956326,37.7988389 120.596864,37.7251722 119.242136,37.7591722 C118.4346,37.77995 118.106095,37.4862278 118.131656,36.7221722 C118.169524,35.5841167 118.05024,34.4385056 118.161951,33.3098944 C118.284075,32.0811722 117.805991,31.49845 116.583801,30.98845 C111.644864,28.9276722 110.750232,23.0768389 114.819151,19.8893389 C115.332263,19.48795 115.920164,19.0865611 116.544986,18.9127833 C117.920542,18.5331167 118.257567,17.7227833 118.161951,16.4742278 C118.05592,15.0830611 118.137336,13.6786722 118.137336,12.1203389 C120.011803,12.1203389 121.695037,12.0806722 123.373537,12.1363944 C124.248288,12.1656722 124.75856,11.9777278 125.115466,11.1315056 C126.315882,8.28495 128.527374,6.61611667 131.869227,6.64728333 C135.138184,6.67656111 137.313702,8.31233889 138.472463,11.1277278 C138.820849,11.9711167 139.356681,12.1666167 140.23522,12.1363944 C141.876798,12.0806722 143.521217,12.1203389 145.431659,12.1203389 C145.431659,13.7523389 145.483727,15.32295 145.411778,16.8897833 C145.369176,17.8285611 145.641826,18.3461167 146.641542,18.7210611 C149.558326,19.8147278 151.25292,21.8490611 151.279733,24.8722278 C151.305935,27.9558389 149.607555,30.0288944 146.633968,31.1556167 M151.839874,15.4957833 C151.365577,15.1416167 150.995418,14.4077833 150.962283,13.8307278 C150.835425,11.6122278 150.847732,9.38522778 150.816491,7.16200556 L150.786197,7.16200556 L150.786197,6.91739444 C148.391991,6.93628333 145.995892,7.00711667 143.605473,6.93156111 C143.000532,6.91172778 142.222344,6.55095 141.845557,6.10706111 C136.562968,-0.136661111 126.997506,-0.126272222 121.732905,6.12783889 C121.361798,6.56889444 120.579824,6.90606111 119.971095,6.93345 C117.497367,7.04395 115.016065,7.01939444 112.537603,7.04300556 L112.537603,7.16200556 L112.467547,7.16200556 C112.520562,9.59772778 112.600085,12.0325056 112.584938,14.4672833 C112.582098,14.81295 112.149456,15.2332278 111.80675,15.4891722 C105.055829,20.5400611 105.060562,29.3602278 111.810537,34.3997833 C112.177857,34.6736722 112.582098,35.1657278 112.589671,35.5623944 C112.635113,38.04345 112.573577,40.5273389 112.54707,43.0102833 C115.194991,42.9838389 117.842912,42.9271722 120.48894,42.9687278 C120.914956,42.9762833 121.443214,43.3512278 121.738585,43.69595 C127.19158,50.0530056 136.364161,50.04545 141.898572,43.6695056 C142.154181,43.3748389 142.543275,42.9781722 142.870834,42.9772278 C145.509288,42.97345 148.147742,43.0518389 150.786197,43.1056722 C150.831638,40.7521167 150.823118,38.3966722 150.961336,36.0487833 C150.994471,35.4726722 151.358004,34.7416722 151.829461,34.38845 C158.513166,29.3781722 158.5179,20.4833944 151.839874,15.4957833" id="Fill-26" fill="#97B78E"></path>
                    <path d="M124.11291,19.7383222 C124.2019,19.7184889 124.275742,19.6750444 124.344852,19.6231 C124.369466,19.6249889 124.395027,19.6212111 124.421534,19.6023222 C124.889204,19.2878222 125.367288,18.9657667 125.723247,18.5237667 C125.830225,18.3906 125.915428,18.2517667 125.985484,18.1072667 L125.985484,14.5174333 L120.518288,14.5174333 L120.518288,19.9716 L123.607372,19.9716 C123.755057,19.8903778 123.906529,19.8129333 124.064628,19.7383222 C124.079775,19.7402111 124.094923,19.7421 124.11291,19.7383222" id="Fill-28" fill="#97B78E"></path>
                    <path d="M137.499823,17.9527556 C137.568932,18.1189778 137.651295,18.1860333 137.792354,18.3088111 C138.081097,18.5600333 138.371734,18.7989778 138.650064,19.0634222 C138.857392,19.2598667 139.062826,19.4374222 139.329795,19.5479222 C139.37145,19.5649222 139.413105,19.5772 139.455706,19.5904222 C139.688595,19.7122556 139.910123,19.8397556 140.125024,19.9719778 L142.963232,19.9719778 L142.963232,14.5168667 L137.49509,14.5168667 L137.49509,17.9282 L137.49509,17.9291444 C137.496983,17.9367 137.496036,17.9442556 137.499823,17.9527556" id="Fill-30" fill="#97B78E"></path>
                    <path d="M124.317681,30.1719778 C124.291174,30.1549778 124.266559,30.1521444 124.241945,30.1530889 C124.130235,30.0954778 124.027991,30.0331444 123.921014,29.9717556 L120.517625,29.9717556 L120.517625,35.4259222 L125.985768,35.4259222 L125.985768,31.4904222 C125.908138,31.3978667 125.826722,31.3081444 125.740572,31.2231444 C125.31929,30.8075889 124.819432,30.4817556 124.317681,30.1719778" id="Fill-32" fill="#97B78E"></path>
                    <path d="M139.393697,30.1041667 C138.960109,30.2543333 138.589949,30.5839444 138.244403,30.8776667 C137.98406,31.1015 137.808921,31.3272222 137.662182,31.5878889 C137.630941,31.6171667 137.601593,31.6473889 137.568459,31.6738333 C137.523964,31.7097222 137.51639,31.7531667 137.529644,31.7928333 C137.518284,31.8136111 137.505977,31.8315556 137.494616,31.8523333 L137.494616,35.4270556 L142.962758,35.4270556 L142.962758,29.9719444 L139.671081,29.9719444 C139.584931,30.0153889 139.498781,30.0597778 139.409791,30.1013333 C139.404111,30.1032222 139.399378,30.1022778 139.393697,30.1041667" id="Fill-34" fill="#97B78E"></path>
                    <path d="M120.276595,24.9457056 L120.277542,24.94665 C120.340024,24.5962611 120.416707,24.2638167 120.50759,23.9464833 L118.740101,22.18415 L116.184956,24.7332056 L118.740101,27.28415 L120.31257,25.7154278 C120.296476,25.6672611 120.275649,25.6228722 120.259555,25.5728167 C120.264288,25.36315 120.270915,25.1553722 120.276595,24.9457056" id="Fill-36" fill="#97B78E"></path>
                    <path d="M143.160619,23.9187167 C143.20606,24.13405 143.244875,24.3522167 143.268543,24.5826611 C143.271383,24.83105 143.27801,25.0794389 143.281796,25.3259389 C143.262862,25.4213278 143.241088,25.5138833 143.219314,25.6064389 L144.899708,27.2837722 L147.455799,24.7328278 L144.899708,22.1837722 L143.160619,23.9187167 Z" id="Fill-38" fill="#97B78E"></path>
                    <path d="M132.041053,35.5227278 C131.85834,35.5567278 131.67184,35.5746722 131.48534,35.5841167 C131.372683,35.5406722 131.264759,35.5000611 131.155888,35.4585056 L129.210419,37.3993389 L131.765563,39.9493389 L134.322602,37.3993389 L132.290982,35.3735056 C132.174538,35.3905056 132.059041,35.40845 131.937863,35.4226167 C131.972891,35.4575611 132.006025,35.4887278 132.041053,35.5227278" id="Fill-40" fill="#97B78E"></path>
                    <path d="M132.30452,14.3243889 L134.321939,12.3108333 L131.765847,9.76177778 L129.209756,12.3108333 L131.284924,14.382 C131.451543,14.3612222 131.622896,14.3442222 131.798982,14.3338333 C131.967495,14.3385556 132.136954,14.3357222 132.30452,14.3243889" id="Fill-42" fill="#97B78E"></path>
                    <mask id="mask-2" fill="white">
                        <use xlink:href="#path-1"></use>
                    </mask>
                    <g id="Clip-45"></g>
                    <path d="M126.757518,29.9502222 L136.784023,29.9502222 L136.784023,19.9476111 L126.757518,19.9476111 L126.757518,29.9502222 Z M143.160051,23.919 C142.785157,22.168 141.695505,20.9326667 140.124929,19.9712222 L137.494995,19.9712222 L137.494995,17.9274444 C136.453624,15.9006667 134.787431,14.7229444 132.454761,14.314 C132.404586,14.3196667 132.355358,14.3206111 132.304236,14.3243889 L131.765563,14.8608333 L131.28464,14.3810556 C128.752216,14.688 127.300924,16.0177778 126.121335,17.7810556 C126.084414,17.8925 126.038025,18.0011111 125.985957,18.1078333 L125.985957,19.9712222 L123.607845,19.9712222 C121.996561,20.8542778 121.020513,22.1406111 120.507401,23.9463889 L121.296003,24.7331111 L120.312381,25.7153333 C120.968444,27.6438889 122.139513,28.9717778 123.921203,29.9719444 L125.985957,29.9719444 L125.985957,31.4896667 C126.237779,31.7871667 126.453627,32.1177222 126.660008,32.4492222 C127.27631,33.1613333 127.799835,33.8233889 128.481459,34.2852222 C129.206632,34.7782222 130.104104,35.0615556 131.155888,35.4582222 L131.765563,34.8490556 L132.290982,35.3732222 C134.813939,34.9992222 136.399662,33.7780556 137.494995,31.8513889 L137.494995,29.9719444 L139.670513,29.9719444 C141.619769,28.9878333 142.76717,27.5503889 143.218746,25.6067222 L142.343995,24.7331111 L143.160051,23.919 Z" id="Fill-44" fill="#97B78E" mask="url(#mask-2)"></path>
                    <path d="M125.985484,18.1077389 C125.915428,18.2512944 125.830225,18.3910722 125.723247,18.5232944 C125.367288,18.9652944 124.889204,19.2882944 124.421534,19.6027944 C124.395027,19.6216833 124.369466,19.6245167 124.344852,19.6226278 C124.275742,19.6745722 124.2019,19.7189611 124.11291,19.7387944 C124.094923,19.7416278 124.079775,19.7406833 124.064628,19.7387944 C123.906529,19.8134056 123.755057,19.89085 123.607372,19.9720722 L125.985484,19.9720722 L125.985484,18.1077389 Z" id="Fill-46" fill="#97B78E" mask="url(#mask-2)"></path>
                    <path d="M140.125402,19.9716944 C139.910501,19.8394722 139.688027,19.7129167 139.455138,19.5910833 C139.413484,19.5769167 139.370882,19.5646389 139.330174,19.5485833 C139.063204,19.4380833 138.85777,19.2595833 138.650443,19.0631389 C138.371166,18.7996389 138.080529,18.55975 137.791786,18.3085278 C137.650727,18.18575 137.569311,18.1186944 137.500202,17.9524722 C137.496415,17.9449167 137.497362,17.9373611 137.495468,17.9288611 C137.495468,17.9288611 137.494522,17.9288611 137.494522,17.9279167 L137.494522,19.9716944 L140.125402,19.9716944 Z" id="Fill-47" fill="#97B78E" mask="url(#mask-2)"></path>
                    <path d="M123.921014,29.9723222 C124.027991,30.0318222 124.130235,30.0960444 124.241945,30.1536556 C124.266559,30.1517667 124.291174,30.1555444 124.317681,30.1725444 C124.819432,30.4823222 125.31929,30.8081556 125.740572,31.2237111 C125.826722,31.3087111 125.908138,31.3984333 125.985768,31.4900444 L125.985768,29.9723222 L123.921014,29.9723222 Z" id="Fill-48" fill="#97B78E" mask="url(#mask-2)"></path>
                    <path d="M137.494711,31.8519556 C137.506071,31.8321222 137.517432,31.8132333 137.529739,31.7934 C137.516485,31.7537333 137.524059,31.7102889 137.568554,31.6744 C137.601688,31.6470111 137.631036,31.6167889 137.662277,31.5884556 C137.809015,31.3268444 137.984155,31.1011222 138.244498,30.8782333 C138.590043,30.5835667 138.959257,30.2549 139.393792,30.1037889 C139.399472,30.1019 139.404206,30.1028444 139.409886,30.1009556 C139.498876,30.0603444 139.585026,30.0159556 139.671175,29.9725111 L137.494711,29.9725111 L137.494711,31.8519556 Z" id="Fill-49" fill="#97B78E" mask="url(#mask-2)"></path>
                    <path d="M120.507306,23.9463889 C120.41737,24.2637222 120.33974,24.5952222 120.277258,24.9465556 C120.277258,24.9456111 120.276311,24.9456111 120.276311,24.9456111 C120.270631,25.1543333 120.264004,25.3630556 120.259271,25.5727222 C120.275365,25.6218333 120.296192,25.6662222 120.312286,25.7153333 L121.295908,24.7331111 L120.507306,23.9463889 Z" id="Fill-50" fill="#97B78E" mask="url(#mask-2)"></path>
                    <path d="M143.268827,24.5832278 C143.245159,24.3527833 143.206344,24.1327278 143.160903,23.9192833 L142.3439,24.7333944 L143.219598,25.6070056 C143.241372,25.51445 143.263146,25.4218944 143.28208,25.3265056 C143.277347,25.0781167 143.271667,24.8316167 143.268827,24.5832278" id="Fill-51" fill="#97B78E" mask="url(#mask-2)"></path>
                    <path d="M131.155794,35.4582222 C131.264664,35.4997778 131.372588,35.5403889 131.485245,35.5847778 C131.671745,35.5743889 131.858245,35.5564444 132.040959,35.5224444 C132.005931,35.4884444 131.972796,35.4572778 131.937768,35.4223333 C132.058946,35.4081667 132.174443,35.3911667 132.290888,35.3732222 L131.766415,34.8490556 L131.155794,35.4582222 Z" id="Fill-52" fill="#97B78E" mask="url(#mask-2)"></path>
                    <path d="M132.30452,14.3243889 C132.136954,14.3357222 131.967495,14.3385556 131.798982,14.3338333 C131.622896,14.3442222 131.451543,14.3612222 131.284924,14.382 L131.765847,14.8608333 L132.30452,14.3243889 Z" id="Fill-53" fill="#97B78E" mask="url(#mask-2)"></path>
                    <path d="M112.425229,7.04281667 L112.464044,7.00126111 C112.464991,7.01542778 112.464991,7.02865 112.464991,7.04281667 L112.537887,7.04281667 L112.537887,0.12665 L106.513085,0.12665 L106.513085,7.16181667 L112.467831,7.16181667 L112.464991,7.04281667 L112.425229,7.04281667 Z" id="Fill-54" fill="#ECBF79" mask="url(#mask-2)"></path>
                    <polygon id="Fill-55" fill="#ECBF79" mask="url(#mask-2)" points="112.537508 7.04281667 112.464612 7.04281667 112.467452 7.16181667 112.537508 7.16181667"></polygon>
                    <path d="M112.425229,7.04281667 L112.464991,7.04281667 C112.464991,7.02865 112.464991,7.01542778 112.464044,7.00126111 L112.425229,7.04281667 Z" id="Fill-56" fill="#ECBF79" mask="url(#mask-2)"></path>
                    <polygon id="Fill-57" fill="#ECBF79" mask="url(#mask-2)" points="106.513274 50.3436111 112.537129 50.3436111 112.537129 43.3084444 106.513274 43.3084444"></polygon>
                    <polygon id="Fill-58" fill="#ECBF79" mask="url(#mask-2)" points="150.785723 50.2680556 156.809579 50.2680556 156.809579 43.2319444 150.785723 43.2319444"></polygon>
                    <path d="M150.813272,6.87772778 L150.862501,6.91645 C150.846407,6.91739444 150.830313,6.91739444 150.813272,6.91739444 C150.815166,6.99861667 150.815166,7.08078333 150.817059,7.16200556 L156.809673,7.16200556 L156.809673,0.126838889 L150.785818,0.126838889 L150.785818,6.91739444 L150.813272,6.91739444 L150.813272,6.87772778" id="Fill-59" fill="#ECBF79" mask="url(#mask-2)"></path>
                    <path d="M150.813272,6.87772778 L150.813272,6.91739444 C150.830313,6.91739444 150.846407,6.91739444 150.862501,6.91645 L150.813272,6.87772778 Z" id="Fill-60" fill="#ECBF79" mask="url(#mask-2)"></path>
                    <path d="M150.816964,7.16172222 C150.816018,7.0805 150.815071,6.99833333 150.814124,6.91711111 L150.785723,6.91711111 L150.785723,7.16172222 L150.816964,7.16172222 Z" id="Fill-61" fill="#ECBF79" mask="url(#mask-2)"></path>
                    <polygon id="Fill-62" fill="#ECBF79" mask="url(#mask-2)" points="67.7810109 3.97516667 67.7810109 8.7635 67.7810109 15.2301111 61.2232165 15.2301111 56.4224982 15.2301111 53.0938992 15.2301111 53.0938992 20.0184444 56.4224982 20.0184444 61.2232165 20.0184444 72.5807825 20.0184444 72.5807825 8.7635 72.5807825 3.97516667 72.5807825 0.0755555556 67.7810109 0.0755555556"></polygon>
                    <polygon id="Fill-63" fill="#ECBF79" mask="url(#mask-2)" points="99.1635647 20.0187278 103.335674 20.0187278 103.335674 15.2303944 99.1635647 15.2303944 94.3637931 15.2303944 86.8384708 15.2303944 86.8384708 8.76378333 86.8384708 3.97545 86.8384708 0.0758388889 82.0386992 0.0758388889 82.0386992 3.97545 82.0386992 8.76378333 82.0386992 20.0187278 94.3637931 20.0187278"></polygon>
                    <polygon id="Fill-64" fill="#ECBF79" mask="url(#mask-2)" points="99.1635647 29.7343222 94.3637931 29.7343222 82.0386992 29.7343222 82.0386992 41.8260444 82.0386992 46.6134333 82.0386992 50.2098778 86.8384708 50.2098778 86.8384708 46.6134333 86.8384708 41.8260444 86.8384708 34.5226556 94.3637931 34.5226556 99.1635647 34.5226556 103.393423 34.5226556 103.393423 29.7343222"></polygon>
                    <polygon id="Fill-65" fill="#ECBF79" mask="url(#mask-2)" points="56.4228769 29.7343222 53.0942779 29.7343222 53.0942779 34.5226556 56.4228769 34.5226556 61.2226485 34.5226556 67.7813896 34.5226556 67.7813896 41.8260444 67.7813896 46.6134333 67.7813896 50.2098778 72.5811612 50.2098778 72.5811612 46.6134333 72.5811612 41.8260444 72.5811612 29.7343222 61.2226485 29.7343222"></polygon>
                    <polygon id="Fill-66" fill="#97B78E" mask="url(#mask-2)" points="86.8388495 3.97516667 86.8388495 8.7635 94.3632251 8.7635 94.3632251 20.0184444 94.3632251 20.4472222 94.3632251 29.7339444 99.1639434 29.7339444 99.1639434 20.4472222 99.1639434 20.0184444 99.1639434 3.97516667"></polygon>
                    <polygon id="Fill-67" fill="#97B78E" mask="url(#mask-2)" points="67.7810109 3.97516667 66.1025109 3.97516667 56.4224982 3.97516667 56.4224982 15.2301111 61.2232165 15.2301111 61.2232165 8.7635 66.1025109 8.7635 67.7810109 8.7635 82.0392673 8.7635 82.0392673 3.97516667"></polygon>
                    <polygon id="Fill-68" fill="#97B78E" mask="url(#mask-2)" points="61.2229325 41.8258556 61.2229325 29.7341333 61.2229325 29.1325222 61.2229325 20.0186333 56.4231609 20.0186333 56.4231609 29.1325222 56.4231609 29.7341333 56.4231609 46.6132444 67.7807269 46.6132444 67.7807269 41.8258556"></polygon>
                    <polygon id="Fill-69" fill="#97B78E" mask="url(#mask-2)" points="94.3635091 34.5229389 94.3635091 41.8253833 88.0944584 41.8253833 86.8391335 41.8253833 72.5808772 41.8253833 72.5808772 46.6137167 86.8391335 46.6137167 88.0944584 46.6137167 99.1632807 46.6137167 99.1632807 34.5229389"></polygon>
                    <path d="M161.191855,50.1708722 C161.189015,50.1604833 161.186175,50.1500944 161.183335,50.1378167 L161.183335,50.1727611 C161.186175,50.1718167 161.188069,50.1718167 161.191855,50.1708722" id="Fill-70" fill="#97B78E" mask="url(#mask-2)"></path>
                    <path d="M161.212683,18.1833889 C165.986893,18.1833889 161.632071,1.6405 161.241084,0.188888889 C161.237297,0.183222222 161.234457,0.179444444 161.231617,0.173777778 C161.217416,0.17 161.203216,0.165277778 161.191855,0.162444444 C161.189015,0.172833333 161.186175,0.183222222 161.183335,0.1955 L161.183335,18.1815 L161.192802,18.1815 C161.199429,18.1815 161.206056,18.1833889 161.212683,18.1833889" id="Fill-71" fill="#ECBF79" mask="url(#mask-2)"></path>
                    <path d="M211.33044,0.189077778 C210.938506,1.64068889 206.583683,18.1826333 211.357894,18.1835778 L211.357894,0.169244444 C211.352214,0.169244444 211.346534,0.171133333 211.339907,0.173022222 C211.33612,0.178688889 211.334226,0.183411111 211.33044,0.189077778" id="Fill-72" fill="#ECBF79" mask="url(#mask-2)"></path>
                    <path d="M161.231617,50.1598222 C161.234457,50.1541556 161.237297,50.1494333 161.241084,50.1437667 C161.632071,48.6921556 165.986893,32.1502111 161.212683,32.1502111 C161.206056,32.1502111 161.199429,32.1521 161.192802,32.1521 L161.183335,32.1521 L161.183335,50.1381 C161.186175,50.1494333 161.189015,50.1607667 161.191855,50.1711556 C161.203216,50.1673778 161.217416,50.1636 161.231617,50.1598222" id="Fill-73" fill="#ECBF79" mask="url(#mask-2)"></path>
                    <path d="M211.33044,50.1441444 C211.334226,50.1498111 211.33612,50.1545333 211.339907,50.1602 C211.346534,50.1620889 211.352214,50.1639778 211.357894,50.1649222 L211.357894,32.1496444 C206.583683,32.1505889 210.938506,48.6925333 211.33044,50.1441444" id="Fill-74" fill="#ECBF79" mask="url(#mask-2)"></path>
                    <polygon id="Fill-75" fill="#97B78E" mask="url(#mask-2)" points="177.413758 44.5853333 177.47908 44.5853333 177.413758 44.5201667"></polygon>
                    <polygon id="Fill-76" fill="#97B78E" mask="url(#mask-2)" points="193.752199 44.5853333 193.993608 44.5853333 193.752199 44.3416667"></polygon>
                    <path d="M182.785715,50.9105611 C182.785715,50.9105611 182.787609,50.90395 182.790449,50.8963944 L182.785715,50.9105611 Z" id="Fill-77" fill="#97B78E" mask="url(#mask-2)"></path>
                    <path d="M192.059877,19.3657389 C191.275063,10.4926833 190.106834,1.96340556 186.238616,1.96340556 C182.367558,1.96340556 181.198382,10.50685 180.414514,19.3884056 C171.578012,20.1826833 163.096522,21.3452944 163.096522,25.1854056 C163.096522,29.0264611 171.578012,30.1881278 180.414514,30.9824056 C181.198382,39.8639611 182.367558,48.4074056 186.238616,48.4074056 C190.106834,48.4074056 191.275063,39.8771833 192.059877,31.0050722 C201.018504,30.23535 209.65052,29.0651833 209.65052,25.1854056 C209.65052,21.3056278 201.018504,20.1354611 192.059877,19.3657389" id="Fill-78" fill="#97B78E" mask="url(#mask-2)"></path>
                    <polygon id="Fill-79" fill="#97B78E" mask="url(#mask-2)" points="186.278472 25.1606611 186.278472 25.1606611 186.277525 25.1606611"></polygon>
                    <polygon id="Fill-80" fill="#97B78E" mask="url(#mask-2)" points="186.277999 25.1477222 186.277999 25.1477222 186.277999 25.1486667"></polygon>
                    <polygon id="Fill-81" fill="#97B78E" mask="url(#mask-2)" points="186.262284 25.1615111 186.262284 25.1615111 186.262284 25.1605667"></polygon>
                    <path d="M186.283111,25.1634 C186.283111,25.1634 186.284058,25.1624556 186.285004,25.1624556 C186.284058,25.1624556 186.283111,25.1634 186.283111,25.1634" id="Fill-82" fill="#97B78E" mask="url(#mask-2)"></path>
                    <path d="M161.2408,0.189077778 C162.057802,1.60291111 170.616922,16.1832444 173.988122,12.8861889 C173.992856,12.8814667 173.998536,12.8786333 174.003269,12.8729667 C177.268439,9.61463333 163.526135,1.44046667 161.439607,0.228744444 C161.355351,0.207022222 161.288135,0.188133333 161.237013,0.173966667 C161.23796,0.179633333 161.239853,0.183411111 161.2408,0.189077778" id="Fill-83" fill="#ECBF79" mask="url(#mask-2)"></path>
                    <path d="M211.131632,0.228744444 C209.045105,1.44046667 195.3028,9.61463333 198.56797,12.8729667 C198.572704,12.8786333 198.578384,12.8814667 198.583117,12.8861889 C201.954318,16.1832444 210.513437,1.60291111 211.33044,0.189077778 C211.331386,0.183411111 211.33328,0.179633333 211.334226,0.173966667 C211.283105,0.188133333 211.215889,0.207022222 211.131632,0.228744444" id="Fill-84" fill="#ECBF79" mask="url(#mask-2)"></path>
                    <path d="M161.439607,50.1044778 C163.526135,48.8927556 177.268439,40.7185889 174.003269,37.4602556 C173.998536,37.4545889 173.992856,37.4517556 173.988122,37.4470333 C170.616922,34.1499778 162.057802,48.7303111 161.2408,50.1441444 C161.239853,50.1498111 161.23796,50.1535889 161.237013,50.1592556 C161.288135,50.1450889 161.355351,50.1262 161.439607,50.1044778" id="Fill-85" fill="#ECBF79" mask="url(#mask-2)"></path>
                    <path d="M161.439607,50.1044778 C161.387538,50.1347 161.34399,50.1602 161.307069,50.1809778 L179.263137,50.1809778 C179.263137,50.1772 179.263137,50.1734222 179.262191,50.1687 C179.215802,45.6070333 163.837599,49.4735889 161.439607,50.1044778" id="Fill-86" fill="#ECBF79" mask="url(#mask-2)"></path>
                    <path d="M211.33044,50.1441444 C210.513437,48.7303111 201.954318,34.1499778 198.583117,37.4470333 C198.578384,37.4517556 198.572704,37.4545889 198.56797,37.4602556 C195.3028,40.7185889 209.045105,48.8927556 211.131632,50.1044778 C211.215889,50.1262 211.283105,50.1450889 211.334226,50.1592556 C211.33328,50.1535889 211.331386,50.1498111 211.33044,50.1441444" id="Fill-87" fill="#ECBF79" mask="url(#mask-2)"></path>
                    <path d="M193.308954,50.1689833 C193.308954,50.1737056 193.308954,50.1774833 193.308007,50.1812611 L211.264076,50.1812611 C211.227155,50.1595389 211.183606,50.1349833 211.131538,50.1047611 C208.733545,49.4738722 193.355342,45.6073167 193.308954,50.1689833" id="Fill-88" fill="#ECBF79" mask="url(#mask-2)"></path>
                    <polygon id="Fill-89" fill="#97B78E" mask="url(#mask-2)" points="240.419801 25.4529667 251.630628 14.2688556 262.840509 25.4529667 251.630628 36.6370778"></polygon>
                    <polygon id="Fill-90" fill="#97B78E" mask="url(#mask-2)" points="240.420179 0.44965 251.631007 11.6337611 262.841834 0.44965"></polygon>
                    <polygon id="Fill-91" fill="#97B78E" mask="url(#mask-2)" points="226.567774 36.6373611 215.356946 25.45325 226.567774 14.2691389 237.778601 25.45325"></polygon>
                    <polygon id="Fill-92" fill="#97B78E" mask="url(#mask-2)" points="226.567774 11.6335722 237.778601 0.449461111 215.356946 0.449461111"></polygon>
                    <polygon id="Fill-93" fill="#ECBF79" mask="url(#mask-2)" points="252.952033 37.9548611 264.16286 49.1389722 264.16286 26.77075"></polygon>
                    <polygon id="Fill-94" fill="#97B78E" mask="url(#mask-2)" points="251.631291 39.2728333 240.420463 50.4569444 262.842118 50.4569444"></polygon>
                    <polygon id="Fill-95" fill="#ECBF79" mask="url(#mask-2)" points="264.162671 24.1354667 264.162671 1.7663 252.951843 12.9504111"></polygon>
                    <polygon id="Fill-96" fill="#ECBF79" mask="url(#mask-2)" points="214.036488 26.7709389 214.036488 49.1391611 225.247316 37.95505"></polygon>
                    <polygon id="Fill-97" fill="#97B78E" mask="url(#mask-2)" points="226.567774 39.2728333 215.356946 50.4569444 237.778601 50.4569444"></polygon>
                    <polygon id="Fill-98" fill="#ECBF79" mask="url(#mask-2)" points="225.247126 12.9510722 214.036299 1.76696111 214.036299 24.1361278"></polygon>
                    <path d="M329.758129,25.1136278 L333.390619,25.1136278 L333.390619,21.4897944 C333.390619,17.2029611 329.906761,13.7274056 325.609687,13.7274056 L321.977197,13.7274056 L321.977197,17.3512389 C321.977197,21.6380722 325.460109,25.1136278 329.758129,25.1136278" id="Fill-99" fill="#ECBF79" mask="url(#mask-2)"></path>
                    <path d="M333.390619,4.53824444 L333.390619,0.914411111 L329.758129,0.914411111 C325.461055,0.914411111 321.977197,4.38996667 321.977197,8.6768 L321.977197,12.3006333 L325.609687,12.3006333 C329.906761,12.3006333 333.390619,8.82507778 333.390619,4.53824444" id="Fill-100" fill="#97B78E" mask="url(#mask-2)"></path>
                    <path d="M342.601447,12.3008222 L346.233937,12.3008222 L346.233937,8.67698889 C346.233937,4.39015556 342.750079,0.9146 338.453005,0.9146 L334.820515,0.9146 L334.820515,4.53843333 C334.820515,8.82526667 338.303426,12.3008222 342.601447,12.3008222" id="Fill-101" fill="#ECBF79" mask="url(#mask-2)"></path>
                    <path d="M346.233937,17.3509556 L346.233937,13.7271222 L342.601447,13.7271222 C338.304373,13.7271222 334.820515,17.2026778 334.820515,21.4895111 L334.820515,25.1133444 L338.453005,25.1133444 C342.750079,25.1133444 346.233937,21.6377889 346.233937,17.3509556" id="Fill-102" fill="#97B78E" mask="url(#mask-2)"></path>
                    <path d="M355.444386,50.3903611 L359.076876,50.3903611 L359.076876,46.7655833 C359.076876,42.47875 355.593964,39.0031944 351.296891,39.0031944 L347.663454,39.0031944 L347.663454,42.6270278 C347.663454,46.9138611 351.147312,50.3903611 355.444386,50.3903611" id="Fill-103" fill="#ECBF79" mask="url(#mask-2)"></path>
                    <path d="M359.076781,29.8141278 L359.076781,26.1902944 L355.444291,26.1902944 C351.147218,26.1902944 347.66336,29.66585 347.66336,33.9526833 L347.66336,37.5774611 L351.296796,37.5774611 C355.59387,37.5774611 359.076781,34.1019056 359.076781,29.8141278" id="Fill-104" fill="#97B78E" mask="url(#mask-2)"></path>
                    <path d="M368.287704,37.57765 L371.920193,37.57765 L371.920193,33.9528722 C371.920193,29.6660389 368.436336,26.1904833 364.140209,26.1904833 L360.506772,26.1904833 L360.506772,29.8143167 C360.506772,34.1020944 363.99063,37.57765 368.287704,37.57765" id="Fill-105" fill="#ECBF79" mask="url(#mask-2)"></path>
                    <path d="M371.920099,42.6273111 L371.920099,39.0034778 L368.287609,39.0034778 C363.990535,39.0034778 360.506677,42.4790333 360.506677,46.7658667 L360.506677,50.3906444 L364.140114,50.3906444 C368.436241,50.3906444 371.920099,46.9141444 371.920099,42.6273111" id="Fill-106" fill="#97B78E" mask="url(#mask-2)"></path>
                    <path d="M325.819287,26.6594 L322.186797,26.6594 L322.186797,30.2841778 C322.186797,34.5710111 325.669708,38.0456222 329.966782,38.0456222 L333.600218,38.0456222 L333.600218,34.4217889 C333.600218,30.1359 330.11636,26.6594 325.819287,26.6594" id="Fill-107" fill="#ECBF79" mask="url(#mask-2)"></path>
                    <path d="M338.662605,39.4721111 L335.030115,39.4721111 L335.030115,43.0968889 C335.030115,46.9813889 337.893884,50.1906111 341.628617,50.7591667 L346.443536,50.7591667 L346.443536,47.2345 C346.443536,42.9476667 342.959678,39.4721111 338.662605,39.4721111" id="Fill-108" fill="#ECBF79" mask="url(#mask-2)"></path>
                    <path d="M335.029736,34.4215056 L335.029736,38.0453389 L338.662226,38.0453389 C342.959299,38.0453389 346.443157,34.5707278 346.443157,30.2838944 L346.443157,26.6591167 L342.809721,26.6591167 C338.513594,26.6591167 335.029736,30.1356167 335.029736,34.4215056" id="Fill-109" fill="#97B78E" mask="url(#mask-2)"></path>
                    <path d="M333.599934,43.0967944 L333.599934,39.4720167 L329.967444,39.4720167 C325.670371,39.4720167 322.186513,42.9475722 322.186513,47.2344056 L322.186513,50.7590722 L327.000485,50.7590722 C330.735219,50.1905167 333.599934,46.9812944 333.599934,43.0967944" id="Fill-110" fill="#97B78E" mask="url(#mask-2)"></path>
                    <path d="M351.505922,0.610583333 L347.872486,0.610583333 L347.872486,4.23536111 C347.872486,8.52219444 351.356344,11.9968056 355.653417,11.9968056 L359.285907,11.9968056 L359.285907,8.37297222 C359.285907,4.08708333 355.802996,0.610583333 351.505922,0.610583333" id="Fill-111" fill="#ECBF79" mask="url(#mask-2)"></path>
                    <path d="M364.348767,13.4232944 L360.716277,13.4232944 L360.716277,17.0480722 C360.716277,20.9325722 363.580046,24.1417944 367.314779,24.71035 L372.129698,24.71035 L372.129698,21.1856833 C372.129698,16.89885 368.64584,13.4232944 364.348767,13.4232944" id="Fill-112" fill="#ECBF79" mask="url(#mask-2)"></path>
                    <path d="M360.715898,8.37278333 L360.715898,11.9966167 L364.348388,11.9966167 C368.645462,11.9966167 372.12932,8.52200556 372.12932,4.23517222 L372.12932,0.610394444 L368.49683,0.610394444 C364.199756,0.610394444 360.715898,4.08689444 360.715898,8.37278333" id="Fill-113" fill="#97B78E" mask="url(#mask-2)"></path>
                    <path d="M359.286191,17.0479778 L359.286191,13.4232 L355.653701,13.4232 C351.356628,13.4232 347.87277,16.8987556 347.87277,21.1855889 L347.87277,24.7102556 L352.687689,24.7102556 C356.422422,24.1417 359.286191,20.9324778 359.286191,17.0479778" id="Fill-114" fill="#97B78E" mask="url(#mask-2)"></path>
                    <path d="M310.033245,2.10932222 C312.400943,1.09687778 315.023304,0.505655556 317.645664,0.252544444 C317.391948,2.95365556 316.799314,5.48382222 315.784451,7.84682222 C315.192763,9.19737778 314.515872,10.4629333 313.754725,11.6444333 C311.809255,14.6827111 309.186895,17.2128778 306.142306,19.2387111 C304.957984,19.9980444 303.689405,20.6733222 302.33657,21.2636 C299.967925,22.2769889 297.345565,22.8672667 294.723205,23.1203778 C294.97692,20.4202111 295.569555,17.8881556 296.584418,15.5261 C297.176106,14.1755444 297.852996,12.9099889 298.614144,11.7294333 C300.559613,8.69115556 303.181974,6.1591 306.226562,4.13421111 C307.410885,3.37487778 308.679463,2.6996 310.033245,2.10932222" id="Fill-115" fill="#ECBF79" mask="url(#mask-2)"></path>
                    <path d="M290.747914,0.252733333 L290.917374,0.252733333 C291.509062,0.167733333 292.101696,0.167733333 292.778587,0.167733333 C293.370275,0.167733333 293.962909,0.252733333 294.638854,0.252733333 L294.808313,0.252733333 C297.51493,0.505844444 300.052087,1.09706667 302.420732,2.10951111 C300.221546,3.71223333 298.276077,5.73806667 296.584323,7.93201111 C295.653716,9.11256667 294.892569,10.3790667 294.131422,11.7286778 C293.623991,12.7411222 293.116559,13.8385667 292.693384,14.9350667 C292.270209,13.8385667 291.84798,12.7411222 291.255346,11.7286778 C290.578455,10.3790667 289.733052,9.11256667 288.802445,7.93201111 C287.195894,5.73806667 285.166168,3.79723333 282.966036,2.10951111 C285.50414,1.09706667 288.041298,0.505844444 290.747914,0.252733333" id="Fill-116" fill="#97B78E" mask="url(#mask-2)"></path>
                    <path d="M267.826023,0.252733333 C270.53264,0.505844444 273.070744,1.09706667 275.438442,2.10951111 C276.792224,2.69978889 278.060802,3.37506667 279.245125,4.13345556 C282.289713,6.07523333 284.826871,8.69134444 286.857543,11.7286778 C287.618691,12.9092333 288.295581,14.1757333 288.887269,15.5262889 C289.902132,17.8883444 290.49382,20.5044556 290.747536,23.1205667 C288.041866,22.8665111 285.503762,22.2762333 283.135117,21.2637889 C281.782282,20.6735111 280.513703,19.9982333 279.329381,19.2389 C276.284792,17.2980667 273.746688,14.6819556 271.716962,11.6446222 C270.955815,10.4631222 270.278924,9.19756667 269.68629,7.84701111 C268.672373,5.56901111 268.079739,2.9529 267.826023,0.252733333" id="Fill-117" fill="#ECBF79" mask="url(#mask-2)"></path>
                    <path d="M267.826023,27.1703444 L267.826023,27.0012889 C267.741767,26.4110111 267.741767,25.8197889 267.741767,25.1445111 C267.741767,24.5542333 267.826023,23.9639556 267.826023,23.2896222 L267.826023,23.1205667 C268.079739,20.4204 268.672373,17.8883444 269.68629,15.5262889 C271.293787,17.7192889 273.323513,19.6610667 275.522698,21.3478444 C276.707021,22.2762333 277.975599,23.0355667 279.329381,23.7958444 C280.344244,24.3020667 281.44431,24.8082889 282.543429,25.2295111 C281.44431,25.6516778 280.344244,26.0738444 279.329381,26.6641222 C277.975599,27.3394 276.707021,28.1827889 275.522698,29.1121222 C273.323513,30.7148444 271.378043,32.7397333 269.68629,34.9336778 C268.672373,32.4025667 268.079739,29.8705111 267.826023,27.1703444" id="Fill-118" fill="#97B78E" mask="url(#mask-2)"></path>
                    <path d="M275.523077,48.1814944 C273.155379,49.1939389 270.533019,49.7851611 267.910658,50.0382722 C268.164374,47.3371611 268.757008,44.8069944 269.770925,42.4439944 C270.363559,41.0934389 271.04045,39.8278833 271.801597,38.6463833 C273.747067,35.6081056 276.369427,33.0779389 279.414016,31.0521056 C280.598338,30.2927722 281.866917,29.6174944 283.219752,29.0272167 C285.588397,28.0138278 288.210757,27.42355 290.832171,27.1704389 C290.578455,29.8706056 289.986767,32.4026611 288.971904,34.7647167 C288.380216,36.1152722 287.703326,37.3808278 286.942178,38.5613833 C284.996709,41.5996611 282.374348,44.1317167 279.32976,46.1556611 C278.060234,46.9159389 276.876859,47.5912167 275.523077,48.1814944" id="Fill-119" fill="#ECBF79" mask="url(#mask-2)"></path>
                    <path d="M294.807934,50.0380833 L294.638475,50.0380833 C294.046787,50.1230833 293.455099,50.1230833 292.778208,50.1230833 C292.185574,50.1230833 291.593886,50.0380833 290.916995,50.0380833 L290.747536,50.0380833 C288.041866,49.7849722 285.503762,49.19375 283.135117,48.1813056 C285.335249,46.5785833 287.279772,44.55275 288.971526,42.3588056 C289.902132,41.17825 290.663279,39.91175 291.424427,38.5621389 C291.931858,37.5496944 292.440236,36.45225 292.862465,35.35575 C293.28564,36.45225 293.708815,37.5496944 294.300503,38.5621389 C294.977394,39.91175 295.822797,41.17825 296.753404,42.3588056 C298.360901,44.55275 300.390627,46.4935833 302.589812,48.1813056 C300.052655,49.19375 297.514551,49.7849722 294.807934,50.0380833" id="Fill-120" fill="#97B78E" mask="url(#mask-2)"></path>
                    <path d="M317.730299,50.0380833 C315.023682,49.7849722 312.485578,49.19375 310.11788,48.1813056 C308.764098,47.5910278 307.49552,46.91575 306.311197,46.1564167 C303.266609,44.2155833 300.729451,41.5994722 298.698779,38.5621389 C297.937631,37.3815833 297.260741,36.1150833 296.669053,34.7645278 C295.65419,32.4024722 295.061555,29.7863611 294.80784,27.17025 C297.514456,27.4243056 300.05256,28.0145833 302.421205,29.0270278 C303.77404,29.6173056 305.042619,30.2925833 306.226941,31.0519167 C309.27153,32.99275 311.809634,35.6088611 313.83936,38.6461944 C314.600507,39.8276944 315.277398,41.09325 315.869086,42.4438056 C316.883949,44.7218056 317.476583,47.3379167 317.730299,50.0380833" id="Fill-121" fill="#ECBF79" mask="url(#mask-2)"></path>
                    <path d="M310.033245,29.0264611 C308.848923,28.0990167 307.580344,27.3387389 306.226562,26.5794056 C305.211699,26.0731833 304.11258,25.5669611 303.012514,25.1447944 C304.11258,24.7226278 305.211699,24.3014056 306.226562,23.7101833 C307.580344,23.0349056 308.848923,22.1915167 310.033245,21.2631278 C312.23243,19.6604056 314.1779,17.6345722 315.869654,15.4406278 C316.884517,17.8036278 317.476205,20.4197389 317.72992,23.0349056 L317.72992,23.2039611 C317.815123,23.7951833 317.815123,24.3854611 317.815123,25.0607389 C317.815123,25.6510167 317.72992,26.2422389 317.72992,26.9175167 L317.72992,27.0856278 C317.476205,29.7857944 316.884517,32.3169056 315.869654,34.6799056 C314.1779,32.5709611 312.23243,30.6291833 310.033245,29.0264611" id="Fill-122" fill="#97B78E" mask="url(#mask-2)"></path>
                </g>
            </g>
        </g>
    </g>
</svg>