<?xml version="1.0" encoding="UTF-8"?>
<svg width="374px" height="53px" viewBox="0 0 374 53" version="1.1" xmlns="http://www.w3.org/2000/svg" xmlns:xlink="http://www.w3.org/1999/xlink">
    <!-- Generator: Sketch 63.1 (92452) - https://sketch.com -->
    <title>Group 88</title>
    <desc>Created with Sketch.</desc>
    <defs>
        <polygon id="path-1" points="0 53.0526316 373.265289 53.0526316 373.265289 0.422526316 0 0.422526316"></polygon>
    </defs>
    <g id="UI" stroke="none" stroke-width="1" fill="none" fill-rule="evenodd">
        <g id="Load">
            <g id="Group-88">
                <polygon id="Fill-1" fill="#ECBF79" points="127.4445 52.495 127.5555 52.608 127.5545 52.392"></polygon>
                <g id="Group-87">
                    <path d="M214.221884,51.1986316 C214.218087,51.1976842 214.217138,51.1976842 214.213341,51.1967368 L214.213341,51.2317895 C214.216189,51.2194737 214.219986,51.2090526 214.221884,51.1995789 L214.221884,51.1986316 Z" id="Fill-2" fill="#97B78E"></path>
                    <path d="M214.213531,51.1625368 L214.213531,51.1644316 C214.215429,51.1634842 214.219226,51.1625368 214.222074,51.1625368 L214.213531,51.1625368 Z" id="Fill-4" fill="#97B78E"></path>
                    <polygon id="Fill-6" fill="#ECBF79" points="107.787559 17.3385474 107.787559 34.8516 115.869377 26.0713895"></polygon>
                    <polygon id="Fill-8" fill="#97B78E" points="113.228025 46.0204105 112.78568 39.7971474 107.787939 34.8083053 107.787939 51.2129368 124.224005 51.2129368 119.462624 46.4618842"></polygon>
                    <polygon id="Fill-10" fill="#97B78E" points="152.61127 6.13477895 153.053615 12.3570947 158.137737 17.4312 158.137737 0.962147368 141.636173 0.962147368 146.376671 5.69235789"></polygon>
                    <polygon id="Fill-12" fill="#ECBF79" points="141.622219 0.962147368 124.216981 0.962147368 132.925295 9.02046316"></polygon>
                    <polygon id="Fill-14" fill="#97B78E" points="112.963378 6.41141053 119.198926 5.96898947 124.215652 0.962147368 107.78718 0.962147368 107.78718 17.3582526 112.521032 12.6337263"></polygon>
                    <polygon id="Fill-16" fill="#97B78E" points="158.137926 34.8296211 153.416414 39.5418316 152.974069 45.7641474 146.73947 46.2065684 141.721794 51.2134105 158.137926 51.2134105"></polygon>
                    <path d="M149.994314,26.0582211 C150.006654,26.0695895 158.137831,34.8498 158.137831,34.8498 L158.137831,17.4220105 L149.994314,26.0582211 Z" id="Fill-18" fill="#ECBF79"></path>
                    <polygon id="Fill-20" fill="#ECBF79" points="132.947887 43.1190947 124.207298 51.2134105 141.713156 51.2134105"></polygon>
                    <path d="M139.628723,26.9093368 C141.230089,28.5075474 141.230089,31.0995474 139.628723,32.6968105 C138.027358,34.2959684 135.430241,34.2959684 133.828876,32.6968105 L132.968865,31.8384947 L132.108855,32.6968105 C130.506541,34.2959684 127.910373,34.2959684 126.309008,32.6968105 C124.706693,31.0995474 124.706693,28.5075474 126.309008,26.9093368 L127.169018,26.0510211 L126.309008,25.1927053 C124.706693,23.5935474 124.706693,21.0024947 126.309008,19.4033368 C127.910373,17.8051263 130.506541,17.8051263 132.108855,19.4033368 L132.968865,20.2616526 L133.828876,19.4033368 C135.430241,17.8051263 138.027358,17.8051263 139.628723,19.4033368 C141.230089,21.0024947 141.230089,23.5935474 139.628723,25.1927053 L138.768713,26.0510211 L139.628723,26.9093368 Z M132.946084,9.06565263 L115.927185,26.0510211 L132.971713,43.0629158 L132.958424,43.0761789 L132.968865,43.0875474 L150.039023,26.0510211 L150.015292,26.0263895 L149.977322,26.0633368 L132.946084,9.06565263 Z" id="Fill-22" fill="#97B78E"></path>
                    <polygon id="Fill-24" fill="#97B78E" points="189.776143 42.5279368 183.364037 42.5279368 178.033113 47.8474105 178.033113 51.0476211 182.560981 51.0476211 182.560981 47.0468842 190.579199 47.0468842 190.579199 51.0476211 195.107067 51.0476211 195.107067 47.8474105"></polygon>
                    <polygon id="Fill-26" fill="#97B78E" points="203.125285 47.8476947 203.125285 51.0479053 207.653153 51.0479053 207.653153 47.0462211 211.662737 47.0462211 211.662737 42.5282211 208.456209 42.5282211"></polygon>
                    <polygon id="Fill-28" fill="#97B78E" points="203.125285 22.8053368 203.125285 29.2048105 208.456209 34.5252316 211.662737 34.5252316 211.662737 30.0062842 207.653153 30.0062842 207.653153 22.0029158 211.662737 22.0029158 211.662737 17.4849158 208.456209 17.4849158"></polygon>
                    <polygon id="Fill-30" fill="#ECBF79" points="177.230247 22.0032 182.561171 16.6837263 182.561171 10.2833053 177.230247 4.96383158 170.817191 4.96383158 165.486267 10.2833053 165.486267 16.6837263 170.817191 22.0032"></polygon>
                    <polygon id="Fill-32" fill="#97B78E" points="183.363752 9.48202105 189.775858 9.48202105 195.106782 4.16254737 195.106782 0.962336842 190.579863 0.962336842 190.579863 4.96307368 182.560696 4.96307368 182.560696 0.962336842 178.032828 0.962336842 178.032828 4.16254737"></polygon>
                    <polygon id="Fill-34" fill="#97B78E" points="164.683876 42.5279368 161.477348 42.5279368 161.477348 47.0468842 165.486931 47.0468842 165.486931 51.0476211 170.014799 51.0476211 170.014799 47.8474105"></polygon>
                    <polygon id="Fill-36" fill="#97B78E" points="170.01461 4.16235789 170.01461 0.962147368 165.486742 0.962147368 165.486742 4.96383158 161.477158 4.96383158 161.477158 9.48183158 164.683686 9.48183158"></polygon>
                    <polygon id="Fill-38" fill="#97B78E" points="170.01461 29.2046211 170.01461 22.8051474 164.683686 17.4847263 161.477158 17.4847263 161.477158 22.0027263 165.486742 22.0027263 165.486742 30.0060947 161.477158 30.0060947 161.477158 34.5250421 164.683686 34.5250421"></polygon>
                    <polygon id="Fill-40" fill="#ECBF79" points="195.910028 4.96354737 190.579104 10.2830211 190.579104 16.6834421 195.910028 22.0029158 202.322135 22.0029158 207.653058 16.6834421 207.653058 10.2830211 202.322135 4.96354737"></polygon>
                    <polygon id="Fill-42" fill="#ECBF79" points="195.910028 30.0059053 190.579104 35.3263263 190.579104 41.7267474 195.910028 47.0462211 202.322135 47.0462211 207.653058 41.7267474 207.653058 35.3263263 202.322135 30.0059053"></polygon>
                    <polygon id="Fill-44" fill="#ECBF79" points="170.817381 30.0059053 165.486457 35.3263263 165.486457 41.7267474 170.817381 47.0462211 177.230437 47.0462211 182.56136 41.7267474 182.56136 35.3263263 177.230437 30.0059053"></polygon>
                    <polygon id="Fill-46" fill="#97B78E" points="207.653153 0.962147368 203.125285 0.962147368 203.125285 4.16235789 208.456209 9.48183158 211.662737 9.48183158 211.662737 4.96383158 207.653153 4.96383158"></polygon>
                    <mask id="mask-2" fill="white">
                        <use xlink:href="#path-1"></use>
                    </mask>
                    <g id="Clip-49"></g>
                    <path d="M182.56136,30.006 L190.579579,30.006 L190.579579,22.0035789 L182.56136,22.0035789 L182.56136,30.006 Z M195.107447,22.8050526 L189.776523,17.4846316 L183.364416,17.4846316 L178.033492,22.8050526 L178.033492,29.2045263 L183.364416,34.5249474 L189.776523,34.5249474 L195.107447,29.2045263 L195.107447,22.8050526 Z" id="Fill-48" fill="#97B78E" mask="url(#mask-2)"></path>
                    <path d="M14.3116701,28.1768211 C13.5845533,28.1768211 13.0814569,28.1209263 13.0814569,28.1209263 C13.0814569,28.1209263 14.4236802,29.6281895 14.4236802,31.7484 C14.4236802,32.6967158 13.6405584,33.3665053 13.6405584,33.3665053 C13.6405584,33.3665053 12.8583858,32.9752421 12.6343655,32.4731368 C12.6343655,32.4731368 11.8521929,32.9202947 10.4539645,32.9202947 C7.71446193,32.9202947 6.26117766,30.2420842 5.92609645,29.8517684 C5.53406091,29.4046105 4.52786802,29.2937684 3.91276142,29.9626105 C3.29765482,30.6324 3.35460914,31.5807158 3.80170051,31.9719789 C4.24879188,32.3622947 6.93228934,33.7568211 6.93228934,36.4909263 C6.93228934,37.8854526 6.48424873,38.6670316 6.48424873,38.6670316 C6.98829442,38.9455579 7.37938071,39.6712421 7.37938071,39.6712421 C7.37938071,39.6712421 6.70826904,40.4528211 5.75808122,40.4528211 C3.5776802,40.4528211 2.12439594,39.1691368 2.12439594,39.1691368 C2.12439594,39.1691368 2.18040102,39.7271368 2.18040102,40.3959789 C2.06839086,41.0657684 1.11820305,42.8515579 0,43.4095579 L0,29.7390316 C2.01238579,29.7390316 3.63368528,28.1209263 3.63368528,26.1125053 C3.63368528,24.1040842 2.01238579,22.4859789 0,22.4859789 L0,8.81545263 C1.11820305,9.37345263 2.06839086,11.1592421 2.06839086,11.8290316 C2.06839086,12.5547158 2.01238579,13.0568211 2.01238579,13.0568211 C2.01238579,13.0568211 3.52167513,11.7172421 5.64607107,11.7172421 C6.59720812,11.7172421 7.26737056,12.4988211 7.26737056,12.4988211 C7.26737056,12.4988211 6.87628426,13.2794526 6.37318782,13.5030316 C6.37318782,13.5030316 6.82027919,14.2836632 6.82027919,15.6791368 C6.82027919,18.4122947 4.13678173,19.8636632 3.68969036,20.1980842 C3.24259898,20.5884 3.13058883,21.5935579 3.80170051,22.2065053 C4.47186294,22.8213474 5.423,22.7645053 5.81408629,22.3182947 C6.20517259,21.8730316 7.60340102,19.2497684 10.3419543,19.2497684 C11.7401827,19.2497684 12.5223553,19.6959789 12.5223553,19.6959789 C12.8023807,19.1948211 13.5285482,18.8035579 13.5285482,18.8035579 C13.5285482,18.8035579 14.3116701,19.4724 14.3116701,20.4216632 C14.3116701,22.5977684 12.9694467,24.0491368 12.9694467,24.0491368 C12.9694467,24.0491368 13.5285482,23.9922947 14.1996599,23.9922947 C14.8707716,23.9922947 16.6600863,24.9415579 17.2191878,26.0575579 C16.7711472,27.2285053 14.9827817,28.1768211 14.3116701,28.1768211" id="Fill-50" fill="#97B78E" mask="url(#mask-2)"></path>
                    <path d="M39.4692452,3.06881053 C38.7421284,3.06881053 38.2399812,3.01291579 38.2399812,3.01291579 C38.2399812,3.01291579 39.5812553,4.51923158 39.5812553,6.64038947 C39.5812553,7.58870526 38.7981335,8.25849474 38.7981335,8.25849474 C38.7981335,8.25849474 38.0159609,7.86723158 37.7919406,7.36512632 C37.7919406,7.36512632 37.009768,7.81228421 35.6124888,7.81228421 C32.8720371,7.81228421 31.4187528,5.13407368 31.0836716,4.68691579 C30.691636,4.24070526 29.6854431,4.12891579 29.0703365,4.79870526 C28.4552299,5.46849474 28.5121843,6.41681053 28.9592756,6.80712632 C29.406367,7.19744211 32.0898645,8.59291579 32.0898645,11.3270211 C32.0898645,12.7215474 31.6427731,13.5031263 31.6427731,13.5031263 C32.1458695,13.7826 32.5369558,14.5073368 32.5369558,14.5073368 C32.5369558,14.5073368 31.8658442,15.2879684 30.9156563,15.2879684 C28.7352553,15.2879684 27.2819711,14.0052316 27.2819711,14.0052316 C27.2819711,14.0052316 27.3379761,14.5632316 27.3379761,15.2330211 C27.3379761,15.9018632 26.3877883,17.6876526 25.2695853,18.2456526 C24.1513822,17.6876526 23.2002452,15.9018632 23.2002452,15.2330211 C23.2002452,14.5073368 23.2562503,14.0052316 23.2562503,14.0052316 C23.2562503,14.0052316 21.7469609,15.2879684 19.622565,15.2879684 C18.6723772,15.2879684 18.0012655,14.5073368 18.0012655,14.5073368 C18.0012655,14.5073368 18.3923518,13.7257579 18.8963975,13.5031263 C18.8963975,13.5031263 18.4483569,12.7215474 18.4483569,11.3270211 C18.4483569,8.59291579 21.1318543,7.14249474 21.5789457,6.80712632 C22.0269863,6.41681053 22.1389964,5.4126 21.4678848,4.79870526 C20.7967731,4.18575789 19.8465853,4.24070526 19.455499,4.68691579 C19.0634635,5.13407368 17.6661843,7.81228421 14.9266817,7.81228421 C13.5284533,7.81228421 12.7462807,7.36512632 12.7462807,7.36512632 C12.4672046,7.86723158 11.7400878,8.25849474 11.7400878,8.25849474 C11.7400878,8.25849474 10.956966,7.58870526 10.956966,6.64038947 C10.956966,4.46428421 12.2991893,3.01291579 12.2991893,3.01291579 C12.2991893,3.01291579 11.7400878,3.06881053 11.0689761,3.06881053 C10.1747934,3.06881053 8.38547868,2.12049474 7.82637716,1.00449474 L21.5238898,1.00449474 C21.5238898,3.01291579 23.1451893,4.63102105 25.1575751,4.63102105 C27.1699609,4.63102105 28.7912604,3.01291579 28.7912604,1.00449474 L42.4887731,1.00449474 C41.9296716,2.12049474 40.1403569,3.06881053 39.4692452,3.06881053" id="Fill-51" fill="#ECBF79" mask="url(#mask-2)"></path>
                    <path d="M46.6812751,26.1127895 C46.6812751,28.1212105 48.3025746,29.7393158 50.3149604,29.7393158 L50.3149604,43.4098421 C49.1967574,42.8518421 48.2465695,41.0660526 48.2465695,40.3962632 C48.2465695,39.6715263 48.3025746,39.1684737 48.3025746,39.1684737 C48.3025746,39.1684737 46.7932853,40.4531053 44.6688893,40.4531053 C43.7177523,40.4531053 43.0475898,39.6715263 43.0475898,39.6715263 C43.0475898,39.6715263 43.4386761,38.8899474 43.9417726,38.6673158 C43.9417726,38.6673158 43.4946812,37.8857368 43.4946812,36.4912105 C43.4946812,33.7561579 46.1781787,32.3057368 46.6252701,31.9722632 C47.0723614,31.5800526 47.1843716,30.5767895 46.5132599,29.9619474 C45.8430975,29.349 44.8919604,29.4048947 44.5008741,29.8511053 C44.1097878,30.2973158 42.7115594,32.9205789 39.9730061,32.9205789 C38.5747777,32.9205789 37.7926051,32.4734211 37.7926051,32.4734211 C37.5125797,32.9755263 36.7864122,33.3658421 36.7864122,33.3658421 C36.7864122,33.3658421 36.0032904,32.697 36.0032904,31.7477368 C36.0032904,29.5716316 37.3455137,28.1212105 37.3455137,28.1212105 C37.3455137,28.1212105 36.7864122,28.1771053 36.1153005,28.1771053 C35.3321787,28.1771053 33.5438132,27.2287895 32.9847117,26.1127895 C33.5438132,24.9967895 35.3321787,24.0484737 36.0032904,24.0484737 C36.7304071,24.0484737 37.2335036,24.1043684 37.2335036,24.1043684 C37.2335036,24.1043684 35.8912802,22.5980526 35.8912802,20.4778421 C35.8912802,19.5295263 36.674402,18.8597368 36.674402,18.8597368 C36.674402,18.8597368 37.4565746,19.2500526 37.6805949,19.7521579 C37.6805949,19.7521579 38.4627675,19.305 39.8609959,19.305 C42.6004985,19.305 44.0537827,21.9841579 44.388864,22.3744737 C44.7808995,22.8206842 45.7870924,22.9324737 46.402199,22.2636316 C47.0173056,21.5928947 46.9603513,20.6455263 46.5132599,20.2542632 C46.0661685,19.863 43.3826711,18.4694211 43.3826711,15.7353158 C43.3826711,14.3398421 43.8307117,13.5582632 43.8307117,13.5582632 C43.326666,13.2797368 42.9355797,12.5540526 42.9355797,12.5540526 C42.9355797,12.5540526 43.6066914,11.7734211 44.5568792,11.7734211 C46.7372802,11.7734211 48.1905645,13.1120526 48.1905645,13.1120526 C48.1905645,13.1120526 48.1345594,12.5540526 48.1345594,11.8842632 C48.1345594,11.2144737 49.0856964,9.43057895 50.2029503,8.87163158 L50.2029503,22.5412105 C48.3025746,22.4862632 46.6812751,24.1043684 46.6812751,26.1127895" id="Fill-52" fill="#97B78E" mask="url(#mask-2)"></path>
                    <path d="M42.4884883,51.2208 L28.7909756,51.2208 C28.7909756,49.2123789 27.1696761,47.5942737 25.1572904,47.5942737 C23.1449046,47.5942737 21.5236051,49.2123789 21.5236051,51.2208 L7.82609239,51.2208 C8.38519391,50.1048 10.1745086,49.1564842 10.8456203,49.1564842 C11.5727371,49.1564842 12.0748843,49.2123789 12.0748843,49.2123789 C12.0748843,49.2123789 10.7336102,47.7060632 10.7336102,45.5858526 C10.7336102,44.6375368 11.516732,43.9677474 11.516732,43.9677474 C11.516732,43.9677474 12.2989046,44.3021684 12.5229249,44.8601684 C12.5229249,44.8601684 13.3050975,44.4130105 14.7033259,44.4130105 C17.4428284,44.4130105 18.8961127,47.0921684 19.2311939,47.5383789 C19.6232294,47.9845895 20.6294223,48.0963789 21.2445289,47.4265895 C21.8596355,46.7568 21.8026812,45.8084842 21.3555898,45.4181684 C20.9084985,45.0278526 18.225001,43.6323789 18.225001,40.8982737 C18.225001,39.5037474 18.6720924,38.7231158 18.6720924,38.7231158 C18.1689959,38.4436421 17.7779096,37.7179579 17.7779096,37.7179579 C17.7779096,37.7179579 18.4490213,36.9373263 19.3992091,36.9373263 C21.5796102,36.9373263 23.0328944,38.2759579 23.0328944,38.2759579 C23.0328944,38.2759579 22.9768893,37.7179579 22.9768893,37.0491158 C22.9768893,36.3793263 23.9270772,34.5935368 25.0462294,34.0355368 C26.1634832,34.5935368 27.1146203,36.3793263 27.1146203,37.0491158 C27.1146203,37.7748 27.0586152,38.2759579 27.0586152,38.2759579 C27.0586152,38.2759579 28.5679046,36.9373263 30.6923005,36.9373263 C31.6424883,36.9373263 32.3136,37.7179579 32.3136,37.7179579 C32.3136,37.7179579 31.9225137,38.4995368 31.418468,38.7231158 C31.418468,38.7231158 31.8665086,39.5037474 31.8665086,40.8982737 C31.8665086,43.6323789 29.1830112,45.0828 28.7359198,45.4181684 C28.2888284,45.8084842 28.175869,46.8136421 28.8469807,47.4265895 C29.5180924,48.0414316 30.4682802,47.9845895 30.8603157,47.5383789 C31.251402,47.0921684 32.6486812,44.4130105 35.3881838,44.4130105 C36.7864122,44.4130105 37.5685848,44.8601684 37.5685848,44.8601684 C37.8476609,44.3580632 38.5747777,43.9677474 38.5747777,43.9677474 C38.5747777,43.9677474 39.3578995,44.6375368 39.3578995,45.5858526 C39.3578995,47.7619579 38.0156761,49.2123789 38.0156761,49.2123789 C38.0156761,49.2123789 38.5747777,49.1564842 39.2458893,49.1564842 C40.1400721,49.1564842 41.9293868,50.1048 42.4884883,51.2208" id="Fill-53" fill="#ECBF79" mask="url(#mask-2)"></path>
                    <path d="M285.970462,0.854810526 L285.970462,15.6650211 L293.389711,8.25944211 L285.970462,0.854810526 Z M285.970462,36.3138632 L285.970462,51.1250211 L293.389711,43.7194421 L285.970462,36.3138632 Z M304.591675,17.7293368 L312.011873,25.1339684 L319.431122,17.7293368 L304.591675,17.7293368 Z M283.902071,17.7293368 L276.481873,25.1339684 L269.062624,17.7293368 L283.902071,17.7293368 Z" id="Fill-54" fill="#ECBF79" mask="url(#mask-2)"></path>
                    <polygon id="Fill-55" fill="#97B78E" mask="url(#mask-2)" points="276.481778 26.8445368 269.062529 34.2491684 283.901976 34.2491684"></polygon>
                    <polygon id="Fill-56" fill="#97B78E" mask="url(#mask-2)" points="312.011493 26.8445368 304.592245 34.2491684 319.430742 34.2491684"></polygon>
                    <polygon id="Fill-57" fill="#97B78E" mask="url(#mask-2)" points="285.970462 34.2492632 302.523284 34.2492632 302.523284 17.7290526 285.970462 17.7290526"></polygon>
                    <polygon id="Fill-58" fill="#97B78E" mask="url(#mask-2)" points="295.103656 43.7195368 302.522905 51.1241684 302.522905 36.3139579"></polygon>
                    <polygon id="Fill-59" fill="#97B78E" mask="url(#mask-2)" points="295.103656 8.25982105 302.522905 15.6644526 302.522905 0.855189474"></polygon>
                    <path d="M304.233527,50.9507053 L319.57702,37.8429158 L319.57702,50.9507053 C319.57702,50.9507053 304.049375,50.7678632 304.233527,50.9507053" id="Fill-60" fill="#97B78E" mask="url(#mask-2)"></path>
                    <path d="M284.430702,0.902936842 L269.08721,14.0107263 L269.08721,0.902936842 C269.08721,0.902936842 284.614854,1.08577895 284.430702,0.902936842" id="Fill-61" fill="#97B78E" mask="url(#mask-2)"></path>
                    <path d="M319.405587,16.0451053 L306.271922,0.731842105 L319.405587,0.731842105 C319.405587,0.731842105 319.221435,16.2279474 319.405587,16.0451053" id="Fill-62" fill="#ECBF79" mask="url(#mask-2)"></path>
                    <path d="M269.258642,35.8085368 L282.392307,51.1218 L269.258642,51.1218 C269.258642,51.1218 269.442794,35.6256947 269.258642,35.8085368" id="Fill-63" fill="#ECBF79" mask="url(#mask-2)"></path>
                    <path d="M255.265726,36.3090316 C253.757386,36.3090316 252.335427,35.9499789 251.063447,35.3275579 C250.822341,34.9012421 250.552757,34.4948211 250.265138,34.1016632 C250.553706,33.7085053 250.822341,33.3011368 251.063447,32.8757684 C252.335427,32.2533474 253.757386,31.8942947 255.265726,31.8942947 C256.774066,31.8942947 258.196975,32.2533474 259.468006,32.8757684 C259.709112,33.3011368 259.978696,33.7085053 260.266315,34.1016632 C259.977747,34.4948211 259.709112,34.9012421 259.468006,35.3275579 C258.196975,35.9499789 256.774066,36.3090316 255.265726,36.3090316 M249.735462,41.4598737 C249.735462,43.6710316 248.974173,45.7021895 247.707889,47.3231368 C246.442554,45.7021895 245.680315,43.6710316 245.680315,41.4598737 C245.680315,40.0350316 246.003056,38.6869263 246.565006,37.4705053 C246.960838,37.2336632 247.341483,36.9759789 247.707889,36.6993474 C248.073346,36.9759789 248.45494,37.2336632 248.850772,37.4705053 C249.413671,38.6869263 249.735462,40.0350316 249.735462,41.4598737 M240.151001,36.3090316 C238.641711,36.3090316 237.219752,35.9499789 235.947772,35.3275579 C235.707615,34.9012421 235.437082,34.4948211 235.149462,34.1016632 C235.437082,33.7085053 235.706665,33.3011368 235.947772,32.8757684 C237.219752,32.2533474 238.641711,31.8942947 240.151001,31.8942947 C241.659341,31.8942947 243.0813,32.2533474 244.35233,32.8757684 C244.593437,33.3011368 244.86397,33.7085053 245.151589,34.1016632 C244.86397,34.4948211 244.594386,34.9012421 244.35233,35.3275579 C243.0813,35.9499789 241.659341,36.3090316 240.151001,36.3090316 M234.619787,41.4598737 C234.619787,43.6710316 233.858498,45.7021895 232.593163,47.3231368 C231.326879,45.7021895 230.565589,43.6710316 230.565589,41.4598737 C230.565589,40.0350316 230.887381,38.6869263 231.45028,37.4705053 C231.846112,37.2336632 232.226757,36.9759789 232.593163,36.6993474 C232.95862,36.9759789 233.339264,37.2336632 233.735097,37.4705053 C234.297995,38.6869263 234.619787,40.0350316 234.619787,41.4598737 M225.035325,36.3090316 C222.711589,36.3090316 220.579599,35.4791368 218.918432,34.1016632 C220.579599,32.7241895 222.711589,31.8942947 225.035325,31.8942947 C226.543665,31.8942947 227.965625,32.2533474 229.237605,32.8757684 C229.477762,33.3011368 229.748295,33.7085053 230.035914,34.1016632 C229.748295,34.4948211 229.478711,34.9012421 229.237605,35.3275579 C227.965625,35.9499789 226.543665,36.3090316 225.035325,36.3090316 M230.565589,26.7425053 C230.565589,25.3167158 230.887381,23.9695579 231.45028,22.7521895 C231.846112,22.5153474 232.226757,22.2586105 232.593163,21.9810316 C232.95862,22.2586105 233.339264,22.5153474 233.735097,22.7521895 C234.297995,23.9695579 234.619787,25.3167158 234.619787,26.7425053 C234.619787,28.1673474 234.297995,29.5164 233.735097,30.7318737 C233.339264,30.9696632 232.95862,31.2264 232.593163,31.5039789 C232.226757,31.2264 231.846112,30.9696632 231.45028,30.7318737 C230.887381,29.5164 230.565589,28.1673474 230.565589,26.7425053 M225.035325,21.5916632 C222.711589,21.5916632 220.579599,20.7617684 218.918432,19.3842947 C220.579599,18.0068211 222.711589,17.1759789 225.035325,17.1759789 C226.543665,17.1759789 227.965625,17.5359789 229.237605,18.1584 C229.477762,18.5837684 229.748295,18.9911368 230.035914,19.3842947 C229.748295,19.7765053 229.478711,20.1838737 229.237605,20.6101895 C227.965625,21.2326105 226.543665,21.5916632 225.035325,21.5916632 M230.565589,12.0251368 C230.565589,9.81492632 231.326879,7.78376842 232.593163,6.16187368 C233.858498,7.78282105 234.619787,9.81397895 234.619787,12.0251368 C234.619787,13.4499789 234.297995,14.7990316 233.735097,16.0145053 C233.339264,16.2513474 232.95862,16.5090316 232.593163,16.7866105 C232.226757,16.5090316 231.846112,16.2513474 231.45028,16.0145053 C230.887381,14.7990316 230.565589,13.4499789 230.565589,12.0251368 M240.151001,17.1759789 C241.659341,17.1759789 243.0813,17.5359789 244.35233,18.1584 C244.593437,18.5837684 244.86397,18.9911368 245.151589,19.3842947 C244.86397,19.7765053 244.594386,20.1838737 244.35233,20.6101895 C243.0813,21.2326105 241.659341,21.5916632 240.151001,21.5916632 C238.641711,21.5916632 237.219752,21.2326105 235.947772,20.6101895 C235.707615,20.1838737 235.437082,19.7765053 235.149462,19.3842947 C235.437082,18.9911368 235.706665,18.5837684 235.947772,18.1584 C237.219752,17.5359789 238.641711,17.1759789 240.151001,17.1759789 M245.680315,12.0251368 C245.680315,9.81492632 246.442554,7.78376842 247.707889,6.16282105 C248.974173,7.78376842 249.735462,9.81492632 249.735462,12.0251368 C249.735462,13.4499789 249.413671,14.7990316 248.850772,16.0145053 C248.45494,16.2513474 248.073346,16.5090316 247.707889,16.7866105 C247.342432,16.5090316 246.960838,16.2513474 246.565006,16.0145053 C246.003056,14.7990316 245.680315,13.4499789 245.680315,12.0251368 M255.265726,17.1759789 C256.774066,17.1759789 258.196975,17.5359789 259.468006,18.1584 C259.709112,18.5837684 259.978696,18.9911368 260.267264,19.3842947 C259.978696,19.7765053 259.710061,20.1838737 259.468006,20.6101895 C258.196975,21.2326105 256.774066,21.5916632 255.265726,21.5916632 C253.757386,21.5916632 252.335427,21.2326105 251.063447,20.6101895 C250.822341,20.1838737 250.552757,19.7765053 250.264188,19.3842947 C250.552757,18.9911368 250.821391,18.5837684 251.063447,18.1584 C252.335427,17.5359789 253.757386,17.1759789 255.265726,17.1759789 M249.735462,26.7425053 C249.735462,28.1673474 249.413671,29.5164 248.850772,30.7318737 C248.45494,30.9696632 248.073346,31.2264 247.707889,31.5039789 C247.342432,31.2264 246.960838,30.9696632 246.565006,30.7318737 C246.003056,29.5164 245.680315,28.1673474 245.680315,26.7425053 C245.680315,25.3167158 246.003056,23.9695579 246.565006,22.7521895 C246.960838,22.5153474 247.342432,22.2586105 247.707889,21.9810316 C248.074295,22.2586105 248.45494,22.5153474 248.850772,22.7521895 C249.413671,23.9695579 249.735462,25.3167158 249.735462,26.7425053 M237.308031,24.1978737 C238.223097,24.4110316 239.171386,24.5351368 240.151001,24.5351368 C241.129665,24.5351368 242.077955,24.4110316 242.993021,24.1978737 C242.823107,25.0201895 242.731031,25.8699789 242.731031,26.7425053 C242.731031,27.6140842 242.823107,28.4657684 242.993021,29.2871368 C242.077955,29.0739789 241.129665,28.9498737 240.151001,28.9498737 C239.171386,28.9498737 238.223097,29.0739789 237.308031,29.2871368 C237.477945,28.4657684 237.570021,27.6140842 237.570021,26.7425053 C237.570021,25.8699789 237.477945,25.0201895 237.308031,24.1978737 M263.328559,31.8961895 C263.16529,31.7578737 262.993478,31.6318737 262.823564,31.5039789 C262.458107,31.2264 262.076513,30.9696632 261.680681,30.7318737 C260.585259,30.0781895 259.386371,29.5846105 258.108696,29.2871368 C257.19363,29.0739789 256.245341,28.9498737 255.265726,28.9498737 C254.287061,28.9498737 253.338772,29.0739789 252.423706,29.2871368 C252.59362,28.4657684 252.684747,27.6140842 252.684747,26.7425053 C252.684747,25.8699789 252.59362,25.0201895 252.423706,24.1978737 C253.338772,24.4110316 254.287061,24.5351368 255.265726,24.5351368 C256.245341,24.5351368 257.19363,24.4110316 258.108696,24.1978737 C259.386371,23.9004 260.585259,23.4077684 261.680681,22.7521895 C262.076513,22.5153474 262.458107,22.2586105 262.823564,21.9810316 C262.994427,21.8521895 263.16529,21.7252421 263.328559,21.5897684 C263.928478,21.0848211 264.481884,20.5268211 264.977386,19.9205053 C264.732483,19.7509263 264.493275,19.5737684 264.264508,19.3842947 C264.493275,19.1948211 264.732483,19.0157684 264.977386,18.8471368 C264.481884,18.2408211 263.928478,17.6828211 263.328559,17.1788211 C263.16529,17.0405053 262.994427,16.9145053 262.823564,16.7866105 C262.458107,16.5090316 262.076513,16.2513474 261.680681,16.0145053 C260.585259,15.3598737 259.386371,14.8672421 258.108696,14.5697684 C257.19363,14.3556632 256.245341,14.2325053 255.265726,14.2325053 C254.287061,14.2325053 253.338772,14.3556632 252.423706,14.5697684 C252.59362,13.7484 252.684747,12.8967158 252.684747,12.0251368 C252.684747,9.03334737 251.625396,6.28503158 249.86266,4.12976842 C249.231417,3.35766316 248.503351,2.67082105 247.707889,2.06734737 C246.912427,2.66987368 246.18531,3.35766316 245.554066,4.12976842 C243.79133,6.28503158 242.731031,9.03334737 242.731031,12.0251368 C242.731031,12.8967158 242.823107,13.7484 242.993021,14.5697684 C242.077955,14.3556632 241.129665,14.2325053 240.151001,14.2325053 C239.171386,14.2325053 238.223097,14.3556632 237.308031,14.5697684 C237.477945,13.7484 237.570021,12.8967158 237.570021,12.0251368 C237.570021,9.03334737 236.509721,6.28503158 234.746985,4.12976842 C234.115742,3.35766316 233.388625,2.67082105 232.593163,2.06734737 C231.796752,2.66987368 231.069635,3.35766316 230.438391,4.12976842 C228.675655,6.28503158 227.616305,9.03334737 227.616305,12.0251368 C227.616305,12.8967158 227.707432,13.7484 227.877346,14.5697684 C226.96228,14.3556632 226.01399,14.2325053 225.035325,14.2325053 C221.965488,14.2325053 219.153843,15.3437684 216.972493,17.1788211 C216.201711,17.8268211 215.516361,18.5705053 214.921188,19.3842947 C215.516361,20.1971368 216.201711,20.9408211 216.972493,21.5897684 C219.153843,23.4229263 221.965488,24.5351368 225.035325,24.5351368 C226.01399,24.5351368 226.96228,24.4110316 227.877346,24.1978737 C227.707432,25.0201895 227.616305,25.8699789 227.616305,26.7425053 C227.616305,27.6140842 227.707432,28.4657684 227.877346,29.2871368 C226.96228,29.0739789 226.01399,28.9498737 225.035325,28.9498737 C221.965488,28.9498737 219.153843,30.0611368 216.972493,31.8961895 C216.200762,32.5441895 215.516361,33.2888211 214.921188,34.1016632 C215.516361,34.9145053 216.201711,35.6581895 216.972493,36.3071368 C219.153843,38.1421895 221.965488,39.2525053 225.035325,39.2525053 C226.01399,39.2525053 226.96228,39.1293474 227.877346,38.9152421 C227.707432,39.7375579 227.616305,40.5882947 227.616305,41.4598737 C227.616305,44.4526105 228.675655,47.1999789 230.438391,49.3552421 C231.069635,50.1273474 231.796752,50.8141895 232.593163,51.4176632 C233.388625,50.8141895 234.115742,50.1273474 234.746985,49.3552421 C236.509721,47.1999789 237.570021,44.4526105 237.570021,41.4598737 C237.570021,40.5882947 237.477945,39.7375579 237.308031,38.9152421 C238.223097,39.1293474 239.171386,39.2525053 240.151001,39.2525053 C241.129665,39.2525053 242.077955,39.1293474 242.993021,38.9152421 C242.823107,39.7375579 242.731031,40.5882947 242.731031,41.4598737 C242.731031,44.4526105 243.79133,47.1999789 245.554066,49.3552421 C246.18531,50.1273474 246.912427,50.8141895 247.707889,51.4176632 C248.503351,50.8141895 249.231417,50.1273474 249.86266,49.3552421 C251.625396,47.1999789 252.684747,44.4526105 252.684747,41.4598737 C252.684747,40.5882947 252.59362,39.7375579 252.423706,38.9152421 C253.338772,39.1293474 254.287061,39.2525053 255.265726,39.2525053 C256.245341,39.2525053 257.19363,39.1293474 258.108696,38.9152421 C259.386371,38.6187158 260.585259,38.1251368 261.680681,37.4705053 C262.076513,37.2336632 262.457158,36.9759789 262.823564,36.6993474 C262.994427,36.5695579 263.16529,36.4445053 263.328559,36.3071368 C263.928478,35.8021895 264.481884,35.2441895 264.977386,34.6369263 C265.119772,34.4645053 265.247919,34.2807158 265.379863,34.1007158 C265.247919,33.9207158 265.119772,33.7369263 264.977386,33.5645053 C264.481884,32.9591368 263.928478,32.4011368 263.328559,31.8961895" id="Fill-64" fill="#ECBF79" mask="url(#mask-2)"></path>
                    <polygon id="Fill-65" fill="#ECBF79" mask="url(#mask-2)" points="350.670279 0.972378947 345.648807 0.972378947 348.159543 3.47911579"></polygon>
                    <polygon id="Fill-66" fill="#97B78E" mask="url(#mask-2)" points="370.754933 41.0625474 368.244197 38.5567579 365.733461 36.0519158 363.222725 33.5451789 360.711989 31.0403368 358.201253 28.5345474 355.691466 26.0287579 358.201253 23.5229684 360.711989 21.0181263 363.222725 18.5113895 365.733461 16.0065474 368.244197 13.5007579 370.754933 10.9949684 373.265669 8.48917895 373.265669 3.47854737 370.754933 5.98433684 368.244197 8.48917895 365.733461 10.9949684 363.222725 13.5007579 360.711989 16.0065474 358.201253 18.5113895 355.691466 21.0181263 353.18073 23.5229684 350.669994 26.0287579 353.18073 28.5345474 355.691466 31.0403368 358.201253 33.5451789 360.711989 36.0519158 363.222725 38.5567579 365.733461 41.0625474 368.244197 43.5683368 370.754933 46.0741263 373.265669 48.5799158 373.265669 43.5683368"></polygon>
                    <polygon id="Fill-67" fill="#97B78E" mask="url(#mask-2)" points="365.733366 46.0741263 363.22263 43.5673895 360.711894 41.0625474 358.201158 38.5567579 355.691371 36.0519158 353.180635 33.5451789 350.669899 31.0403368 348.159163 28.5345474 345.648427 31.0403368 343.13864 33.5451789 340.627904 36.0519158 338.117168 38.5567579 335.606432 41.0625474 333.095696 43.5673895 330.585909 46.0741263 328.075173 48.5799158 325.564437 51.0847579 330.585909 51.0847579 333.095696 48.5799158 335.606432 46.0741263 338.117168 43.5673895 340.627904 41.0625474 343.13864 38.5567579 345.648427 36.0519158 348.159163 33.5451789 350.669899 36.0519158 353.180635 38.5567579 355.691371 41.0625474 358.201158 43.5673895 360.711894 46.0741263 363.22263 48.5799158 365.733366 51.0847579 370.754838 51.0847579 368.244102 48.5799158"></polygon>
                    <polygon id="Fill-68" fill="#ECBF79" mask="url(#mask-2)" points="373.265194 28.5348316 373.265194 23.5232526 370.754458 26.0280947"></polygon>
                    <polygon id="Fill-69" fill="#ECBF79" mask="url(#mask-2)" points="340.627714 5.98395789 343.13845 8.48974737 345.649186 10.9945895 348.159922 13.5013263 350.670658 10.9945895 353.180445 8.48974737 355.691181 5.98395789 358.201917 3.47816842 360.712653 0.972378947 355.691181 0.972378947 353.180445 3.47816842 350.670658 5.98395789 348.159922 8.48974737 345.649186 5.98395789 343.13845 3.47816842 340.627714 0.972378947 335.606242 0.972378947 338.116978 3.47816842"></polygon>
                    <polygon id="Fill-70" fill="#ECBF79" mask="url(#mask-2)" points="368.244102 18.5115789 365.733366 21.0183158 363.22263 23.5231579 360.711894 26.0289474 363.22263 28.5347368 365.733366 31.0405263 368.244102 33.5453684 370.754838 36.0521053 373.265574 38.5569474 373.265574 33.5453684 370.754838 31.0405263 368.244102 28.5347368 365.733366 26.0289474 368.244102 23.5231579 370.754838 21.0183158 373.265574 18.5115789 373.265574 13.5009474 370.754838 16.0057895"></polygon>
                    <polygon id="Fill-71" fill="#ECBF79" mask="url(#mask-2)" points="355.691276 46.0741263 353.18054 43.5673895 350.669804 41.0625474 348.159068 38.5567579 345.648332 41.0625474 343.138545 43.5673895 340.627809 46.0741263 338.117073 48.5799158 335.606337 51.0847579 340.627809 51.0847579 343.138545 48.5799158 345.648332 46.0741263 348.159068 43.5673895 350.669804 46.0741263 353.18054 48.5799158 355.691276 51.0847579 360.712748 51.0847579 358.202012 48.5799158"></polygon>
                    <polygon id="Fill-72" fill="#97B78E" mask="url(#mask-2)" points="328.074888 43.5678632 330.585624 41.0620737 333.09636 38.5572316 335.607096 36.0514421 338.117832 33.5456526 340.627619 31.0398632 343.138355 28.5350211 345.649091 26.0282842 343.138355 23.5234421 340.627619 21.0176526 338.117832 18.5118632 335.607096 16.0060737 333.09636 13.5012316 330.585624 10.9944947 328.074888 8.48965263 325.564152 5.98386316 323.053416 3.47902105 323.053416 8.48965263 325.564152 10.9944947 328.074888 13.5012316 330.585624 16.0060737 333.09636 18.5118632 335.607096 21.0176526 338.117832 23.5234421 340.627619 26.0282842 338.117832 28.5350211 335.607096 31.0398632 333.09636 33.5456526 330.585624 36.0514421 328.074888 38.5572316 325.564152 41.0620737 323.053416 43.5678632 323.053416 48.5794421 325.564152 46.0746"></polygon>
                    <polygon id="Fill-73" fill="#ECBF79" mask="url(#mask-2)" points="328.074888 33.5455579 330.585624 31.0397684 333.09636 28.5349263 335.607096 26.0281895 333.09636 23.5233474 330.585624 21.0175579 328.074888 18.5117684 325.564152 16.0059789 323.053416 13.5011368 323.053416 18.5117684 325.564152 21.0175579 328.074888 23.5233474 330.585624 26.0281895 328.074888 28.5349263 325.564152 31.0397684 323.053416 33.5455579 323.053416 38.5571368 325.564152 36.0522947"></polygon>
                    <polygon id="Fill-74" fill="#ECBF79" mask="url(#mask-2)" points="345.648712 51.0848526 350.670184 51.0848526 348.159448 48.5790632"></polygon>
                    <polygon id="Fill-75" fill="#ECBF79" mask="url(#mask-2)" points="323.053796 23.5232526 323.053796 28.5348316 325.564532 26.0290421"></polygon>
                    <polygon id="Fill-76" fill="#97B78E" mask="url(#mask-2)" points="330.585624 5.98395789 333.09636 8.48974737 335.607096 10.9945895 338.117832 13.5013263 340.627619 16.0061684 343.138355 18.5119579 345.649091 21.0177474 348.159827 23.5235368 350.670563 21.0177474 353.18035 18.5119579 355.691086 16.0061684 358.201822 13.5013263 360.712558 10.9945895 363.223294 8.48974737 365.733081 5.98395789 368.243817 3.47816842 370.754553 0.972378947 365.733081 0.972378947 363.223294 3.47816842 360.712558 5.98395789 358.201822 8.48974737 355.691086 10.9945895 353.18035 13.5013263 350.670563 16.0061684 348.159827 18.5119579 345.649091 16.0061684 343.138355 13.5013263 340.627619 10.9945895 338.117832 8.48974737 335.607096 5.98395789 333.09636 3.47816842 330.585624 0.972378947 325.564152 0.972378947 328.074888 3.47816842"></polygon>
                    <polygon id="Fill-77" fill="#ECBF79" mask="url(#mask-2)" points="53.4971878 16.0730526 53.5161726 16.0730526 53.5161726 0.442421053 53.4971878 0.442421053"></polygon>
                    <polygon id="Fill-78" fill="#ECBF79" mask="url(#mask-2)" points="63.6748289 38.0742632 63.6748289 40.4853158 78.1440726 40.4853158 78.1440726 26.2113158 63.6748289 26.2113158"></polygon>
                    <polygon id="Fill-79" fill="#ECBF79" mask="url(#mask-2)" points="63.6748289 0.442231579 63.6748289 16.0728632 88.3123162 16.0728632 88.3123162 26.2106526 88.3028239 26.2106526 88.3028239 40.4856 103.808636 40.4856 103.808636 0.442231579"></polygon>
                    <polygon id="Fill-80" fill="#ECBF79" mask="url(#mask-2)" points="88.3029188 50.6538947 103.808731 50.6538947 103.808731 50.6235789 88.3029188 50.6235789"></polygon>
                    <polygon id="Fill-81" fill="#97B78E" mask="url(#mask-2)" points="53.5161726 0.442421053 63.6749239 0.442421053 63.6749239 0.422526316 53.5161726 0.422526316"></polygon>
                    <polygon id="Fill-82" fill="#97B78E" mask="url(#mask-2)" points="53.5161726 16.0730526 63.6749239 16.0730526 63.6749239 0.442421053 53.5161726 0.442421053"></polygon>
                    <polygon id="Fill-83" fill="#97B78E" mask="url(#mask-2)" points="103.807782 50.6235789 103.815376 50.6235789 103.815376 40.4848421 103.807782 40.4848421"></polygon>
                    <polygon id="Fill-84" fill="#97B78E" mask="url(#mask-2)" points="70.7454223 45.0564632 70.7454223 45.1227789 70.8109198 45.1227789"></polygon>
                    <path d="M87.169433,45.1230632 L87.169433,44.8776947 L87.4124381,45.1230632 L87.169433,45.1230632 Z M88.3028239,40.4847474 L78.1440726,40.4847474 L63.6748289,40.4847474 L63.6748289,38.0746421 L63.6748289,26.2107474 L53.5160777,26.2107474 L53.4970929,26.2107474 L53.4970929,50.6547474 L78.1440726,50.6547474 L103.808636,50.6244316 L103.808636,40.4847474 L88.3028239,40.4847474 Z" id="Fill-85" fill="#97B78E" mask="url(#mask-2)"></path>
                    <polygon id="Fill-86" fill="#97B78E" mask="url(#mask-2)" points="87.4122482 45.1230632 87.1692431 44.8776947 87.1692431 45.1230632"></polygon>
                </g>
            </g>
        </g>
    </g>
</svg>