<?xml version="1.0" encoding="UTF-8"?>
<svg width="13px" height="22px" viewBox="0 0 13 22" version="1.1" xmlns="http://www.w3.org/2000/svg" xmlns:xlink="http://www.w3.org/1999/xlink">
    <!-- Generator: Sketch 63.1 (92452) - https://sketch.com -->
    <title>question (2)</title>
    <desc>Created with Sketch.</desc>
    <g id="UI" stroke="none" stroke-width="1" fill="none" fill-rule="evenodd">
        <g id="Mi-Cuenta" transform="translate(-30.000000, -562.000000)" fill="#FFFFFF" fill-rule="nonzero">
            <g id="Group-2-Copy-6" transform="translate(20.000000, 557.000000)">
                <g id="question-(2)" transform="translate(10.000000, 5.000000)">
                    <path d="M6.17977528,19.5280899 C5.53384024,19.5280899 4.91499883,20.0965576 4.94485878,20.7640449 C4.97480009,21.4336495 5.48746374,22 6.17977528,22 C6.82571033,22 7.44455174,21.4315323 7.41469178,20.7640449 C7.38475047,20.0943589 6.87208682,19.5280899 6.17977528,19.5280899 Z" id="Path"></path>
                    <path d="M6.30337079,0 C2.82768971,0 0,2.83145877 0,6.31177262 C0,7.01236559 0.567274156,7.58039587 1.26693454,7.58039587 C1.96659492,7.58039587 2.53386908,7.01236559 2.53386908,6.31177262 C2.53386908,4.23055514 4.22492369,2.5372465 6.30337079,2.5372465 C8.38181788,2.5372465 10.0728725,4.23055514 10.0728725,6.31177262 C10.0728725,8.39299011 8.38181788,10.0862987 6.30337079,10.0862987 C5.6037104,10.0862987 5.03643625,10.654329 5.03643625,11.354922 L5.03643625,16.5291296 C5.03643625,17.2297225 5.6037104,17.7977528 6.30337079,17.7977528 C7.00303117,17.7977528 7.57030533,17.2298061 7.57030533,16.529046 L7.57030533,12.4954125 C10.4408161,11.90657 12.6067416,9.35770546 12.6067416,6.31177262 C12.6067416,2.83145877 9.77905186,0 6.30337079,0 Z" id="Path"></path>
                </g>
            </g>
        </g>
    </g>
</svg>