<?xml version="1.0" encoding="UTF-8"?>
<svg width="21px" height="22px" viewBox="0 0 21 22" version="1.1" xmlns="http://www.w3.org/2000/svg" xmlns:xlink="http://www.w3.org/1999/xlink">
    <!-- Generator: Sketch 63.1 (92452) - https://sketch.com -->
    <title>list</title>
    <desc>Created with Sketch.</desc>
    <g id="UI" stroke="none" stroke-width="1" fill="none" fill-rule="evenodd">
        <g id="Mi-Cuenta" transform="translate(-26.000000, -258.000000)" fill="#FFFFFF" fill-rule="nonzero">
            <g id="Group-2-Copy-7" transform="translate(20.000000, 253.000000)">
                <g id="list" transform="translate(6.000000, 5.000000)">
                    <path d="M3.07102041,6.08816327 C4.75020408,6.08816327 6.11510204,4.72326531 6.11510204,3.04408163 C6.11510204,1.36489796 4.75020408,0 3.07102041,0 C1.39183673,0 0.0269387755,1.36489796 0.0269387755,3.04408163 C0.0314285714,4.72326531 1.39632653,6.08816327 3.07102041,6.08816327 Z M3.07102041,1.54 C3.90163265,1.54 4.57510204,2.21346939 4.57510204,3.04408163 C4.57510204,3.87469388 3.90163265,4.54816327 3.07102041,4.54816327 C2.24489796,4.54816327 1.57142857,3.87469388 1.57142857,3.04408163 C1.57142857,2.21346939 2.24489796,1.54 3.07102041,1.54 Z" id="Shape"></path>
                    <path d="M3.07102041,14.0440816 C4.75020408,14.0440816 6.11510204,12.6791837 6.11510204,11 C6.11510204,9.32081633 4.75020408,7.95591837 3.07102041,7.95591837 C1.39183673,7.95591837 0.0269387755,9.32081633 0.0269387755,11 C0.0314285714,12.6791837 1.39632653,14.0440816 3.07102041,14.0440816 Z M3.07102041,9.49591837 C3.90163265,9.49591837 4.57510204,10.1693878 4.57510204,11 C4.57510204,11.8306122 3.90163265,12.5040816 3.07102041,12.5040816 C2.24489796,12.5040816 1.57142857,11.8306122 1.57142857,11 C1.57142857,10.1693878 2.24489796,9.49591837 3.07102041,9.49591837 Z" id="Shape"></path>
                    <path d="M3.07102041,22 C4.75020408,22 6.11510204,20.635102 6.11510204,18.9559184 C6.11510204,17.2767347 4.75020408,15.9118367 3.07102041,15.9118367 C1.39183673,15.9118367 0.0269387755,17.2767347 0.0269387755,18.9559184 C0.0314285714,20.635102 1.39632653,22 3.07102041,22 Z M3.07102041,17.4518367 C3.90163265,17.4518367 4.57510204,18.1253061 4.57510204,18.9559184 C4.57510204,19.7865306 3.90163265,20.46 3.07102041,20.46 C2.24040816,20.46 1.56693878,19.7865306 1.56693878,18.9559184 C1.57142857,18.1253061 2.24489796,17.4518367 3.07102041,17.4518367 Z" id="Shape"></path>
                    <path d="M7.90204082,2.90040816 C7.90204082,3.32693878 8.2477551,3.67265306 8.67428571,3.67265306 L19.4946939,3.67265306 C19.9212245,3.67265306 20.2669388,3.32693878 20.2669388,2.90040816 C20.2669388,2.47387755 19.9212245,2.12816327 19.4946939,2.12816327 L8.67428571,2.12816327 C8.2477551,2.12816327 7.90204082,2.47387755 7.90204082,2.90040816 Z" id="Path"></path>
                    <path d="M8.52612245,11.7677551 L19.3465306,11.7677551 C19.7730612,11.7677551 20.1187755,11.4220408 20.1187755,11 C20.1187755,10.5734694 19.7730612,10.2277551 19.3465306,10.2277551 L8.52612245,10.2277551 C8.09959184,10.2277551 7.75836735,10.5734694 7.75836735,11 C7.75836735,11.4265306 8.09959184,11.7677551 8.52612245,11.7677551 Z" id="Path"></path>
                    <path d="M8.52612245,19.7281633 L19.3465306,19.7281633 C19.7730612,19.7281633 20.1187755,19.382449 20.1187755,18.9604082 C20.1187755,18.5383673 19.7730612,18.1881633 19.3465306,18.1881633 L8.52612245,18.1881633 C8.09959184,18.1881633 7.75836735,18.5338776 7.75836735,18.9604082 C7.75836735,19.3869388 8.09959184,19.7281633 8.52612245,19.7281633 Z" id="Path"></path>
                </g>
            </g>
        </g>
    </g>
</svg>