<?xml version="1.0" encoding="UTF-8"?>
<svg width="19px" height="22px" viewBox="0 0 19 22" version="1.1" xmlns="http://www.w3.org/2000/svg" xmlns:xlink="http://www.w3.org/1999/xlink">
    <!-- Generator: Sketch 63.1 (92452) - https://sketch.com -->
    <title>bell</title>
    <desc>Created with Sketch.</desc>
    <g id="UI" stroke="none" stroke-width="1" fill="none" fill-rule="evenodd">
        <g id="Mi-Cuenta" transform="translate(-27.000000, -478.000000)" fill="#FFFFFF" fill-rule="nonzero">
            <g id="Group-2-Copy-2" transform="translate(20.000000, 473.000000)">
                <g id="bell" transform="translate(7.000000, 5.000000)">
                    <path d="M9.16661071,22 C7.27095033,22 5.72911071,20.4581604 5.72911071,18.5625 C5.72911071,18.1829987 6.03710938,17.875 6.41661071,17.875 C6.79611204,17.875 7.10411071,18.1829987 7.10411071,18.5625 C7.10411071,19.7001648 8.02911377,20.625 9.16661071,20.625 C10.3042755,20.625 11.2291107,19.7001648 11.2291107,18.5625 C11.2291107,18.1829987 11.5371094,17.875 11.9166107,17.875 C12.296112,17.875 12.6041107,18.1829987 12.6041107,18.5625 C12.6041107,20.4581604 11.0622711,22 9.16661071,22 L9.16661071,22 Z" id="Path"></path>
                    <path d="M16.7291107,19.25 L1.60411071,19.25 C0.719558727,19.25 -1.22124533e-15,18.5304413 -1.22124533e-15,17.6458893 C-1.22124533e-15,17.1764221 0.204437234,16.7319641 0.560943625,16.426651 C1.95524596,15.248703 2.75,13.536499 2.75,11.7224121 L2.75,9.16661071 C2.75,5.6284027 5.6284027,2.75 9.16661071,2.75 C12.7049866,2.75 15.5833893,5.6284027 15.5833893,9.16661071 L15.5833893,11.7224121 C15.5833893,13.536499 16.3781433,15.248703 17.7632141,16.4202728 C18.128952,16.7319641 18.3333893,17.1764221 18.3333893,17.6458893 C18.3333893,18.5304413 17.6138306,19.25 16.7291107,19.25 Z M9.16661071,4.125 C6.3863983,4.125 4.125,6.3863983 4.125,9.16661071 L4.125,11.7224121 C4.125,13.9415131 3.15249636,16.0370788 1.45758057,17.4698181 C1.425354,17.497345 1.375,17.554245 1.375,17.6458893 C1.375,17.7704315 1.47956849,17.875 1.60411071,17.875 L16.7291107,17.875 C16.8538208,17.875 16.9583893,17.7704315 16.9583893,17.6458893 C16.9583893,17.554245 16.9078675,17.497345 16.877655,17.4716644 C15.1808929,16.0370788 14.2083893,13.9415131 14.2083893,11.7224121 L14.2083893,9.16661071 C14.2083893,6.3863983 11.9469909,4.125 9.16661071,4.125 Z" id="Shape"></path>
                    <path d="M9.16661071,4.125 C8.78710938,4.125 8.47911071,3.81700133 8.47911071,3.4375 L8.47911071,0.6875 C8.47911071,0.307998668 8.78710938,0 9.16661071,0 C9.54611204,0 9.85411071,0.307998668 9.85411071,0.6875 L9.85411071,3.4375 C9.85411071,3.81700133 9.54611204,4.125 9.16661071,4.125 Z" id="Path"></path>
                </g>
            </g>
        </g>
    </g>
</svg>