<?xml version="1.0" encoding="UTF-8"?>
<svg width="20px" height="22px" viewBox="0 0 20 22" version="1.1" xmlns="http://www.w3.org/2000/svg" xmlns:xlink="http://www.w3.org/1999/xlink">
    <!-- Generator: Sketch 63.1 (92452) - https://sketch.com -->
    <title>writing</title>
    <desc>Created with Sketch.</desc>
    <g id="UI" stroke="none" stroke-width="1" fill="none" fill-rule="evenodd">
        <g id="Mi-Cuenta" transform="translate(-26.000000, -520.000000)" fill="#FFFFFF" fill-rule="nonzero">
            <g id="Group-2-Copy-3" transform="translate(20.000000, 515.000000)">
                <g id="writing" transform="translate(6.000000, 5.000000)">
                    <path d="M14.0275352,9.453125 C14.0275352,8.97849219 13.642793,8.59375 13.1681602,8.59375 L4.31659766,8.59375 C3.84196484,8.59375 3.45722266,8.97849219 3.45722266,9.453125 C3.45722266,9.92775781 3.84196484,10.3125 4.31659766,10.3125 L13.1681602,10.3125 C13.642793,10.3125 14.0275352,9.92775781 14.0275352,9.453125 Z" id="Path"></path>
                    <path d="M4.31659766,12.03125 C3.84196484,12.03125 3.45722266,12.4159922 3.45722266,12.890625 C3.45722266,13.3652578 3.84196484,13.75 4.31659766,13.75 L9.69246094,13.75 C10.1670937,13.75 10.5518359,13.3652578 10.5518359,12.890625 C10.5518359,12.4159922 10.1670937,12.03125 9.69246094,12.03125 L4.31659766,12.03125 Z" id="Path"></path>
                    <path d="M6.33612891,20.28125 L3.46199219,20.28125 C2.51427344,20.28125 1.74324219,19.5102187 1.74324219,18.5625 L1.74324219,3.4375 C1.74324219,2.48978125 2.51427344,1.71875 3.46199219,1.71875 L14.0275352,1.71875 C14.9752539,1.71875 15.7462852,2.48978125 15.7462852,3.4375 L15.7462852,8.72265625 C15.7462852,9.19728906 16.1310273,9.58203125 16.6056602,9.58203125 C17.080293,9.58203125 17.4650352,9.19728906 17.4650352,8.72265625 L17.4650352,3.4375 C17.4650352,1.5420625 15.9229727,0 14.0275352,0 L3.46199219,0 C1.56655469,0 0.0244921875,1.5420625 0.0244921875,3.4375 L0.0244921875,18.5625 C0.0244921875,20.4579375 1.56655469,22 3.46199219,22 L6.33612891,22 C6.81076172,22 7.19550391,21.6152578 7.19550391,21.140625 C7.19550391,20.6659922 6.81076172,20.28125 6.33612891,20.28125 Z" id="Path"></path>
                    <path d="M18.9872031,12.4425469 C17.9819922,11.4373359 16.3464297,11.437293 15.3418633,12.4418594 L10.6237656,17.1495156 C10.5235625,17.2495039 10.4496563,17.3726523 10.4084922,17.5080898 L9.38098047,20.8908047 C9.28988672,21.1907266 9.36925,21.5163867 9.58813281,21.7407266 C9.75210156,21.9087773 9.97485156,22 10.2033164,22 C10.2797578,22 10.3569297,21.9897734 10.4326836,21.9687617 L13.9013359,21.0079375 C14.0440781,20.9684063 14.1741875,20.8926523 14.2790313,20.7879805 L18.9872461,16.0886172 C19.992457,15.0834062 19.992457,13.4478437 18.9872031,12.4425469 Z M13.22475,19.4119062 L11.4797031,19.8953047 L11.9903867,18.2139805 L15.1738984,15.0375156 L16.3894844,16.2531016 L13.22475,19.4119062 Z M17.7725195,14.8727734 L17.6060156,15.0389336 L16.3906445,13.8235625 L16.5565898,13.6579609 C16.8916602,13.3228906 17.4368477,13.3228906 17.771918,13.6579609 C18.1069883,13.9930312 18.1069883,14.5382187 17.7725195,14.8727734 Z" id="Shape"></path>
                    <path d="M13.1681602,5.15625 L4.31659766,5.15625 C3.84196484,5.15625 3.45722266,5.54099219 3.45722266,6.015625 C3.45722266,6.49025781 3.84196484,6.875 4.31659766,6.875 L13.1681602,6.875 C13.642793,6.875 14.0275352,6.49025781 14.0275352,6.015625 C14.0275352,5.54099219 13.642793,5.15625 13.1681602,5.15625 Z" id="Path"></path>
                </g>
            </g>
        </g>
    </g>
</svg>