<?xml version="1.0" encoding="UTF-8"?>
<svg width="25px" height="25px" viewBox="0 0 25 25" version="1.1" xmlns="http://www.w3.org/2000/svg" xmlns:xlink="http://www.w3.org/1999/xlink">
    <!-- Generator: Sketch 63.1 (92452) - https://sketch.com -->
    <title>Group 6</title>
    <desc>Created with Sketch.</desc>
    <defs>
        <polygon id="path-1" points="0 0.152666667 24.834 0.152666667 24.834 23.3326667 0 23.3326667"></polygon>
        <polygon id="path-3" points="0 24.0139167 24.8341667 24.0139167 24.8341667 0.833083333 0 0.833083333"></polygon>
    </defs>
    <g id="UI" stroke="none" stroke-width="1" fill="none" fill-rule="evenodd">
        <g id="Mi-Cuenta" transform="translate(-316.000000, -625.000000)">
            <g id="Group" transform="translate(0.000000, 617.000000)">
                <g id="Tab-4" transform="translate(282.000000, 0.000000)">
                    <g id="Group-6" transform="translate(34.000000, 8.000000)">
                        <g id="Group-3" transform="translate(0.000000, 0.680583)">
                            <mask id="mask-2" fill="white">
                                <use xlink:href="#path-1"></use>
                            </mask>
                            <g id="Clip-2"></g>
                            <path d="M20.8706667,22.0618333 L20.8706667,12.2185 C20.8706667,11.8676667 20.5856667,11.5826667 20.234,11.5826667 L14.1156667,11.5826667 C13.7631667,11.5826667 13.4798333,11.8676667 13.4798333,12.2185 L13.4798333,22.0618333 L1.80483333,22.0618333 L1.80483333,9.751 L23.0281667,9.751 L23.0281667,22.0618333 L20.8706667,22.0618333 Z M14.7515,22.0618333 L19.5981667,22.0618333 L19.5981667,12.8551667 L14.7515,12.8551667 L14.7515,22.0618333 Z M3.349,2.02016667 C3.51483333,1.6585 3.87983333,1.42516667 4.279,1.42516667 L20.4506667,1.42516667 C20.8498333,1.42516667 21.214,1.6585 21.3815,2.02016667 L22.8706667,5.2485 L1.859,5.2485 L3.349,2.02016667 Z M1.2715,7.59016667 L23.5615,7.59016667 L23.5615,6.52016667 L1.2715,6.52016667 L1.2715,7.59016667 Z M24.279,5.26516667 L22.5365,1.4885 C22.1631667,0.676833333 21.344,0.152666667 20.4506667,0.152666667 L4.279,0.152666667 C3.38566667,0.152666667 2.5665,0.676833333 2.19316667,1.4885 L0.439,5.28766667 C0.1865,5.37266667 -0.000166666667,5.6035 -0.000166666667,5.88516667 L-0.000166666667,8.226 C-0.000166666667,8.541 0.232333333,8.79016667 0.532333333,8.84183333 L0.532333333,22.6968333 C0.532333333,23.0485 0.818166667,23.3326667 1.169,23.3326667 L14.1156667,23.3326667 L20.234,23.3326667 L23.664,23.3326667 C24.0148333,23.3326667 24.2998333,23.0485 24.2998333,22.6968333 L24.2998333,8.84183333 C24.6015,8.791 24.834,8.54183333 24.834,8.226 L24.834,5.88516667 C24.834,5.56183333 24.5906667,5.30683333 24.279,5.26516667 L24.279,5.26516667 Z" id="Fill-1" fill="#9096A0" mask="url(#mask-2)"></path>
                        </g>
                        <mask id="mask-4" fill="white">
                            <use xlink:href="#path-3"></use>
                        </mask>
                        <g id="Clip-5"></g>
                        <path d="M4.35083333,19.7555833 L9.85833333,19.7555833 L9.85833333,13.5355833 L4.35083333,13.5355833 L4.35083333,19.7555833 Z M10.495,12.2630833 L3.71583333,12.2630833 C3.36416667,12.2630833 3.07916667,12.5480833 3.07916667,12.89975 L3.07916667,20.3914167 C3.07916667,20.7430833 3.36416667,21.02725 3.71583333,21.02725 L10.495,21.02725 C10.8466667,21.02725 11.1308333,20.7430833 11.1308333,20.3914167 L11.1308333,12.89975 C11.1308333,12.5480833 10.8466667,12.2630833 10.495,12.2630833 L10.495,12.2630833 Z" id="Fill-4" fill="#9096A0" mask="url(#mask-4)"></path>
                    </g>
                </g>
            </g>
        </g>
    </g>
</svg>