<?xml version="1.0" encoding="UTF-8"?>
<svg width="120px" height="120px" viewBox="0 0 120 120" version="1.1" xmlns="http://www.w3.org/2000/svg" xmlns:xlink="http://www.w3.org/1999/xlink">
    <!-- Generator: Sketch 63.1 (92452) - https://sketch.com -->
    <title>meeting-point</title>
    <desc>Created with Sketch.</desc>
    <g id="UI" stroke="none" stroke-width="1" fill="none" fill-rule="evenodd">
        <g id="Splash-1" transform="translate(-128.000000, -133.000000)" fill-rule="nonzero">
            <g id="meeting-point" transform="translate(128.000000, 133.000000)">
                <path d="M59.9702344,0 C40.9589063,0 25.4922656,15.466875 25.4922656,34.4779688 C25.4922656,42.380625 28.2271875,50.0852344 33.1992188,56.2059375 C33.23625,56.2633594 33.2760938,56.319375 33.31875,56.37375 L58.1226563,88.15125 C58.5667969,88.7203125 59.2483594,89.0528906 59.9702344,89.0528906 C60.6921094,89.0528906 61.3734375,88.7200781 61.8175781,88.1507813 L86.7405469,56.2061719 C86.7492188,56.1949219 86.7576563,56.1839063 86.7660938,56.1726563 C91.7200781,50.0596875 94.4477344,42.3588281 94.4477344,34.4779688 C94.4477344,15.466875 78.9815625,0 59.9702344,0 Z M83.0744531,53.28375 C83.0446875,53.3203125 83.0165625,53.3571094 82.989375,53.3948437 L59.9697656,82.9000781 L37.1824219,53.7063281 C37.1257031,53.61375 37.0619531,53.5244531 36.9916406,53.4391406 C32.5985156,48.121875 30.1792969,41.3880469 30.1792969,34.4779687 C30.1792969,18.0513281 43.5435938,4.68703125 59.9702344,4.68703125 C76.396875,4.68703125 89.7614063,18.0513281 89.7614063,34.4779687 C89.7614063,41.3142187 87.3864844,47.9929687 83.0744531,53.28375 Z" id="Shape" fill="#198B39"></path>
                <path d="M80.1982031,29.0060156 C79.831875,27.7645312 78.5285156,27.0553125 77.2872656,27.4214062 C76.0457813,27.7877344 75.3363281,29.0908594 75.7026563,30.3323437 C77.4063281,36.1075781 75.8226563,42.3375 71.5694531,46.5907031 C68.47125,49.6891406 64.3516406,51.3953906 59.97,51.3953906 C55.5883594,51.3953906 51.46875,49.6891406 48.3703125,46.5904687 C45.271875,43.4920312 43.565625,39.3726562 43.565625,34.9907812 C43.565625,30.6089062 45.271875,26.4892969 48.3705469,23.3910937 C52.6279688,19.1334375 58.8630469,17.5511719 64.6427344,19.2621094 C65.8842188,19.6298437 67.1878125,18.9213281 67.5550781,17.6803125 C67.9225781,16.4392969 67.2140625,15.1352344 65.9732813,14.7679687 C58.5445313,12.5690625 50.5298438,14.6034375 45.0564844,20.0767969 C41.0730469,24.0604687 38.8790625,29.3571094 38.8790625,34.9907812 C38.8790625,40.6244531 41.0728125,45.9208594 45.0564844,49.9045313 C49.0401563,53.8882031 54.3367969,56.0821875 59.9704688,56.0821875 C65.6041406,56.0821875 70.9005469,53.8882031 74.8842188,49.905 C80.3519531,44.4372656 82.3882031,36.4291406 80.1982031,29.0060156 Z" id="Path" fill="#35000B"></path>
                <path d="M74.9257031,20.1180469 L74.8842188,20.0763281 C73.96875,19.1610938 72.4849219,19.1610938 71.5699219,20.0763281 C70.6546875,20.9917969 70.6546875,22.475625 71.5699219,23.390625 L71.6114063,23.4323438 C72.0689063,23.8900781 72.6686719,24.1188281 73.2684375,24.1188281 C73.8682031,24.1188281 74.4679688,23.8900781 74.9257031,23.4323438 C75.8407031,22.5171094 75.8407031,21.0332813 74.9257031,20.1180469 Z" id="Path" fill="#35000B"></path>
                <path d="M96.001875,71.5558594 C94.7725781,71.1520313 93.4476563,71.8197656 93.043125,73.0492969 C92.6385938,74.2785938 93.3072656,75.6032813 94.5365625,76.0080469 C107.542031,80.2877344 115.306172,86.7 115.306172,93.1605469 C115.306172,98.6233594 109.672031,104.150859 99.8479688,108.325078 C89.2425,112.831406 75.0909375,115.313203 59.9997656,115.313203 C44.9085938,115.313203 30.7570313,112.831406 20.1515625,108.325078 C10.3277344,104.150859 4.69335938,98.6235937 4.69335938,93.1605469 C4.69335938,88.5855469 8.63929688,83.9383594 15.8046094,80.0744531 C23.3751563,75.991875 34.0966406,73.0352344 45.99375,71.7492188 C47.2804688,71.61 48.2109375,70.4542969 48.0717188,69.1673438 C47.9325,67.880625 46.7763281,66.9492188 45.4898438,67.089375 C33.0039844,68.4391406 21.6714844,71.585625 13.5796875,75.9492188 C4.69992188,80.7377344 0.006328125,86.6892188 0.006328125,93.1605469 C0.006328125,100.703438 6.50976563,107.621016 18.3185156,112.63875 C29.4909375,117.385547 44.2933594,120 60,120 C75.7066406,120 90.5090625,117.385547 101.681016,112.63875 C113.489766,107.621016 119.993203,100.703672 119.993203,93.1605469 C119.993203,84.4478906 111.248906,76.5733594 96.001875,71.5558594 Z" id="Path" fill="#198B39"></path>
                <path d="M85.2789844,68.7461719 L85.1974219,68.7297656 C83.92875,68.4740625 82.6926562,69.2950781 82.4367187,70.56375 C82.1810156,71.8324219 83.0020312,73.0685156 84.2707031,73.3244531 L84.3522656,73.3408594 C84.5088281,73.3722656 84.6644531,73.3875 84.8182031,73.3875 C85.910625,73.3875 86.8884375,72.6189844 87.1129687,71.506875 C87.3686719,70.2382031 86.5476562,69.0021094 85.2789844,68.7461719 Z" id="Path" fill="#35000B"></path>
                <path d="M42.2810156,78.9892969 C42.0271875,77.7203906 40.7927344,76.8975 39.5233594,77.1508594 C39.470625,77.1614063 39.4146094,77.1745313 39.3625781,77.1888281 C38.1140625,77.529375 37.3778906,78.8175 37.7184375,80.06625 C38.0027344,81.10875 38.9472656,81.7938281 39.9780469,81.7938281 C40.1625,81.7938281 40.3492969,81.7720312 40.5358594,81.7263281 C41.7520313,81.4321875 42.52875,80.2272656 42.2810156,78.9892969 Z" id="Path" fill="#35000B"></path>
                <path d="M67.8194531,75.1748437 C66.5278125,75.0752344 65.4011719,76.0380469 65.3001563,77.3282812 C65.1991406,78.6185156 66.1633594,79.7465625 67.4535938,79.8475781 C82.7547656,81.0452344 90.9042188,85.520625 90.9042188,88.2907031 C90.9042188,89.6271094 88.77375,91.8972656 82.7692969,93.8969531 C76.7219531,95.9109375 68.6357813,97.0202344 60,97.0202344 C51.3642188,97.0202344 43.2778125,95.9111719 37.2307031,93.8969531 C31.22625,91.8972656 29.0957813,89.6271094 29.0957813,88.2907031 C29.0957813,87.069375 30.7521094,85.5295312 33.5264063,84.1722656 C34.6889063,83.6034375 35.1700781,82.2 34.60125,81.0375 C34.0324219,79.875 32.6289844,79.3935937 31.46625,79.9626562 C25.633125,82.816875 24.4085156,86.0669531 24.4085156,88.2911719 C24.4085156,97.0992187 42.313125,101.707734 59.9997656,101.707734 C77.6864063,101.707734 95.59125,97.0992187 95.59125,88.2909375 C95.59125,80.214375 80.6308594,76.1777344 67.8194531,75.1748437 Z" id="Path" fill="#198B39"></path>
            </g>
        </g>
    </g>
</svg>