<?xml version="1.0" encoding="UTF-8"?>
<svg width="20px" height="22px" viewBox="0 0 20 22" version="1.1" xmlns="http://www.w3.org/2000/svg" xmlns:xlink="http://www.w3.org/1999/xlink">
    <!-- Generator: Sketch 63.1 (92452) - https://sketch.com -->
    <title>password</title>
    <desc>Created with Sketch.</desc>
    <g id="UI" stroke="none" stroke-width="1" fill="none" fill-rule="evenodd">
        <g id="Mi-Cuenta" transform="translate(-26.000000, -426.000000)" fill="#FFFFFF" fill-rule="nonzero">
            <g id="Group-2-Copy-5" transform="translate(20.000000, 421.000000)">
                <g id="password" transform="translate(6.000000, 5.000000)">
                    <circle id="Oval" cx="14.5" cy="14.8636364" r="1"></circle>
                    <path d="M18.4123377,15.5546875 C18.8875308,15.5546875 19.2727273,15.1699453 19.2727273,14.6953125 L19.2727273,11.515625 C19.2727273,9.6201875 17.7288442,8.078125 15.8311688,8.078125 L14.7971096,8.078125 L14.7971096,5.04736719 C14.7971096,2.26423828 12.4812849,0 9.63477192,0 C6.78825893,0 4.47243425,2.26423828 4.47243425,5.04736719 L4.47243425,8.078125 L3.44155844,8.078125 C1.54388312,8.078125 0,9.6201875 0,11.515625 L0,18.5625 C0,20.4579375 1.54388312,22 3.44155844,22 L15.8311688,22 C17.7288442,22 19.2727273,20.4579375 19.2727273,18.5625 C19.2727273,18.0878672 18.8875308,17.703125 18.4123377,17.703125 C17.9371445,17.703125 17.5519481,18.0878672 17.5519481,18.5625 C17.5519481,19.5102187 16.7800065,20.28125 15.8311688,20.28125 L3.44155844,20.28125 C2.49272078,20.28125 1.72077922,19.5102187 1.72077922,18.5625 L1.72077922,11.515625 C1.72077922,10.5679063 2.49272078,9.796875 3.44155844,9.796875 L15.8311688,9.796875 C16.7800065,9.796875 17.5519481,10.5679063 17.5519481,11.515625 L17.5519481,14.6953125 C17.5519481,15.1699453 17.9371445,15.5546875 18.4123377,15.5546875 Z M13.0763304,8.078125 L6.19321347,8.078125 L6.19321347,5.04736719 C6.19321347,3.21195703 7.73709659,1.71875 9.63477192,1.71875 C11.5324472,1.71875 13.0763304,3.21195703 13.0763304,5.04736719 L13.0763304,8.078125 Z" id="Shape"></path>
                    <circle id="Oval" cx="8.04545455" cy="14.8636364" r="1"></circle>
                    <circle id="Oval" cx="4.86363636" cy="14.8636364" r="1"></circle>
                    <circle id="Oval" cx="11.2272727" cy="14.8636364" r="1"></circle>
                </g>
            </g>
        </g>
    </g>
</svg>