<?xml version="1.0" encoding="UTF-8"?>
<svg width="22px" height="17px" viewBox="0 0 22 17" version="1.1" xmlns="http://www.w3.org/2000/svg" xmlns:xlink="http://www.w3.org/1999/xlink">
    <!-- Generator: Sketch 63.1 (92452) - https://sketch.com -->
    <title>identification</title>
    <desc>Created with Sketch.</desc>
    <g id="UI" stroke="none" stroke-width="1" fill="none" fill-rule="evenodd">
        <g id="Mi-Cuenta" transform="translate(-25.000000, -303.000000)" fill="#FFFFFF" fill-rule="nonzero">
            <g id="Group-2" transform="translate(20.000000, 295.000000)">
                <g id="identification" transform="translate(5.000000, 8.000000)">
                    <path d="M6.62037037,7.94444444 C7.91414868,7.94444444 8.96296296,6.89548857 8.96296296,5.60185185 C8.96296296,4.30807354 7.91414868,3.25925926 6.62037037,3.25925926 C5.32659206,3.25925926 4.27777778,4.30807354 4.27777778,5.60185185 C4.27947695,6.89492218 5.32730004,7.94274527 6.62037037,7.94444444 Z M6.62037037,4.17001576 C7.41360075,4.17001576 8.05673759,4.81301097 8.05673759,5.60638298 C8.05673759,6.39961336 7.41360075,7.0427502 6.62037037,7.0427502 C5.82699837,7.0427502 5.18400315,6.39961336 5.18400315,5.60638298 C5.18428633,4.8131526 5.82713999,4.17029894 6.62037037,4.17001576 Z" id="Shape"></path>
                    <path d="M6.51851852,8.75935757 C5.54167396,8.75210827 4.60408214,9.14603638 3.92322045,9.84965548 C3.23052524,10.559509 2.85185185,11.5245387 2.85185185,12.5730805 C2.8525734,12.8289815 3.05893887,13.0363121 3.31364866,13.037037 L9.72338838,13.037037 C9.97809817,13.0363121 10.1844636,12.8289815 10.1851852,12.5730805 C10.1851852,11.5245387 9.8065118,10.559509 9.11381659,9.84965548 C8.4329549,9.14603638 7.49550737,8.75210827 6.51851852,8.75935757 Z M3.80777125,12.1091239 C3.88685395,11.5025007 4.15902543,10.9379236 4.58358989,10.4991947 C5.09459691,9.9797083 5.79147715,9.68727069 6.51851852,9.68727069 C7.24555989,9.68727069 7.94244013,9.9797083 8.45344715,10.4991947 C8.87714572,10.9383585 9.14931724,11.5027907 9.22926579,12.1091239 L3.80777125,12.1091239 Z" id="Shape"></path>
                    <path d="M19.7083333,0 L2.29166667,0 C1.02623697,0.000575434191 0.000572916667,1.03074649 0,2.30173677 L0,13.9945595 C0.000572916667,15.2655498 1.02623697,16.2957209 2.29166667,16.2962963 L19.7083333,16.2962963 C20.973763,16.2957209 21.9994271,15.2655498 22,13.9945595 L22,2.30173677 C21.9994271,1.03074649 20.973763,0.000575434191 19.7083333,0 Z M21.0833333,13.9945595 C21.0811849,14.7562906 20.4667318,15.3734437 19.7083333,15.3756016 L2.29166667,15.3756016 C1.53326822,15.3734437 0.918815113,14.7562906 0.916666667,13.9945595 L0.916666667,2.30173677 C0.918815113,1.54000575 1.53326822,0.922852593 2.29166667,0.920694706 L19.7083333,0.920694706 C20.4667318,0.922852593 21.0811849,1.54000575 21.0833333,2.30173677 L21.0833333,13.9945595 Z" id="Shape"></path>
                    <path d="M18.6855244,7.74074074 L13.2959571,7.74074074 C13.040502,7.74074074 12.8333333,7.96863426 12.8333333,8.25 C12.8333333,8.53136574 13.040502,8.75925926 13.2959571,8.75925926 L18.6855244,8.75925926 C18.9409794,8.75925926 19.1481481,8.53136574 19.1481481,8.25 C19.1481481,7.96863426 18.9409794,7.74074074 18.6855244,7.74074074 Z" id="Path"></path>
                    <path d="M18.6855244,10.5925926 L13.2959571,10.5925926 C13.040502,10.5925926 12.8333333,10.8204861 12.8333333,11.1018519 C12.8333333,11.3832176 13.040502,11.6111111 13.2959571,11.6111111 L18.6855244,11.6111111 C18.9409794,11.6111111 19.1481481,11.3832176 19.1481481,11.1018519 C19.1481481,10.8204861 18.9409794,10.5925926 18.6855244,10.5925926 Z" id="Path"></path>
                    <path d="M18.6855244,4.68518519 L13.2959571,4.68518519 C13.040502,4.68518519 12.8333333,4.9130787 12.8333333,5.19444444 C12.8333333,5.47581019 13.040502,5.7037037 13.2959571,5.7037037 L18.6855244,5.7037037 C18.9409794,5.7037037 19.1481481,5.47581019 19.1481481,5.19444444 C19.1481481,4.9130787 18.9409794,4.68518519 18.6855244,4.68518519 Z" id="Path"></path>
                </g>
            </g>
        </g>
    </g>
</svg>