<?xml version="1.0" encoding="UTF-8"?>
<svg width="22px" height="15px" viewBox="0 0 22 15" version="1.1" xmlns="http://www.w3.org/2000/svg" xmlns:xlink="http://www.w3.org/1999/xlink">
    <!-- Generator: Sketch 63.1 (92452) - https://sketch.com -->
    <title>credit-card (1)</title>
    <desc>Created with Sketch.</desc>
    <g id="UI" stroke="none" stroke-width="1" fill="none" fill-rule="evenodd">
        <g id="Mi-Cuenta" transform="translate(-25.000000, -388.000000)" fill="#FFFFFF" fill-rule="nonzero">
            <g id="Group-2-Copy-4" transform="translate(20.000000, 379.000000)">
                <g id="credit-card-(1)" transform="translate(5.000000, 9.000000)">
                    <path d="M19.7083477,0.0143085937 L2.29165234,0.0143085937 C1.0285,0.0143085937 0,1.04280859 0,2.30600391 L0,12.3893516 C0,13.6525039 1.0285,14.6810039 2.29165234,14.6810039 L19.7083047,14.6810039 C20.971457,14.6810039 21.999957,13.6525039 21.999957,12.3893516 L21.999957,2.30600391 C21.999957,1.04280859 20.9715,0.0143085937 19.7083477,0.0143085937 Z M21.0833477,12.3893086 C21.0833477,13.1474063 20.4664453,13.7643086 19.7083477,13.7643086 L2.29165234,13.7643086 C1.53355469,13.7643086 0.916652344,13.1474063 0.916652344,12.3893086 L0.916652344,2.30600391 C0.916652344,1.54790625 1.53355469,0.931003906 2.29165234,0.931003906 L19.7083047,0.931003906 C20.4664023,0.931003906 21.0833477,1.54790625 21.0833477,2.30600391 L21.0833477,12.3893086 L21.0833477,12.3893086 Z" id="Shape"></path>
                    <path d="M21.5416523,2.76430859 L0.458347656,2.76430859 C0.205347656,2.76430859 0,2.96965625 0,3.22265625 L0,5.97265625 C0,6.22565625 0.205347656,6.43100391 0.458347656,6.43100391 L21.5416953,6.43100391 C21.7946953,6.43100391 22.000043,6.22565625 22.000043,5.97265625 L22.000043,3.22265625 C22.000043,2.96965625 21.7946523,2.76430859 21.5416523,2.76430859 Z M21.0833477,5.51430859 L0.916652344,5.51430859 L0.916652344,3.68096094 L21.0833477,3.68096094 L21.0833477,5.51430859 L21.0833477,5.51430859 Z" id="Shape"></path>
                    <path d="M8.70834766,9.18100391 L3.20834766,9.18100391 C2.95534766,9.18100391 2.75,9.38635156 2.75,9.63935156 C2.75,9.89235156 2.95534766,10.0976562 3.20834766,10.0976562 L8.70834766,10.0976562 C8.96134766,10.0976562 9.16669531,9.89230859 9.16669531,9.63930859 C9.16669531,9.38630859 8.96134766,9.18100391 8.70834766,9.18100391 Z" id="Path"></path>
                    <path d="M8.70834766,11.0143086 L3.20834766,11.0143086 C2.95534766,11.0143086 2.75,11.2196562 2.75,11.4726562 C2.75,11.7256562 2.95534766,11.9310039 3.20834766,11.9310039 L8.70834766,11.9310039 C8.96134766,11.9310039 9.16669531,11.7256562 9.16669531,11.4726562 C9.16669531,11.2196562 8.96134766,11.0143086 8.70834766,11.0143086 Z" id="Path"></path>
                    <path d="M17.875,8.26430859 L16.9583477,8.26430859 C16.20025,8.26430859 15.5833477,8.88121094 15.5833477,9.63930859 L15.5833477,10.5559609 C15.5833477,11.3140586 16.20025,11.9309609 16.9583477,11.9309609 L17.875,11.9309609 C18.6330977,11.9309609 19.25,11.3140586 19.25,10.5559609 L19.25,9.63930859 C19.25,8.88125391 18.6330977,8.26430859 17.875,8.26430859 Z M18.3333477,10.5560039 C18.3333477,10.8090039 18.128,11.0143516 17.875,11.0143516 L16.9583477,11.0143516 C16.7053477,11.0143516 16.5,10.8090039 16.5,10.5560039 L16.5,9.63935156 C16.5,9.38635156 16.7053477,9.18100391 16.9583477,9.18100391 L17.875,9.18100391 C18.128,9.18100391 18.3333477,9.38635156 18.3333477,9.63935156 L18.3333477,10.5560039 Z" id="Shape"></path>
                </g>
            </g>
        </g>
    </g>
</svg>