<?xml version="1.0" encoding="UTF-8"?>
<svg width="22px" height="22px" viewBox="0 0 22 22" version="1.1" xmlns="http://www.w3.org/2000/svg" xmlns:xlink="http://www.w3.org/1999/xlink">
    <!-- Generator: Sketch 63.1 (92452) - https://sketch.com -->
    <title>phone-call</title>
    <desc>Created with Sketch.</desc>
    <g id="UI" stroke="none" stroke-width="1" fill="none" fill-rule="evenodd">
        <g id="Mi-Cuenta" transform="translate(-25.000000, -342.000000)" fill="#FFFFFF" fill-rule="nonzero">
            <g id="Group-2-Copy" transform="translate(20.000000, 337.000000)">
                <g id="phone-call" transform="translate(5.000000, 5.000000)">
                    <path d="M17.3798143,13.6226414 C16.9296034,13.153865 16.3865654,12.9032321 15.811038,12.9032321 C15.2401519,12.9032321 14.6924726,13.1492236 14.2236962,13.618 L12.7570295,15.0800253 C12.6363544,15.0150464 12.5156793,14.9547089 12.3996456,14.8943713 C12.232557,14.810827 12.0747511,14.7319241 11.9401519,14.6483797 C10.5663122,13.7758059 9.31778903,12.6386751 8.12032068,11.1673671 C7.5401519,10.4340338 7.15027848,9.81673418 6.86715612,9.1901519 C7.24774684,8.84205063 7.60048945,8.48002532 7.94394937,8.13192405 C8.07390717,8.00196624 8.20386498,7.86736709 8.33382278,7.73740928 C9.30850633,6.76272574 9.30850633,5.50027848 8.33382278,4.52559494 L7.06673418,3.25850633 C6.92285232,3.11462447 6.77432911,2.96610127 6.63508861,2.81757806 C6.35660759,2.52981435 6.06420253,2.23276793 5.76251477,1.95428692 C5.3123038,1.5087173 4.77390717,1.27200844 4.20766245,1.27200844 C3.64141772,1.27200844 3.0937384,1.5087173 2.62960338,1.95428692 C2.62496203,1.95892827 2.62496203,1.95892827 2.62032068,1.96356962 L1.0422616,3.55555274 C0.448168776,4.14964557 0.109350211,4.8736962 0.0350886076,5.71378059 C-0.0763037975,7.06905485 0.322852321,8.33150211 0.629181435,9.15766245 C1.38108017,11.1859325 2.50428692,13.0656793 4.17981435,15.0800253 C6.21272574,17.5074515 8.6587173,19.4243291 11.4528101,20.774962 C12.5203207,21.2808692 13.9452152,21.8796034 15.5371983,21.9817131 C15.6346667,21.9863544 15.7367764,21.9909958 15.8296034,21.9909958 C16.9017553,21.9909958 17.8021772,21.6057637 18.5076624,20.8399409 C18.5123038,20.8306582 18.5215865,20.8260169 18.5262278,20.8167342 C18.7675781,20.5243291 19.0460591,20.2597722 19.3384641,19.9766498 C19.5380422,19.7863544 19.7422616,19.5867764 19.9418397,19.3779156 C20.4013333,18.8998565 20.6426835,18.3428945 20.6426835,17.7720084 C20.6426835,17.196481 20.396692,16.6441603 19.9279156,16.1800253 L17.3798143,13.6226414 Z M19.0414177,18.5099831 C19.0367764,18.5099831 19.0367764,18.5146245 19.0414177,18.5099831 C18.8604051,18.7049198 18.6747511,18.8812911 18.475173,19.0762278 C18.1734852,19.3639916 17.8671561,19.6656793 17.5793924,20.0044979 C17.110616,20.5057637 16.5582954,20.7424726 15.8342447,20.7424726 C15.7646245,20.7424726 15.6903629,20.7424726 15.6207426,20.7378312 C14.2422616,20.6496456 12.9612489,20.1112489 12.0004895,19.6517553 C9.37348523,18.3800253 7.06673418,16.5745401 5.14985654,14.2863544 C3.56715612,12.3787595 2.50892827,10.6150464 1.80808439,8.72137553 C1.37643882,7.56567932 1.21863291,6.66525738 1.28825316,5.8158903 C1.33466667,5.27285232 1.54352743,4.82264135 1.92875949,4.43740928 L3.51145992,2.85470886 C3.73888608,2.64120675 3.98023629,2.525173 4.21694515,2.525173 C4.50935021,2.525173 4.74605907,2.7015443 4.89458228,2.85006751 C4.89922363,2.85470886 4.90386498,2.85935021 4.90850633,2.86399156 C5.19162869,3.12854852 5.460827,3.40238819 5.74394937,3.69479325 C5.88783122,3.84331646 6.03635443,3.99183966 6.18487764,4.14500422 L7.45196624,5.41209283 C7.94394937,5.90407595 7.94394937,6.35892827 7.45196624,6.85091139 C7.31736709,6.98551055 7.18740928,7.1201097 7.05281013,7.25006751 C6.66293671,7.64922363 6.29162869,8.02053165 5.88783122,8.38255696 C5.87854852,8.39183966 5.86926582,8.39648101 5.86462447,8.40576371 C5.46546835,8.80491983 5.53972996,9.19479325 5.62327426,9.45935021 C5.62791561,9.47327426 5.63255696,9.48719831 5.63719831,9.50112236 C5.96673418,10.2994346 6.4308692,11.0513333 7.13635443,11.9471139 L7.14099578,11.9517553 C8.42200844,13.5298143 9.77264135,14.7597722 11.2625148,15.7019662 C11.4528101,15.8226414 11.6477468,15.9201097 11.8334008,16.0129367 C12.0004895,16.096481 12.1582954,16.175384 12.2928945,16.2589283 C12.3114599,16.268211 12.3300253,16.282135 12.3485907,16.2914177 C12.5063966,16.3703207 12.6549198,16.4074515 12.8080844,16.4074515 C13.1933165,16.4074515 13.4346667,16.1661013 13.5135696,16.0871983 L15.1009114,14.4998565 C15.2587173,14.3420506 15.5093502,14.1517553 15.8017553,14.1517553 C16.089519,14.1517553 16.3262278,14.3327679 16.4701097,14.4905738 C16.4747511,14.4952152 16.4747511,14.4952152 16.4793924,14.4998565 L19.0367764,17.0572405 C19.5148354,17.5306582 19.5148354,18.018 19.0414177,18.5099831 Z" id="Shape"></path>
                    <path d="M11.8844557,5.23108017 C13.1004895,5.43529958 14.2051308,6.010827 15.0869873,6.89268354 C15.9688439,7.77454008 16.53973,8.87918143 16.7485907,10.0952152 C16.7996456,10.4015443 17.0642025,10.6150464 17.3658903,10.6150464 C17.4030211,10.6150464 17.4355105,10.6104051 17.4726414,10.6057637 C17.8161013,10.5500675 18.0435274,10.225173 17.9878312,9.88171308 C17.7371983,8.41040506 17.0409958,7.06905485 15.9781266,6.00618565 C14.9152574,4.94331646 13.5739072,4.24711392 12.1025992,3.99648101 C11.7591392,3.94078481 11.4388861,4.16821097 11.3785485,4.50702954 C11.318211,4.8458481 11.5409958,5.17538397 11.8844557,5.23108017 Z" id="Path"></path>
                    <path d="M21.9654684,9.70070042 C21.5523882,7.27791561 20.410616,5.07327426 18.6561857,3.31884388 C16.9017553,1.5644135 14.6971139,0.42264135 12.2743291,0.00956118143 C11.9355105,-0.0507763713 11.6152574,0.181291139 11.5549198,0.520109705 C11.4992236,0.86356962 11.7266498,1.18382278 12.0701097,1.24416034 C14.2329789,1.610827 16.2055527,2.6365654 17.7743291,4.20070042 C19.3431055,5.76947679 20.3642025,7.74205063 20.7308692,9.90491983 C20.7819241,10.2112489 21.046481,10.4247511 21.3481688,10.4247511 C21.3852996,10.4247511 21.417789,10.4201097 21.4549198,10.4154684 C21.7937384,10.3644135 22.0258059,10.039519 21.9654684,9.70070042 Z" id="Path"></path>
                </g>
            </g>
        </g>
    </g>
</svg>